<?xml version="1.0" encoding="UTF-8" standalone="no"?><!DOCTYPE svg PUBLIC "-//W3C//DTD SVG 1.1//EN" "http://www.w3.org/Graphics/SVG/1.1/DTD/svg11.dtd"><svg width="100%" height="100%" viewBox="0 0 711 242" version="1.1" xmlns="http://www.w3.org/2000/svg" xmlns:xlink="http://www.w3.org/1999/xlink" xml:space="preserve" xmlns:serif="http://www.serif.com/" style="fill-rule:evenodd;clip-rule:evenodd;stroke-linecap:round;stroke-miterlimit:10;"><g><path d="M710.164,206.188c-0,-6.289 -5.106,-11.395 -11.395,-11.395l-110.914,-0c-6.289,-0 -11.395,5.106 -11.395,11.395l-0,22.789c-0,6.29 5.106,11.395 11.395,11.395l110.914,0c6.289,0 11.395,-5.105 11.395,-11.395l-0,-22.789Z" style="fill:#b3212b;"/><path d="M621.533,141.474c0,-6.289 -5.106,-11.395 -11.395,-11.395l-110.914,-0c-6.289,-0 -11.394,5.106 -11.394,11.395l-0,22.79c-0,6.289 5.105,11.395 11.394,11.395l110.914,-0c6.289,-0 11.395,-5.106 11.395,-11.395l0,-22.79Z" style="fill:#2182b3;"/><path d="M540.924,78.948c-0,-6.289 -5.106,-11.395 -11.395,-11.395l-110.914,0c-6.289,0 -11.395,5.106 -11.395,11.395l-0,22.79c-0,6.289 5.106,11.395 11.395,11.395l110.914,-0c6.289,-0 11.395,-5.106 11.395,-11.395l-0,-22.79Z" style="fill:#21b347;"/><path d="M455.761,11.395c-0,-6.289 -5.106,-11.395 -11.395,-11.395l-110.914,0c-6.289,0 -11.395,5.106 -11.395,11.395l-0,22.79c-0,6.289 5.106,11.395 11.395,11.395l110.914,-0c6.289,-0 11.395,-5.106 11.395,-11.395l-0,-22.79Z" style="fill:#b39121;"/><path d="M359.168,29.444l-0,-9.772l2.949,-0c3.186,-0 4.798,2.457 4.798,4.896c0,2.438 -1.612,4.876 -4.798,4.876l-2.949,0Zm-1.986,-11.759l-0,13.745l4.935,0c4.503,0 6.765,-3.421 6.765,-6.862c-0,-3.441 -2.262,-6.883 -6.765,-6.883l-4.935,0Z" style="fill:#fff;fill-rule:nonzero;"/><path d="M371.89,25.551l6.233,-0l0,-2.006l-6.233,0l0,-3.873l6.371,-0l0,-1.987l-8.377,0l0,13.745l8.397,0l-0,-1.986l-6.391,0l0,-3.893Z" style="fill:#fff;fill-rule:nonzero;"/><path d="M388.643,21.146c-0.354,-2.517 -2.556,-3.618 -4.68,-3.618c-1.592,0 -3.244,0.629 -4.168,1.829c-0.59,0.767 -0.826,1.691 -0.747,2.615l-0,-0.02c0.216,2.871 2.733,3.343 4.876,3.56c1.377,0.137 2.792,0.314 3.028,1.356c0.04,0.177 0.059,0.335 0.059,0.472c0,1.416 -1.612,2.242 -3.087,2.242c-1.278,-0 -2.831,-0.669 -2.969,-1.947l-0,0.079l-0.02,-0.295l-2.005,0.039l0.019,0.374c0.256,2.458 2.832,3.716 4.955,3.716c2.478,0 5.113,-1.533 5.113,-4.188c0,-0.275 -0.039,-0.61 -0.098,-0.905c-0.531,-2.202 -2.871,-2.693 -4.759,-2.929c-1.475,-0.138 -3.028,-0.315 -3.126,-1.731c-0.04,-0.472 0.059,-0.924 0.334,-1.278c0.55,-0.708 1.573,-1.022 2.497,-1.042c1.2,-0.02 2.537,0.511 2.812,1.75l1.966,-0.079Z" style="fill:#fff;fill-rule:nonzero;"/><path d="M395.801,20.655l1.691,4.857l-3.421,-0l1.73,-4.857Zm4.11,10.775l2.123,0l-5.525,-13.941l-1.455,-0l-5.526,13.941l2.144,0c0.432,-1.14 1.12,-2.792 1.651,-4.05l4.936,-0l1.652,4.05Z" style="fill:#fff;fill-rule:nonzero;"/><path d="M409.546,17.685l-7.099,0l0,1.967l2.556,-0l0,9.792l-2.556,0l0,1.986l7.099,0l-0,-1.986l-2.557,0l0,-9.792l2.557,-0l-0,-1.967Z" style="fill:#fff;fill-rule:nonzero;"/><path d="M412.417,31.43l-0,-9.615l6.646,9.615l1.573,0l-0,-13.764l-1.966,-0l-0,9.694l-6.706,-9.694l-1.533,-0.02l-0,13.784l1.986,0Z" style="fill:#fff;fill-rule:nonzero;"/><path d="M451.321,83.481l0,13.744l1.966,0l0,-13.744l-1.966,-0Zm2.34,7.373l5.25,6.371l2.596,0l-5.801,-6.921l5.25,-6.823l-2.497,-0l-4.798,6.37l0,1.003Z" style="fill:#fff;fill-rule:nonzero;"/><path d="M472.459,90.343c0,1.416 -0.57,2.655 -1.455,3.559c-0.924,0.924 -2.202,1.495 -3.559,1.495c-1.357,-0 -2.615,-0.571 -3.52,-1.495c-0.904,-0.904 -1.474,-2.163 -1.474,-3.559c-0,-1.396 0.57,-2.654 1.474,-3.559c0.905,-0.924 2.163,-1.494 3.52,-1.494c1.357,-0 2.635,0.57 3.559,1.494c0.885,0.905 1.455,2.143 1.455,3.559Zm-12.014,0c-0,1.947 0.806,3.697 2.045,4.975c1.258,1.298 3.028,2.084 4.955,2.084c1.947,0 3.697,-0.786 4.975,-2.084c1.239,-1.278 2.045,-3.028 2.045,-4.975c0,-1.947 -0.806,-3.697 -2.045,-4.975c-1.278,-1.278 -3.028,-2.084 -4.975,-2.084c-1.927,-0 -3.697,0.806 -4.955,2.084c-1.239,1.278 -2.045,3.028 -2.045,4.975Z" style="fill:#fff;fill-rule:nonzero;"/><path d="M477.71,95.239l-0,-9.772l2.949,-0c3.186,-0 4.798,2.457 4.798,4.896c-0,2.438 -1.612,4.876 -4.798,4.876l-2.949,0Zm-1.987,-11.758l0,13.744l4.936,0c4.503,0 6.764,-3.421 6.764,-6.862c0,-3.441 -2.261,-6.882 -6.764,-6.882l-4.936,-0Z" style="fill:#fff;fill-rule:nonzero;"/><path d="M490.432,91.346l6.233,-0l0,-2.006l-6.233,0l-0,-3.873l6.371,-0l-0,-1.986l-8.377,-0l0,13.744l8.396,0l0,-1.986l-6.39,0l-0,-3.893Z" style="fill:#fff;fill-rule:nonzero;"/><path d="M546.017,159.81c2.359,-0 5.073,-1.455 5.073,-4.247l-0,-9.636l-2.006,0l0,9.616c0,1.514 -1.632,2.281 -3.067,2.281c-1.456,-0 -3.088,-0.747 -3.088,-2.261l0,-9.636l-2.005,0l-0,9.616c-0,2.812 2.674,4.267 5.093,4.267Z" style="fill:#fff;fill-rule:nonzero;"/><path d="M560.45,145.927l-5.703,0l0,1.967l3.717,-0l-0,5.82c-0,2.733 -2.36,4.09 -5.487,4.09l0,1.868c4.228,0 7.473,-1.868 7.473,-5.958l-0,-7.787Z" style="fill:#fff;fill-rule:nonzero;"/><path d="M568.059,145.927l-7.098,0l-0,1.967l2.556,-0l0,9.792l-2.556,0l-0,1.986l7.098,0l0,-1.986l-2.556,0l0,-9.792l2.556,-0l0,-1.967Z" style="fill:#fff;fill-rule:nonzero;"/><path d="M611.457,210.681l-1.986,-0l-0,13.744l8.455,0l0,-1.986l-6.469,0l-0,-11.758Z" style="fill:#fff;fill-rule:nonzero;"/><path d="M623.294,224.563c2.36,0 5.073,-1.455 5.073,-4.247l0,-9.635l-2.005,-0l-0,9.615c-0,1.514 -1.632,2.281 -3.068,2.281c-1.455,0 -3.087,-0.747 -3.087,-2.261l0,-9.635l-2.006,-0l0,9.615c0,2.812 2.675,4.267 5.093,4.267Z" style="fill:#fff;fill-rule:nonzero;"/><path d="M631.73,224.425l-0,-9.615l6.646,9.615l1.573,0l0,-13.764l-1.966,-0l-0,9.694l-6.705,-9.694l-1.534,-0.02l-0,13.784l1.986,0Z" style="fill:#fff;fill-rule:nonzero;"/><path d="M641.05,217.583c0,1.907 0.787,3.637 1.967,4.896c1.199,1.258 2.89,2.045 4.758,2.045c3.206,-0 5.722,-2.124 6.509,-5.25l-1.947,-0c-0.708,2.084 -2.477,3.283 -4.562,3.283c-1.317,0 -2.517,-0.57 -3.382,-1.474c-0.865,-0.905 -1.416,-2.124 -1.416,-3.5c0,-1.416 0.551,-2.635 1.416,-3.54c0.865,-0.904 2.065,-1.475 3.382,-1.475c2.026,0 3.717,1.042 4.444,3.107l1.967,0c-0.787,-3.107 -3.264,-5.073 -6.411,-5.073c-1.868,-0 -3.559,0.806 -4.758,2.045c-1.18,1.258 -1.967,2.989 -1.967,4.936Z" style="fill:#fff;fill-rule:nonzero;"/><path d="M660.399,224.563c2.36,0 5.073,-1.455 5.073,-4.247l0,-9.635l-2.005,-0l-0,9.615c-0,1.514 -1.632,2.281 -3.068,2.281c-1.455,0 -3.087,-0.747 -3.087,-2.261l0,-9.635l-2.006,-0l0,9.615c0,2.812 2.675,4.267 5.093,4.267Z" style="fill:#fff;fill-rule:nonzero;"/><path d="M669.563,218.389l5.014,6.036l2.576,0l-4.346,-5.171c2.36,-0.413 3.559,-2.261 3.559,-4.208c0,-2.183 -1.494,-4.385 -4.483,-4.385l-5.014,-0l-0,13.764l1.966,0l-0,-11.758l3.048,-0c1.671,-0 2.497,1.199 2.497,2.379c0,1.199 -0.826,2.399 -2.497,2.399l-2.32,-0l-0,0.944Z" style="fill:#fff;fill-rule:nonzero;"/><path d="M484.463,60.083l-4.562,4.437l-4.437,-4.562" style="fill:none;stroke:#a26c66;stroke-width:3px;"/><path d="M455.761,24.519l24.695,-0c0,-0 -0.436,31.454 -0.555,40.001" style="fill:none;stroke:#a26c66;stroke-width:3px;stroke-linejoin:round;stroke-miterlimit:1.5;"/><path d="M571.036,123.52l-4.562,4.438l-4.437,-4.562" style="fill:none;stroke:#a26c66;stroke-width:3px;"/><path d="M542.334,87.956l24.695,0c0,0 -0.436,31.455 -0.555,40.002" style="fill:none;stroke:#a26c66;stroke-width:3px;stroke-linejoin:round;stroke-miterlimit:1.5;"/><path d="M650.236,188.234l-4.562,4.438l-4.437,-4.563" style="fill:none;stroke:#a26c66;stroke-width:3px;"/><path d="M621.533,152.67l24.696,0c0,0 -0.437,31.455 -0.555,40.002" style="fill:none;stroke:#a26c66;stroke-width:3px;stroke-linejoin:round;stroke-miterlimit:1.5;"/></g><g><path d="M57.05,130.388c4.588,30.738 31.127,54.348 63.136,54.348c2.044,-0 4.065,-0.096 6.055,-0.284l-28.458,26.647l31.648,29.634c-3.05,0.232 -6.134,0.351 -9.245,0.351c-62.293,-0 -113.58,-47.494 -119.595,-108.208l29.394,-31.392l27.065,28.904Z" style="fill:#21b347;"/><path d="M240.021,111.653c0.233,3.05 0.351,6.133 0.351,9.244c0,62.293 -47.494,113.581 -108.207,119.596l-31.393,-29.394l28.904,-27.065c30.739,-4.588 54.349,-31.127 54.349,-63.137c-0,-2.043 -0.097,-4.064 -0.284,-6.054l26.646,28.458l29.634,-31.648Z" style="fill:#b39121;"/><path d="M110.941,1.062c3.051,-0.232 6.134,-0.351 9.245,-0.351c62.293,0 113.581,47.494 119.596,108.208l-29.395,31.392l-27.064,-28.904c-4.589,-30.738 -31.127,-54.348 -63.137,-54.348c-2.043,0 -4.065,0.096 -6.054,0.284l28.458,-26.647l-31.649,-29.634Z" style="fill:#b3212b;"/><path d="M139.6,30.696l-28.904,27.065c-30.738,4.588 -54.348,31.127 -54.348,63.136c-0,2.044 0.096,4.065 0.284,6.055l-26.647,-28.458l-29.634,31.648c-0.233,-3.05 -0.351,-6.134 -0.351,-9.245c0,-62.292 47.494,-113.58 108.208,-119.595l31.392,29.394Z" style="fill:#2182b3;"/><path d="M84.787,111.891l-8.617,0l0,2.387l3.103,0l0,11.888l-3.103,-0l0,2.411l8.617,-0l0,-2.411l-3.103,-0l0,-11.888l3.103,0l0,-2.387Z" style="fill-rule:nonzero;"/><path d="M92.975,128.648l-0,-14.537l5.036,0l0,-2.244l-12.508,0l0,2.244l5.061,0l-0,14.537l2.411,0Z" style="fill-rule:nonzero;"/><path d="M101.449,121.439l7.566,0l0,-2.434l-7.566,-0l-0,-4.703l7.733,0l0,-2.411l-10.168,0l-0,16.686l10.192,-0l0,-2.411l-7.757,-0l-0,-4.727Z" style="fill-rule:nonzero;"/><path d="M113.575,121.248l6.086,7.329l3.127,-0l-5.275,-6.278c2.865,-0.502 4.321,-2.745 4.321,-5.108c-0,-2.65 -1.815,-5.324 -5.443,-5.324l-6.087,0l0,16.71l2.387,-0l0,-14.275l3.7,0c2.029,0 3.032,1.456 3.032,2.889c-0,1.456 -1.003,2.912 -3.032,2.912l-2.816,-0l-0,1.145Z" style="fill-rule:nonzero;"/><path d="M129.926,115.496l2.052,5.896l-4.153,-0l2.101,-5.896Zm4.988,13.081l2.578,-0l-6.707,-16.924l-1.766,-0l-6.708,16.924l2.602,-0c0.525,-1.385 1.36,-3.39 2.005,-4.918l5.991,0l2.005,4.918Z" style="fill-rule:nonzero;"/><path d="M148.998,116.092c-0.43,-3.055 -3.103,-4.392 -5.681,-4.392c-1.934,0 -3.939,0.764 -5.061,2.22c-0.716,0.931 -1.002,2.053 -0.907,3.175l0,-0.024c0.263,3.485 3.318,4.058 5.92,4.321c1.671,0.167 3.39,0.382 3.676,1.647c0.048,0.215 0.072,0.405 0.072,0.573c-0,1.718 -1.958,2.721 -3.748,2.721c-1.552,-0 -3.437,-0.812 -3.604,-2.363l-0,0.095l-0.024,-0.358l-2.435,0.048l0.024,0.453c0.31,2.984 3.437,4.512 6.015,4.512c3.008,-0 6.206,-1.862 6.206,-5.085c0,-0.334 -0.047,-0.74 -0.119,-1.098c-0.644,-2.673 -3.485,-3.27 -5.777,-3.556c-1.79,-0.167 -3.676,-0.382 -3.795,-2.101c-0.048,-0.573 0.072,-1.122 0.406,-1.551c0.668,-0.86 1.91,-1.242 3.031,-1.265c1.456,-0.024 3.08,0.62 3.414,2.124l2.387,-0.096Z" style="fill-rule:nonzero;"/><path d="M159.572,111.891l-8.617,0l0,2.387l3.103,0l0,11.888l-3.103,-0l0,2.411l8.617,-0l0,-2.411l-3.103,-0l0,-11.888l3.103,0l0,-2.387Z" style="fill-rule:nonzero;"/><path d="M161.436,28.819l-1.705,-1.704l-11.798,11.798l7.258,7.258l1.705,-1.705l-5.554,-5.553l10.094,-10.094Z" style="fill:#fff;fill-rule:nonzero;"/><path d="M160.204,51.42c2.025,2.026 5.604,3.106 8,0.709l8.271,-8.271l-1.722,-1.721l-8.253,8.253c-1.3,1.3 -3.359,0.557 -4.591,-0.675c-1.249,-1.249 -2.009,-3.291 -0.709,-4.591l8.27,-8.27l-1.721,-1.722l-8.254,8.254c-2.414,2.413 -1.367,5.958 0.709,8.034Z" style="fill:#fff;fill-rule:nonzero;"/><path d="M167.917,58.897l8.254,-8.253l-2.549,13.958l1.351,1.351l11.815,-11.815l-1.688,-1.688l-8.321,8.321l2.565,-14.077l-1.299,-1.333l-11.832,11.832l1.704,1.704Z" style="fill:#fff;fill-rule:nonzero;"/><path d="M181.252,60.484c-1.638,1.637 -2.448,3.798 -2.515,5.891c-0.051,2.109 0.725,4.236 2.329,5.84c2.751,2.751 6.735,3.089 10.093,1.08l-1.671,-1.671c-2.396,1.181 -4.945,0.692 -6.734,-1.097c-1.131,-1.131 -1.671,-2.65 -1.637,-4.169c0.033,-1.519 0.607,-3.038 1.789,-4.22c1.215,-1.215 2.734,-1.789 4.253,-1.823c1.519,-0.034 3.038,0.507 4.169,1.637c1.739,1.739 2.296,4.085 1.148,6.482l1.688,1.688c1.992,-3.342 1.553,-7.157 -1.148,-9.857c-1.603,-1.604 -3.747,-2.363 -5.84,-2.33c-2.093,0.068 -4.253,0.878 -5.924,2.549Z" style="fill:#fff;fill-rule:nonzero;"/><path d="M191.868,83.085c2.026,2.025 5.604,3.105 8.001,0.709l8.27,-8.271l-1.721,-1.722l-8.254,8.254c-1.3,1.3 -3.359,0.557 -4.591,-0.675c-1.249,-1.249 -2.009,-3.292 -0.709,-4.591l8.271,-8.271l-1.722,-1.721l-8.254,8.253c-2.413,2.414 -1.367,5.959 0.709,8.035Z" style="fill:#fff;fill-rule:nonzero;"/><path d="M205.388,86.005l-0.878,9.485l2.212,2.212l0.709,-8.17c2.379,1.671 4.996,1.114 6.667,-0.557c1.873,-1.873 2.481,-5.046 -0.085,-7.612l-4.304,-4.304l-11.815,11.815l1.688,1.688l10.093,-10.094l2.617,2.617c1.434,1.434 1.114,3.173 0.101,4.186c-1.03,1.029 -2.768,1.35 -4.203,-0.085l-1.992,-1.992l-0.81,0.811Z" style="fill:#fff;fill-rule:nonzero;"/><path d="M58.245,63.622c2.025,-2.026 3.106,-5.604 0.709,-8.001l-8.271,-8.27l-1.721,1.721l8.253,8.254c1.3,1.3 0.557,3.359 -0.675,4.591c-1.249,1.249 -3.291,2.009 -4.591,0.709l-8.271,-8.271l-1.721,1.722l8.254,8.254c2.413,2.413 5.958,1.367 8.034,-0.709Z" style="fill:#fff;fill-rule:nonzero;"/><path d="M57.84,40.194l-4.895,4.895l1.688,1.688l3.19,-3.19l4.996,4.996c2.346,2.346 1.485,5.536 -1.198,8.22l1.603,1.603c3.629,-3.629 4.81,-8.017 1.3,-11.528l-6.684,-6.684Z" style="fill:#fff;fill-rule:nonzero;"/><path d="M64.372,33.662l-6.093,6.093l1.687,1.688l2.195,-2.194l8.405,8.406l-2.194,2.194l1.705,1.704l6.093,-6.093l-1.705,-1.704l-2.194,2.194l-8.406,-8.406l2.195,-2.194l-1.688,-1.688Z" style="fill:#fff;fill-rule:nonzero;"/><path d="M69.473,201.855l11.798,-11.798l-1.688,-1.688l-11.798,11.798l1.688,1.688Zm4.321,-8.338l0.962,-9.975l-2.228,-2.228l-0.962,10.92l-10.364,1.35l2.144,2.144l9.587,-1.35l0.861,-0.861Z" style="fill:#fff;fill-rule:nonzero;"/><path d="M56.51,177.111c1.215,-1.215 2.768,-1.789 4.304,-1.806c1.587,-0 3.173,0.607 4.338,1.772c1.164,1.165 1.755,2.734 1.738,4.304c0,1.553 -0.59,3.123 -1.789,4.321c-1.198,1.199 -2.768,1.789 -4.321,1.789c-1.569,0.017 -3.139,-0.574 -4.304,-1.738c-1.164,-1.165 -1.772,-2.751 -1.772,-4.338c0.017,-1.536 0.591,-3.089 1.806,-4.304Zm10.313,10.313c1.671,-1.671 2.481,-3.865 2.515,-6.026c0.034,-2.194 -0.81,-4.388 -2.465,-6.043c-1.671,-1.671 -3.848,-2.498 -6.059,-2.481c-2.16,0.034 -4.355,0.844 -6.026,2.515c-1.671,1.671 -2.481,3.865 -2.515,6.026c0,2.194 0.811,4.388 2.482,6.059c1.654,1.655 3.865,2.482 6.042,2.465c2.161,-0.034 4.355,-0.844 6.026,-2.515Z" style="fill:#fff;fill-rule:nonzero;"/><path d="M56.206,168.401l-8.389,8.389l-2.531,-2.532c-2.735,-2.734 -2.009,-6.228 0.084,-8.321c2.093,-2.093 5.57,-2.802 8.304,-0.067l2.532,2.531Zm-8.389,11.799l11.799,-11.799l-4.237,-4.236c-3.865,-3.865 -8.743,-2.87 -11.697,0.084c-2.954,2.954 -3.966,7.849 -0.101,11.714l4.236,4.237Z" style="fill:#fff;fill-rule:nonzero;"/><path d="M41.944,160.823l-5.351,-5.351l-1.722,1.722l5.351,5.35l-3.325,3.326l-5.469,-5.469l-1.705,1.705l7.191,7.19l11.798,-11.798l-7.207,-7.207l-1.705,1.704l5.486,5.486l-3.342,3.342Z" style="fill:#fff;fill-rule:nonzero;"/><path d="M202.152,150.65l8.389,8.388l-2.532,2.532c-2.734,2.734 -6.228,2.009 -8.321,-0.084c-2.093,-2.093 -2.802,-5.57 -0.067,-8.305l2.531,-2.531Zm11.799,8.388l-11.799,-11.798l-4.236,4.237c-3.865,3.865 -2.87,8.743 0.084,11.697c2.954,2.953 7.849,3.966 11.714,0.101l4.237,-4.237Z" style="fill:#fff;fill-rule:nonzero;"/><path d="M194.574,164.912l-5.351,5.351l1.722,1.721l5.35,-5.35l3.326,3.325l-5.469,5.469l1.705,1.704l7.19,-7.19l-11.798,-11.798l-7.208,7.207l1.705,1.705l5.486,-5.486l3.342,3.342Z" style="fill:#fff;fill-rule:nonzero;"/><path d="M183.974,183.074c2.464,1.856 5.3,0.911 7.123,-0.912c1.367,-1.367 2.245,-3.325 2.008,-5.148c-0.152,-1.164 -0.742,-2.16 -1.603,-2.886l0.017,0.017c-2.65,-2.279 -5.216,-0.523 -7.241,1.131c-1.3,1.063 -2.667,2.126 -3.764,1.434c-0.186,-0.118 -0.338,-0.236 -0.456,-0.354c-1.215,-1.215 -0.54,-3.308 0.726,-4.574c1.097,-1.097 3.004,-1.857 4.22,-0.878l-0.068,-0.067l0.27,0.236l1.688,-1.756l-0.338,-0.303c-2.329,-1.891 -5.62,-0.76 -7.443,1.063c-2.127,2.127 -3.072,5.705 -0.793,7.984c0.236,0.236 0.557,0.489 0.86,0.692c2.347,1.434 4.777,-0.152 6.6,-1.57c1.384,-1.148 2.869,-2.329 4.169,-1.198c0.439,0.371 0.743,0.844 0.81,1.384c0.135,1.08 -0.472,2.228 -1.249,3.038c-1.013,1.046 -2.616,1.738 -3.916,0.911l-1.62,1.756Z" style="fill:#fff;fill-rule:nonzero;"/><path d="M178.252,189.639l-5.621,-2.717l2.937,-2.937l2.684,5.654Zm-12.777,-5.721l-1.823,1.822l16.71,7.225l1.249,-1.249l-7.224,-16.71l-1.84,1.839c0.608,1.351 1.435,3.359 2.059,4.895l-4.236,4.237l-4.895,-2.059Z" style="fill:#fff;fill-rule:nonzero;"/><path d="M169.002,203.986l6.094,-6.093l-1.688,-1.688l-2.194,2.195l-8.406,-8.406l2.194,-2.194l-1.705,-1.705l-6.093,6.093l1.705,1.705l2.194,-2.194l8.406,8.405l-2.194,2.195l1.687,1.687Z" style="fill:#fff;fill-rule:nonzero;"/><path d="M154.74,194.652l8.254,8.254l-13.959,-2.549l-1.35,1.351l11.815,11.815l1.688,-1.688l-8.322,-8.321l14.077,2.565l1.334,-1.299l-11.832,-11.832l-1.705,1.704Z" style="fill:#fff;fill-rule:nonzero;"/></g></svg>