<?xml version="1.0" encoding="UTF-8" standalone="no"?><!DOCTYPE svg PUBLIC "-//W3C//DTD SVG 1.1//EN" "http://www.w3.org/Graphics/SVG/1.1/DTD/svg11.dtd"><svg width="100%" height="100%" viewBox="0 0 551 276" version="1.1" xmlns="http://www.w3.org/2000/svg" xmlns:xlink="http://www.w3.org/1999/xlink" xml:space="preserve" xmlns:serif="http://www.serif.com/" style="fill-rule:evenodd;clip-rule:evenodd;stroke-linecap:round;stroke-linejoin:round;stroke-miterlimit:1.5;"><path d="M173.996,105.749c-0,-9.86 42.092,-82.766 50.631,-87.696c8.539,-4.93 92.723,-4.93 101.262,0c8.539,4.93 50.632,77.836 50.632,87.696c-0,9.86 -42.093,82.766 -50.632,87.696c-8.539,4.93 -92.723,4.93 -101.262,-0c-8.539,-4.93 -50.631,-77.836 -50.631,-87.696Z" style="fill:#f0bc5e;stroke:#000;stroke-width:3px;"/><g><path d="M318.38,70.022c0,-4.994 -4.054,-9.047 -9.047,-9.047l-68.15,-0c-4.993,-0 -9.047,4.053 -9.047,9.047l0,18.094c0,4.993 4.054,9.047 9.047,9.047l68.15,-0c4.993,-0 9.047,-4.054 9.047,-9.047l0,-18.094Z" style="fill:#dd6363;stroke:#000;stroke-width:2.5px;"/><path d="M250.798,72.332l-0,12.852l8.964,0l-0,-1.044l-7.74,0l-0,-5.076l7.164,0l-0,-1.044l-7.164,0l-0,-4.644l7.65,0l-0,-1.044l-8.874,0Z" style="fill:#f2f2f2;fill-rule:nonzero;"/><path d="M261.238,75.896l-0,9.288l1.134,0l-0,-5.418c0.012,-0.456 0.087,-0.879 0.225,-1.269c0.138,-0.39 0.33,-0.726 0.576,-1.008c0.246,-0.282 0.546,-0.504 0.9,-0.666c0.354,-0.162 0.759,-0.243 1.215,-0.243c0.456,0 0.837,0.072 1.143,0.216c0.306,0.144 0.549,0.342 0.729,0.594c0.18,0.252 0.306,0.549 0.378,0.891c0.072,0.342 0.108,0.711 0.108,1.107l-0,5.796l1.134,0l-0,-5.976c-0,-0.552 -0.054,-1.05 -0.162,-1.494c-0.108,-0.444 -0.294,-0.819 -0.558,-1.125c-0.264,-0.306 -0.615,-0.543 -1.053,-0.711c-0.438,-0.168 -0.981,-0.252 -1.629,-0.252c-0.66,0 -1.266,0.171 -1.818,0.513c-0.552,0.342 -0.936,0.795 -1.152,1.359l-0.036,0l-0,-1.602l-1.134,0Z" style="fill:#f2f2f2;fill-rule:nonzero;"/><path d="M272.722,75.896l-0,-2.79l-1.134,0l-0,2.79l-1.62,0l-0,0.954l1.62,0l-0,6.354c-0.012,0.792 0.132,1.335 0.432,1.629c0.3,0.294 0.828,0.441 1.584,0.441c0.168,0 0.336,-0.006 0.504,-0.018c0.168,-0.012 0.336,-0.018 0.504,-0.018l-0,-0.954c-0.324,0.036 -0.648,0.054 -0.972,0.054c-0.408,-0.024 -0.663,-0.141 -0.765,-0.351c-0.102,-0.21 -0.153,-0.501 -0.153,-0.873l-0,-6.264l1.89,0l-0,-0.954l-1.89,0Z" style="fill:#f2f2f2;fill-rule:nonzero;"/><path d="M276.268,72.332l-0,1.818l1.134,0l-0,-1.818l-1.134,0Zm-0,3.564l-0,9.288l1.134,0l-0,-9.288l-1.134,0Z" style="fill:#f2f2f2;fill-rule:nonzero;"/><path d="M281.38,75.896l-0,-2.79l-1.134,0l-0,2.79l-1.62,0l-0,0.954l1.62,0l-0,6.354c-0.012,0.792 0.132,1.335 0.432,1.629c0.3,0.294 0.828,0.441 1.584,0.441c0.168,0 0.336,-0.006 0.504,-0.018c0.168,-0.012 0.336,-0.018 0.504,-0.018l-0,-0.954c-0.324,0.036 -0.648,0.054 -0.972,0.054c-0.408,-0.024 -0.663,-0.141 -0.765,-0.351c-0.102,-0.21 -0.153,-0.501 -0.153,-0.873l-0,-6.264l1.89,0l-0,-0.954l-1.89,0Z" style="fill:#f2f2f2;fill-rule:nonzero;"/><path d="M284.8,78.74l1.134,0c0.024,-0.756 0.264,-1.305 0.72,-1.647c0.456,-0.342 1.044,-0.513 1.764,-0.513c0.336,0 0.651,0.027 0.945,0.081c0.294,0.054 0.552,0.153 0.774,0.297c0.222,0.144 0.396,0.339 0.522,0.585c0.126,0.246 0.189,0.561 0.189,0.945c-0,0.252 -0.033,0.456 -0.099,0.612c-0.066,0.156 -0.159,0.279 -0.279,0.369c-0.12,0.09 -0.27,0.153 -0.45,0.189c-0.18,0.036 -0.39,0.066 -0.63,0.09c-0.612,0.072 -1.215,0.147 -1.809,0.225c-0.594,0.078 -1.128,0.213 -1.602,0.405c-0.474,0.192 -0.855,0.471 -1.143,0.837c-0.288,0.366 -0.432,0.873 -0.432,1.521c-0,0.468 0.081,0.873 0.243,1.215c0.162,0.342 0.384,0.624 0.666,0.846c0.282,0.222 0.612,0.384 0.99,0.486c0.378,0.102 0.783,0.153 1.215,0.153c0.456,0 0.849,-0.042 1.179,-0.126c0.33,-0.084 0.624,-0.204 0.882,-0.36c0.258,-0.156 0.492,-0.351 0.702,-0.585c0.21,-0.234 0.417,-0.501 0.621,-0.801l0.036,0c-0,0.24 0.015,0.459 0.045,0.657c0.03,0.198 0.093,0.369 0.189,0.513c0.096,0.144 0.231,0.255 0.405,0.333c0.174,0.078 0.405,0.117 0.693,0.117c0.156,0 0.285,-0.006 0.387,-0.018c0.102,-0.012 0.219,-0.03 0.351,-0.054l-0,-0.954c-0.108,0.048 -0.228,0.072 -0.36,0.072c-0.444,0 -0.666,-0.228 -0.666,-0.684l-0,-4.932c-0,-0.624 -0.102,-1.131 -0.306,-1.521c-0.204,-0.39 -0.468,-0.693 -0.792,-0.909c-0.324,-0.216 -0.69,-0.363 -1.098,-0.441c-0.408,-0.078 -0.816,-0.117 -1.224,-0.117c-0.54,0 -1.032,0.06 -1.476,0.18c-0.444,0.12 -0.831,0.306 -1.161,0.558c-0.33,0.252 -0.591,0.576 -0.783,0.972c-0.192,0.396 -0.306,0.864 -0.342,1.404Zm6.048,1.368l-0,1.476c-0,0.456 -0.087,0.864 -0.261,1.224c-0.174,0.36 -0.408,0.666 -0.702,0.918c-0.294,0.252 -0.639,0.444 -1.035,0.576c-0.396,0.132 -0.81,0.198 -1.242,0.198c-0.264,0 -0.522,-0.042 -0.774,-0.126c-0.252,-0.084 -0.474,-0.207 -0.666,-0.369c-0.192,-0.162 -0.345,-0.354 -0.459,-0.576c-0.114,-0.222 -0.171,-0.477 -0.171,-0.765c-0,-0.456 0.135,-0.807 0.405,-1.053c0.27,-0.246 0.615,-0.435 1.035,-0.567c0.42,-0.132 0.885,-0.231 1.395,-0.297c0.51,-0.066 1.005,-0.141 1.485,-0.225c0.156,-0.024 0.336,-0.066 0.54,-0.126c0.204,-0.06 0.342,-0.156 0.414,-0.288l0.036,0Z" style="fill:#f2f2f2;fill-rule:nonzero;"/><path d="M299.812,78.614l1.134,0c-0.024,-0.504 -0.126,-0.942 -0.306,-1.314c-0.18,-0.372 -0.423,-0.684 -0.729,-0.936c-0.306,-0.252 -0.66,-0.438 -1.062,-0.558c-0.402,-0.12 -0.837,-0.18 -1.305,-0.18c-0.408,0 -0.819,0.048 -1.233,0.144c-0.414,0.096 -0.789,0.246 -1.125,0.45c-0.336,0.204 -0.609,0.474 -0.819,0.81c-0.21,0.336 -0.315,0.738 -0.315,1.206c-0,0.396 0.066,0.729 0.198,0.999c0.132,0.27 0.315,0.498 0.549,0.684c0.234,0.186 0.507,0.342 0.819,0.468c0.312,0.126 0.654,0.237 1.026,0.333l1.458,0.324c0.252,0.06 0.501,0.132 0.747,0.216c0.246,0.084 0.465,0.189 0.657,0.315c0.192,0.126 0.345,0.282 0.459,0.468c0.114,0.186 0.171,0.417 0.171,0.693c-0,0.324 -0.081,0.597 -0.243,0.819c-0.162,0.222 -0.369,0.405 -0.621,0.549c-0.252,0.144 -0.525,0.246 -0.819,0.306c-0.294,0.06 -0.579,0.09 -0.855,0.09c-0.756,0 -1.389,-0.195 -1.899,-0.585c-0.51,-0.39 -0.789,-0.969 -0.837,-1.737l-1.134,0c0.096,1.14 0.483,1.968 1.161,2.484c0.678,0.516 1.563,0.774 2.655,0.774c0.432,0 0.87,-0.048 1.314,-0.144c0.444,-0.096 0.843,-0.255 1.197,-0.477c0.354,-0.222 0.645,-0.51 0.873,-0.864c0.228,-0.354 0.342,-0.783 0.342,-1.287c-0,-0.408 -0.078,-0.762 -0.234,-1.062c-0.156,-0.3 -0.357,-0.552 -0.603,-0.756c-0.246,-0.204 -0.528,-0.369 -0.846,-0.495c-0.318,-0.126 -0.639,-0.213 -0.963,-0.261l-1.512,-0.342c-0.192,-0.048 -0.402,-0.111 -0.63,-0.189c-0.228,-0.078 -0.438,-0.177 -0.63,-0.297c-0.192,-0.12 -0.351,-0.267 -0.477,-0.441c-0.126,-0.174 -0.189,-0.387 -0.189,-0.639c-0,-0.3 0.066,-0.552 0.198,-0.756c0.132,-0.204 0.306,-0.369 0.522,-0.495c0.216,-0.126 0.453,-0.216 0.711,-0.27c0.258,-0.054 0.513,-0.081 0.765,-0.081c0.324,0 0.63,0.039 0.918,0.117c0.288,0.078 0.543,0.201 0.765,0.369c0.222,0.168 0.399,0.381 0.531,0.639c0.132,0.258 0.204,0.561 0.216,0.909Z" style="fill:#f2f2f2;fill-rule:nonzero;"/></g><g><path d="M318.38,123.382c0,-4.993 -4.054,-9.047 -9.047,-9.047l-68.15,0c-4.993,0 -9.047,4.054 -9.047,9.047l0,18.094c0,4.994 4.054,9.047 9.047,9.047l68.15,0c4.993,0 9.047,-4.053 9.047,-9.047l0,-18.094Z" style="fill:#5c7273;stroke:#000;stroke-width:2.5px;"/><path d="M251.505,134.011l0,-7.246l-1.509,-0l-0,7.246c-0,1.016 -0.252,1.787 -0.755,2.311c-0.503,0.525 -1.237,0.787 -2.201,0.787c-1.017,0 -1.795,-0.262 -2.335,-0.787c-0.541,-0.524 -0.811,-1.295 -0.811,-2.311l0,-7.246l-1.509,-0l-0,7.246c-0,1.514 0.41,2.619 1.231,3.313c0.821,0.693 1.962,1.04 3.424,1.04c1.43,0 2.532,-0.362 3.305,-1.088c0.774,-0.726 1.16,-1.814 1.16,-3.265Z" style="fill:#fff;fill-rule:nonzero;"/><path d="M254.524,135.52l-1.35,0c0.021,0.509 0.127,0.94 0.318,1.295c0.19,0.355 0.445,0.641 0.762,0.858c0.318,0.217 0.684,0.374 1.097,0.469c0.413,0.095 0.847,0.143 1.303,0.143c0.413,-0 0.829,-0.04 1.247,-0.119c0.418,-0.08 0.795,-0.22 1.128,-0.421c0.334,-0.202 0.604,-0.466 0.811,-0.795c0.206,-0.328 0.309,-0.741 0.309,-1.239c0,-0.392 -0.076,-0.721 -0.23,-0.985c-0.154,-0.265 -0.355,-0.485 -0.604,-0.66c-0.249,-0.175 -0.535,-0.315 -0.858,-0.421c-0.323,-0.106 -0.654,-0.196 -0.993,-0.27c-0.318,-0.074 -0.636,-0.146 -0.953,-0.215c-0.318,-0.068 -0.604,-0.153 -0.858,-0.254c-0.255,-0.1 -0.464,-0.228 -0.628,-0.381c-0.164,-0.154 -0.246,-0.347 -0.246,-0.58c-0,-0.212 0.053,-0.384 0.159,-0.517c0.105,-0.132 0.243,-0.238 0.413,-0.317c0.169,-0.08 0.357,-0.135 0.564,-0.167c0.206,-0.032 0.41,-0.048 0.612,-0.048c0.222,0 0.442,0.024 0.659,0.072c0.217,0.047 0.416,0.124 0.596,0.23c0.18,0.106 0.328,0.246 0.445,0.421c0.116,0.175 0.185,0.395 0.206,0.66l1.351,-0c-0.032,-0.498 -0.138,-0.914 -0.318,-1.248c-0.18,-0.334 -0.421,-0.598 -0.723,-0.794c-0.302,-0.196 -0.649,-0.334 -1.041,-0.413c-0.392,-0.08 -0.821,-0.12 -1.287,-0.12c-0.36,0 -0.723,0.045 -1.088,0.135c-0.366,0.09 -0.694,0.228 -0.985,0.414c-0.292,0.185 -0.53,0.426 -0.715,0.723c-0.186,0.296 -0.278,0.651 -0.278,1.064c-0,0.53 0.132,0.943 0.397,1.24c0.265,0.296 0.596,0.527 0.993,0.691c0.397,0.164 0.829,0.291 1.295,0.381c0.466,0.09 0.898,0.191 1.295,0.302c0.397,0.111 0.728,0.257 0.993,0.437c0.265,0.18 0.397,0.445 0.397,0.795c0,0.254 -0.063,0.463 -0.19,0.627c-0.127,0.164 -0.289,0.289 -0.485,0.374c-0.196,0.084 -0.41,0.143 -0.644,0.174c-0.233,0.032 -0.455,0.048 -0.667,0.048c-0.275,0 -0.543,-0.026 -0.802,-0.079c-0.26,-0.053 -0.493,-0.141 -0.699,-0.263c-0.207,-0.121 -0.374,-0.286 -0.501,-0.492c-0.127,-0.207 -0.196,-0.458 -0.207,-0.755Z" style="fill:#fff;fill-rule:nonzero;"/><path d="M267.348,133.216l-4.72,0c0.021,-0.318 0.09,-0.617 0.207,-0.898c0.116,-0.28 0.275,-0.527 0.476,-0.739c0.202,-0.212 0.443,-0.378 0.723,-0.5c0.281,-0.122 0.596,-0.183 0.946,-0.183c0.339,0 0.649,0.061 0.929,0.183c0.281,0.122 0.525,0.286 0.731,0.492c0.207,0.207 0.371,0.453 0.493,0.739c0.122,0.286 0.193,0.588 0.215,0.906Zm1.302,2.288l-1.334,0c-0.117,0.54 -0.358,0.943 -0.723,1.208c-0.366,0.265 -0.834,0.397 -1.407,0.397c-0.444,0 -0.831,-0.074 -1.159,-0.222c-0.329,-0.149 -0.599,-0.347 -0.811,-0.596c-0.212,-0.249 -0.365,-0.535 -0.461,-0.858c-0.095,-0.323 -0.137,-0.665 -0.127,-1.025l6.15,-0c0.021,-0.498 -0.024,-1.022 -0.135,-1.573c-0.112,-0.551 -0.313,-1.06 -0.604,-1.526c-0.292,-0.466 -0.678,-0.85 -1.16,-1.152c-0.482,-0.302 -1.089,-0.453 -1.82,-0.453c-0.561,0 -1.077,0.106 -1.549,0.318c-0.471,0.212 -0.879,0.509 -1.223,0.89c-0.345,0.381 -0.612,0.832 -0.803,1.351c-0.191,0.519 -0.286,1.091 -0.286,1.716c0.021,0.625 0.114,1.202 0.278,1.732c0.164,0.529 0.411,0.985 0.739,1.366c0.328,0.382 0.734,0.678 1.216,0.89c0.482,0.212 1.051,0.318 1.708,0.318c0.932,-0 1.705,-0.233 2.32,-0.699c0.614,-0.466 1.011,-1.16 1.191,-2.082Z" style="fill:#fff;fill-rule:nonzero;"/><path d="M282.792,130.181l1.51,0c-0.085,-0.604 -0.265,-1.136 -0.54,-1.597c-0.276,-0.461 -0.62,-0.845 -1.033,-1.152c-0.413,-0.307 -0.885,-0.54 -1.414,-0.699c-0.53,-0.159 -1.091,-0.238 -1.685,-0.238c-0.868,-0 -1.639,0.156 -2.312,0.468c-0.672,0.313 -1.234,0.739 -1.684,1.279c-0.45,0.541 -0.792,1.174 -1.025,1.899c-0.233,0.726 -0.349,1.502 -0.349,2.328c-0,0.826 0.108,1.6 0.325,2.32c0.217,0.72 0.543,1.345 0.978,1.875c0.434,0.53 0.979,0.946 1.636,1.247c0.657,0.302 1.425,0.453 2.304,0.453c1.452,0 2.596,-0.397 3.432,-1.191c0.837,-0.795 1.33,-1.907 1.478,-3.337l-1.509,-0c-0.032,0.466 -0.127,0.9 -0.286,1.303c-0.159,0.402 -0.379,0.749 -0.66,1.04c-0.281,0.292 -0.614,0.52 -1.001,0.684c-0.386,0.164 -0.829,0.246 -1.327,0.246c-0.678,0 -1.26,-0.127 -1.748,-0.381c-0.487,-0.255 -0.887,-0.596 -1.199,-1.025c-0.313,-0.429 -0.543,-0.932 -0.691,-1.51c-0.149,-0.577 -0.223,-1.189 -0.223,-1.835c0,-0.593 0.074,-1.165 0.223,-1.716c0.148,-0.551 0.378,-1.041 0.691,-1.47c0.312,-0.429 0.71,-0.771 1.192,-1.025c0.482,-0.254 1.061,-0.381 1.739,-0.381c0.795,-0 1.481,0.201 2.058,0.604c0.578,0.402 0.951,1.006 1.12,1.811Z" style="fill:#fff;fill-rule:nonzero;"/><path d="M293.343,138.078c-0.233,0.138 -0.556,0.207 -0.969,0.207c-0.35,-0 -0.628,-0.098 -0.834,-0.294c-0.207,-0.196 -0.31,-0.517 -0.31,-0.961c-0.371,0.444 -0.803,0.765 -1.295,0.961c-0.493,0.196 -1.025,0.294 -1.597,0.294c-0.371,-0 -0.723,-0.043 -1.057,-0.127c-0.333,-0.085 -0.622,-0.217 -0.866,-0.397c-0.243,-0.181 -0.437,-0.416 -0.58,-0.708c-0.143,-0.291 -0.214,-0.643 -0.214,-1.056c-0,-0.466 0.079,-0.848 0.238,-1.144c0.159,-0.297 0.368,-0.538 0.628,-0.723c0.259,-0.186 0.556,-0.326 0.89,-0.421c0.333,-0.096 0.675,-0.175 1.025,-0.239c0.37,-0.074 0.723,-0.13 1.056,-0.167c0.334,-0.037 0.628,-0.09 0.882,-0.158c0.254,-0.069 0.456,-0.17 0.604,-0.302c0.148,-0.133 0.222,-0.326 0.222,-0.58c0,-0.297 -0.055,-0.535 -0.166,-0.715c-0.112,-0.181 -0.255,-0.318 -0.43,-0.414c-0.174,-0.095 -0.37,-0.158 -0.587,-0.19c-0.218,-0.032 -0.432,-0.048 -0.644,-0.048c-0.572,0 -1.049,0.109 -1.43,0.326c-0.381,0.217 -0.588,0.627 -0.62,1.231l-1.35,0c0.021,-0.508 0.127,-0.937 0.317,-1.287c0.191,-0.349 0.445,-0.633 0.763,-0.85c0.318,-0.217 0.681,-0.373 1.089,-0.469c0.407,-0.095 0.844,-0.143 1.31,-0.143c0.371,0 0.739,0.027 1.105,0.08c0.365,0.053 0.696,0.161 0.993,0.326c0.297,0.164 0.535,0.394 0.715,0.691c0.18,0.296 0.27,0.683 0.27,1.16l0,4.226c0,0.318 0.019,0.551 0.056,0.7c0.037,0.148 0.161,0.222 0.373,0.222c0.117,0 0.254,-0.026 0.413,-0.079l0,1.048Zm-2.193,-4.211c-0.169,0.128 -0.391,0.22 -0.667,0.279c-0.275,0.058 -0.564,0.106 -0.866,0.143c-0.302,0.037 -0.606,0.079 -0.914,0.127c-0.307,0.047 -0.582,0.124 -0.826,0.23c-0.243,0.106 -0.442,0.257 -0.596,0.453c-0.153,0.196 -0.23,0.463 -0.23,0.802c-0,0.223 0.045,0.411 0.135,0.564c0.09,0.154 0.207,0.279 0.35,0.374c0.143,0.095 0.309,0.164 0.5,0.206c0.191,0.043 0.392,0.064 0.604,0.064c0.445,0 0.826,-0.061 1.144,-0.183c0.318,-0.122 0.577,-0.275 0.779,-0.461c0.201,-0.185 0.349,-0.386 0.444,-0.603c0.096,-0.217 0.143,-0.421 0.143,-0.612l0,-1.383Z" style="fill:#fff;fill-rule:nonzero;"/><path d="M295.425,135.52l-1.351,0c0.021,0.509 0.127,0.94 0.318,1.295c0.191,0.355 0.445,0.641 0.763,0.858c0.318,0.217 0.683,0.374 1.096,0.469c0.413,0.095 0.848,0.143 1.303,0.143c0.413,-0 0.829,-0.04 1.247,-0.119c0.419,-0.08 0.795,-0.22 1.129,-0.421c0.333,-0.202 0.603,-0.466 0.81,-0.795c0.207,-0.328 0.31,-0.741 0.31,-1.239c-0,-0.392 -0.077,-0.721 -0.231,-0.985c-0.153,-0.265 -0.354,-0.485 -0.603,-0.66c-0.249,-0.175 -0.535,-0.315 -0.858,-0.421c-0.324,-0.106 -0.655,-0.196 -0.994,-0.27c-0.317,-0.074 -0.635,-0.146 -0.953,-0.215c-0.318,-0.068 -0.604,-0.153 -0.858,-0.254c-0.254,-0.1 -0.463,-0.228 -0.628,-0.381c-0.164,-0.154 -0.246,-0.347 -0.246,-0.58c0,-0.212 0.053,-0.384 0.159,-0.517c0.106,-0.132 0.244,-0.238 0.413,-0.317c0.17,-0.08 0.358,-0.135 0.564,-0.167c0.207,-0.032 0.411,-0.048 0.612,-0.048c0.222,0 0.442,0.024 0.659,0.072c0.218,0.047 0.416,0.124 0.596,0.23c0.18,0.106 0.329,0.246 0.445,0.421c0.117,0.175 0.186,0.395 0.207,0.66l1.35,-0c-0.031,-0.498 -0.137,-0.914 -0.317,-1.248c-0.181,-0.334 -0.422,-0.598 -0.723,-0.794c-0.302,-0.196 -0.649,-0.334 -1.041,-0.413c-0.392,-0.08 -0.821,-0.12 -1.287,-0.12c-0.36,0 -0.723,0.045 -1.089,0.135c-0.365,0.09 -0.694,0.228 -0.985,0.414c-0.291,0.185 -0.53,0.426 -0.715,0.723c-0.185,0.296 -0.278,0.651 -0.278,1.064c-0,0.53 0.132,0.943 0.397,1.24c0.265,0.296 0.596,0.527 0.993,0.691c0.398,0.164 0.829,0.291 1.295,0.381c0.466,0.09 0.898,0.191 1.295,0.302c0.398,0.111 0.729,0.257 0.994,0.437c0.264,0.18 0.397,0.445 0.397,0.795c-0,0.254 -0.064,0.463 -0.191,0.627c-0.127,0.164 -0.289,0.289 -0.485,0.374c-0.196,0.084 -0.41,0.143 -0.643,0.174c-0.233,0.032 -0.456,0.048 -0.667,0.048c-0.276,0 -0.543,-0.026 -0.803,-0.079c-0.259,-0.053 -0.492,-0.141 -0.699,-0.263c-0.207,-0.121 -0.373,-0.286 -0.501,-0.492c-0.127,-0.207 -0.196,-0.458 -0.206,-0.755Z" style="fill:#fff;fill-rule:nonzero;"/><path d="M308.248,133.216l-4.719,0c0.021,-0.318 0.09,-0.617 0.206,-0.898c0.117,-0.28 0.276,-0.527 0.477,-0.739c0.201,-0.212 0.442,-0.378 0.723,-0.5c0.281,-0.122 0.596,-0.183 0.945,-0.183c0.339,0 0.649,0.061 0.93,0.183c0.281,0.122 0.524,0.286 0.731,0.492c0.206,0.207 0.371,0.453 0.492,0.739c0.122,0.286 0.194,0.588 0.215,0.906Zm1.303,2.288l-1.335,0c-0.116,0.54 -0.357,0.943 -0.723,1.208c-0.365,0.265 -0.834,0.397 -1.406,0.397c-0.445,0 -0.832,-0.074 -1.16,-0.222c-0.328,-0.149 -0.599,-0.347 -0.81,-0.596c-0.212,-0.249 -0.366,-0.535 -0.461,-0.858c-0.096,-0.323 -0.138,-0.665 -0.127,-1.025l6.149,-0c0.021,-0.498 -0.024,-1.022 -0.135,-1.573c-0.111,-0.551 -0.313,-1.06 -0.604,-1.526c-0.291,-0.466 -0.678,-0.85 -1.16,-1.152c-0.482,-0.302 -1.088,-0.453 -1.819,-0.453c-0.562,0 -1.078,0.106 -1.549,0.318c-0.472,0.212 -0.88,0.509 -1.224,0.89c-0.344,0.381 -0.612,0.832 -0.802,1.351c-0.191,0.519 -0.286,1.091 -0.286,1.716c0.021,0.625 0.113,1.202 0.278,1.732c0.164,0.529 0.41,0.985 0.739,1.366c0.328,0.382 0.733,0.678 1.215,0.89c0.482,0.212 1.051,0.318 1.708,0.318c0.932,-0 1.706,-0.233 2.32,-0.699c0.615,-0.466 1.012,-1.16 1.192,-2.082Z" style="fill:#fff;fill-rule:nonzero;"/></g><path d="M380.855,69.615l-19.155,-33.177l-16.374,9.454l19.154,33.177l16.375,-9.454Z" style="fill:#5c7273;stroke:#000;stroke-width:2.5px;"/><path d="M366.171,167.361l19.154,-33.177l-16.375,-9.454l-19.154,33.177l16.375,9.454Z" style="fill:#5c7273;stroke:#000;stroke-width:2.5px;"/><g id="Layer_34"><g id="database_server"><path d="M492.306,23.767c-0,-1.25 -1.015,-2.264 -2.264,-2.264l-40.743,0c-1.249,0 -2.263,1.014 -2.263,2.264l-0,9.054c-0,1.249 1.014,2.263 2.263,2.263l40.743,0c1.249,0 2.264,-1.014 2.264,-2.263l-0,-9.054Z" style="fill:#57a4ff;"/><path d="M492.306,23.767l-0,9.054c-0.004,1.24 -1.024,2.259 -2.264,2.263l-4.527,0c1.24,-0.004 2.26,-1.023 2.264,-2.263l-0,-9.054c-0.004,-1.241 -1.024,-2.26 -2.264,-2.264l4.527,0c1.24,0.004 2.26,1.023 2.264,2.264Z" style="fill:#2488ff;fill-rule:nonzero;"/><rect x="480.988" y="35.084" width="6.79" height="4.527" style="fill:#acabb1;fill-rule:nonzero;"/><rect x="480.988" y="16.976" width="6.79" height="4.527" style="fill:#acabb1;fill-rule:nonzero;"/><rect x="484.383" y="16.976" width="3.395" height="4.527" style="fill:#898890;fill-rule:nonzero;"/><rect x="484.383" y="35.084" width="3.395" height="4.527" style="fill:#898890;fill-rule:nonzero;"/><path d="M492.306,41.875c-0,-1.25 -1.015,-2.264 -2.264,-2.264l-40.743,0c-1.249,0 -2.263,1.014 -2.263,2.264l-0,9.054c-0,1.249 1.014,2.263 2.263,2.263l40.743,0c1.249,0 2.264,-1.014 2.264,-2.263l-0,-9.054Z" style="fill:#57a4ff;"/><path d="M492.306,41.875l-0,9.054c-0.004,1.24 -1.024,2.259 -2.264,2.263l-4.527,0c1.24,-0.004 2.26,-1.023 2.264,-2.263l-0,-9.054c-0.004,-1.241 -1.024,-2.26 -2.264,-2.264l4.527,0c1.24,0.004 2.26,1.023 2.264,2.264Z" style="fill:#2488ff;fill-rule:nonzero;"/><rect x="460.617" y="44.138" width="4.527" height="4.527" style="fill:#00b6bd;fill-rule:nonzero;"/><rect x="460.617" y="26.03" width="4.527" height="4.527" style="fill:#00b6bd;fill-rule:nonzero;"/><path d="M492.306,5.659c-0,-1.25 -1.015,-2.264 -2.264,-2.264l-40.743,0c-1.249,0 -2.263,1.014 -2.263,2.264l-0,9.054c-0,1.249 1.014,2.263 2.263,2.263l40.743,0c1.249,0 2.264,-1.014 2.264,-2.263l-0,-9.054Z" style="fill:#57a4ff;"/><path d="M492.306,5.659l-0,9.054c-0.004,1.24 -1.024,2.26 -2.264,2.263l-4.527,0c1.24,-0.003 2.26,-1.023 2.264,-2.263l-0,-9.054c-0.004,-1.241 -1.024,-2.26 -2.264,-2.264l4.527,0c1.24,0.004 2.26,1.023 2.264,2.264Z" style="fill:#2488ff;fill-rule:nonzero;"/><rect x="460.617" y="7.922" width="4.527" height="4.527" style="fill:#00b6bd;fill-rule:nonzero;"/><rect x="451.563" y="35.084" width="6.79" height="4.527" style="fill:#acabb1;fill-rule:nonzero;"/><rect x="451.563" y="16.976" width="6.79" height="4.527" style="fill:#acabb1;fill-rule:nonzero;"/><rect x="454.958" y="16.976" width="3.395" height="4.527" style="fill:#898890;fill-rule:nonzero;"/><rect x="454.958" y="35.084" width="3.395" height="4.527" style="fill:#898890;fill-rule:nonzero;"/><rect x="451.563" y="44.138" width="4.527" height="4.527" style="fill:#ff7956;fill-rule:nonzero;"/><rect x="451.563" y="26.03" width="4.527" height="4.527" style="fill:#ff7956;fill-rule:nonzero;"/><rect x="451.563" y="7.922" width="4.527" height="4.527" style="fill:#ff7956;fill-rule:nonzero;"/><path d="M512.677,52.06l-0,11.318c-0,3.123 -9.122,5.659 -20.371,5.659c-11.25,-0 -20.372,-2.536 -20.372,-5.659l0,-11.318c0,3.124 9.122,5.659 20.372,5.659c11.249,0 20.371,-2.535 20.371,-5.659Z" style="fill:#ffde55;fill-rule:nonzero;"/><path d="M512.677,40.743l-0,11.317c-0,3.124 -9.122,5.659 -20.371,5.659c-11.25,0 -20.372,-2.535 -20.372,-5.659l0,-11.317c0,3.124 9.122,5.659 20.372,5.659c11.249,-0 20.371,-2.535 20.371,-5.659Z" style="fill:#ffde55;fill-rule:nonzero;"/><path d="M512.677,29.425l-0,11.318c-0,3.124 -9.122,5.659 -20.371,5.659c-11.25,-0 -20.372,-2.535 -20.372,-5.659l0,-11.318c0,3.124 9.122,5.659 20.372,5.659c11.249,0 20.371,-2.535 20.371,-5.659Z" style="fill:#ffde55;fill-rule:nonzero;"/><g><ellipse cx="492.306" cy="29.425" rx="20.371" ry="5.659" style="fill:#ffcd00;"/><path d="M512.677,52.06l-0,11.318c-0,3.123 -9.122,5.659 -20.371,5.659c-0.77,-0 -1.517,-0.012 -2.264,-0.046c10.186,-0.305 18.108,-2.705 18.108,-5.613l-0,-7.764c2.829,-0.973 4.527,-2.207 4.527,-3.554Z" style="fill:#ffcd00;fill-rule:nonzero;"/><path d="M512.677,40.743l-0,11.317c-0,1.347 -1.698,2.581 -4.527,3.554c-5.142,1.511 -10.486,2.221 -15.844,2.105c-0.77,0 -1.517,-0.011 -2.264,-0.045c10.186,-0.306 18.108,-2.705 18.108,-5.614l-0,-7.763c2.829,-0.974 4.527,-2.207 4.527,-3.554Z" style="fill:#ffcd00;fill-rule:nonzero;"/><path d="M512.677,29.425l-0,11.318c-0,1.347 -1.698,2.58 -4.527,3.554c-5.142,1.511 -10.486,2.221 -15.844,2.105c-0.77,-0 -1.517,-0.012 -2.264,-0.046c10.186,-0.305 18.108,-2.705 18.108,-5.613l-0,-7.764c2.829,-0.973 4.527,-2.207 4.527,-3.554Z" style="fill:#ffcd00;fill-rule:nonzero;"/></g><path d="M512.677,29.425c-0,1.347 -1.698,2.581 -4.527,3.554c-5.142,1.511 -10.486,2.221 -15.844,2.105c-0.77,0 -1.517,-0.011 -2.264,-0.045c10.186,-0.306 18.108,-2.705 18.108,-5.614c-0,-2.908 -7.922,-5.307 -18.108,-5.613c0.747,-0.034 1.494,-0.045 2.264,-0.045c11.249,-0 20.371,2.535 20.371,5.658Z" style="fill:#ebbf00;fill-rule:nonzero;"/><path d="M508.15,52.06l-0,3.554c-5.142,1.511 -10.486,2.221 -15.844,2.105c-0.77,0 -1.517,-0.011 -2.264,-0.045c10.186,-0.306 18.108,-2.705 18.108,-5.614Z" style="fill:#ffde55;fill-rule:nonzero;"/><path d="M508.15,40.743l-0,3.554c-5.142,1.511 -10.486,2.221 -15.844,2.105c-0.77,-0 -1.517,-0.012 -2.264,-0.046c10.186,-0.305 18.108,-2.705 18.108,-5.613Z" style="fill:#ffde55;fill-rule:nonzero;"/><path d="M493.234,22.646c-0.47,-1.357 -1.756,-2.274 -3.192,-2.275l-1.132,0l0,-2.263l1.132,-0c1.861,-0.006 3.39,-1.535 3.395,-3.395l0,-9.054c-0.005,-1.861 -1.534,-3.39 -3.395,-3.396l-40.743,0c-1.86,0.006 -3.39,1.535 -3.395,3.396l-0,9.054c0.005,1.86 1.535,3.389 3.395,3.395l1.132,-0l-0,2.263l-1.132,0c-1.86,0.006 -3.39,1.535 -3.395,3.396l-0,9.054c0.005,1.86 1.535,3.389 3.395,3.395l1.132,-0l-0,2.263l-1.132,0c-1.86,0.006 -3.39,1.535 -3.395,3.396l-0,9.054c0.005,1.86 1.535,3.389 3.395,3.395l21.503,-0l0,9.054c0,4.459 10.82,6.79 21.504,6.79c10.683,0 21.503,-2.331 21.503,-6.79l-0,-33.953c-0,-4.334 -10.197,-6.643 -20.575,-6.779Zm-43.935,-6.802c-0.621,0 -1.132,-0.51 -1.132,-1.131l0,-9.054c0,-0.621 0.511,-1.132 1.132,-1.132l40.743,-0c0.621,-0 1.132,0.511 1.132,1.132l-0,9.054c-0,0.621 -0.511,1.131 -1.132,1.131l-40.743,0Zm37.348,2.264l-0,2.263l-4.527,0l-0,-2.263l4.527,-0Zm-6.791,-0l0,2.263l-20.371,0l-0,-2.263l20.371,-0Zm-22.635,-0l0,2.263l-4.527,0l0,-2.263l4.527,-0Zm13.581,33.952l-21.503,0c-0.621,0 -1.132,-0.511 -1.132,-1.131l0,-9.054c0,-0.621 0.511,-1.132 1.132,-1.132l21.503,-0l0,11.317Zm-18.108,-13.581l0,-2.263l4.527,-0l0,2.263l-4.527,0Zm18.108,0l-11.317,0l-0,-2.263l11.317,-0l0,2.263Zm0,-9.054l0,4.527l-21.503,0c-0.621,0 -1.132,-0.51 -1.132,-1.131l0,-9.054c0,-0.621 0.511,-1.132 1.132,-1.132l40.743,-0c0.054,0.006 0.107,0.017 0.158,0.034c-9.959,0.283 -19.398,2.592 -19.398,6.756Zm40.743,33.953c0,1.539 -6.79,4.527 -19.239,4.527c-12.45,-0 -19.24,-2.988 -19.24,-4.527l-0,-8.126c3.723,2.365 11.498,3.599 19.24,3.599c7.741,-0 15.516,-1.234 19.239,-3.599l0,8.126Zm0,-11.318c0,1.54 -6.79,4.527 -19.239,4.527c-12.45,0 -19.24,-2.987 -19.24,-4.527l-0,-8.126c3.723,2.366 11.498,3.599 19.24,3.599c7.741,0 15.516,-1.233 19.239,-3.599l0,8.126Zm0,-11.317c0,1.539 -6.79,4.527 -19.239,4.527c-12.45,-0 -19.24,-2.988 -19.24,-4.527l-0,-8.126c3.723,2.365 11.498,3.599 19.24,3.599c7.741,-0 15.516,-1.234 19.239,-3.599l0,8.126Zm-19.239,-6.791c-12.45,0 -19.24,-2.987 -19.24,-4.527c-0,-1.539 6.79,-4.527 19.24,-4.527c12.449,0 19.239,2.988 19.239,4.527c0,1.54 -6.79,4.527 -19.239,4.527Z" style="fill-rule:nonzero;"/><rect x="491.174" y="39.611" width="2.263" height="2.263" style="fill-rule:nonzero;"/><rect x="491.174" y="52.06" width="2.263" height="2.263" style="fill-rule:nonzero;"/><rect x="491.174" y="62.246" width="2.263" height="2.263" style="fill-rule:nonzero;"/><path d="M456.09,24.898l-4.527,0c-0.621,0 -1.132,0.511 -1.132,1.132l-0,4.527c-0,0.621 0.511,1.132 1.132,1.132l4.527,-0c0.62,-0 1.131,-0.511 1.131,-1.132l0,-4.527c0,-0.621 -0.511,-1.132 -1.131,-1.132Zm-1.132,4.527l-2.264,0l0,-2.263l2.264,-0l-0,2.263Z" style="fill-rule:nonzero;"/><path d="M465.144,24.898l-4.527,0c-0.621,0 -1.132,0.511 -1.132,1.132l-0,4.527c-0,0.621 0.511,1.132 1.132,1.132l4.527,-0c0.62,-0 1.131,-0.511 1.131,-1.132l0,-4.527c0,-0.621 -0.511,-1.132 -1.131,-1.132Zm-1.132,4.527l-2.264,0l0,-2.263l2.264,-0l-0,2.263Z" style="fill-rule:nonzero;"/><path d="M456.09,6.79l-4.527,0c-0.621,0 -1.132,0.511 -1.132,1.132l-0,4.527c-0,0.621 0.511,1.132 1.132,1.132l4.527,-0c0.62,-0 1.131,-0.511 1.131,-1.132l0,-4.527c0,-0.621 -0.511,-1.132 -1.131,-1.132Zm-1.132,4.527l-2.264,0l0,-2.263l2.264,-0l-0,2.263Z" style="fill-rule:nonzero;"/><path d="M465.144,6.79l-4.527,0c-0.621,0 -1.132,0.511 -1.132,1.132l-0,4.527c-0,0.621 0.511,1.132 1.132,1.132l4.527,-0c0.62,-0 1.131,-0.511 1.131,-1.132l0,-4.527c0,-0.621 -0.511,-1.132 -1.131,-1.132Zm-1.132,4.527l-2.264,0l0,-2.263l2.264,-0l-0,2.263Z" style="fill-rule:nonzero;"/><rect x="468.539" y="6.79" width="15.844" height="2.263" style="fill-rule:nonzero;"/><rect x="486.647" y="6.79" width="2.263" height="2.263" style="fill-rule:nonzero;"/><rect x="468.539" y="11.317" width="15.844" height="2.263" style="fill-rule:nonzero;"/><rect x="486.647" y="11.317" width="2.263" height="2.263" style="fill-rule:nonzero;"/><path d="M456.09,43.006l-4.527,0c-0.621,0 -1.132,0.511 -1.132,1.132l-0,4.527c-0,0.621 0.511,1.132 1.132,1.132l4.527,-0c0.62,-0 1.131,-0.511 1.131,-1.132l0,-4.527c0,-0.621 -0.511,-1.132 -1.131,-1.132Zm-1.132,4.527l-2.264,0l0,-2.263l2.264,-0l-0,2.263Z" style="fill-rule:nonzero;"/><path d="M465.144,43.006l-4.527,0c-0.621,0 -1.132,0.511 -1.132,1.132l-0,4.527c-0,0.621 0.511,1.132 1.132,1.132l4.527,-0c0.62,-0 1.131,-0.511 1.131,-1.132l0,-4.527c0,-0.621 -0.511,-1.132 -1.131,-1.132Zm-1.132,4.527l-2.264,0l0,-2.263l2.264,-0l-0,2.263Z" style="fill-rule:nonzero;"/></g></g><path d="M452.664,82.169l0,-2.724l2.28,-0c0.248,-0 0.482,0.014 0.702,0.042c0.22,0.028 0.414,0.09 0.582,0.186c0.168,0.096 0.3,0.232 0.396,0.408c0.096,0.176 0.144,0.416 0.144,0.72c0,0.456 -0.142,0.798 -0.426,1.026c-0.284,0.228 -0.75,0.342 -1.398,0.342l-2.28,-0Zm-1.14,-3.684l0,8.568l4.14,-0c0.424,-0 0.798,-0.07 1.122,-0.21c0.324,-0.14 0.596,-0.324 0.816,-0.552c0.22,-0.228 0.386,-0.49 0.498,-0.786c0.112,-0.296 0.168,-0.6 0.168,-0.912c0,-0.528 -0.14,-0.976 -0.42,-1.344c-0.28,-0.368 -0.684,-0.608 -1.212,-0.72l0,-0.024c0.408,-0.16 0.722,-0.406 0.942,-0.738c0.22,-0.332 0.33,-0.726 0.33,-1.182c0,-0.432 -0.098,-0.796 -0.294,-1.092c-0.196,-0.296 -0.434,-0.528 -0.714,-0.696c-0.128,-0.08 -0.282,-0.14 -0.462,-0.18c-0.18,-0.04 -0.374,-0.07 -0.582,-0.09c-0.208,-0.02 -0.418,-0.032 -0.63,-0.036c-0.212,-0.004 -0.41,-0.006 -0.594,-0.006l-3.108,-0Zm1.14,7.608l0,-2.964l2.604,-0c0.24,-0 0.472,0.022 0.696,0.066c0.224,0.044 0.422,0.12 0.594,0.228c0.172,0.108 0.31,0.254 0.414,0.438c0.104,0.184 0.156,0.416 0.156,0.696c0,0.48 -0.142,0.856 -0.426,1.128c-0.284,0.272 -0.678,0.408 -1.182,0.408l-2.856,-0Z" style="fill:#070b00;fill-rule:nonzero;"/><path d="M465.072,87.029c-0.176,0.104 -0.42,0.156 -0.732,0.156c-0.264,-0 -0.474,-0.074 -0.63,-0.222c-0.156,-0.148 -0.234,-0.39 -0.234,-0.726c-0.28,0.336 -0.606,0.578 -0.978,0.726c-0.372,0.148 -0.774,0.222 -1.206,0.222c-0.28,-0 -0.546,-0.032 -0.798,-0.096c-0.252,-0.064 -0.47,-0.164 -0.654,-0.3c-0.184,-0.136 -0.33,-0.314 -0.438,-0.534c-0.108,-0.22 -0.162,-0.486 -0.162,-0.798c0,-0.352 0.06,-0.64 0.18,-0.864c0.12,-0.224 0.278,-0.406 0.474,-0.546c0.196,-0.14 0.42,-0.246 0.672,-0.318c0.252,-0.072 0.51,-0.132 0.774,-0.18c0.28,-0.056 0.546,-0.098 0.798,-0.126c0.252,-0.028 0.474,-0.068 0.666,-0.12c0.192,-0.052 0.344,-0.128 0.456,-0.228c0.112,-0.1 0.168,-0.246 0.168,-0.438c0,-0.224 -0.042,-0.404 -0.126,-0.54c-0.084,-0.136 -0.192,-0.24 -0.324,-0.312c-0.132,-0.072 -0.28,-0.12 -0.444,-0.144c-0.164,-0.024 -0.326,-0.036 -0.486,-0.036c-0.432,-0 -0.792,0.082 -1.08,0.246c-0.288,0.164 -0.444,0.474 -0.468,0.93l-1.02,-0c0.016,-0.384 0.096,-0.708 0.24,-0.972c0.144,-0.264 0.336,-0.478 0.576,-0.642c0.24,-0.164 0.514,-0.282 0.822,-0.354c0.308,-0.072 0.638,-0.108 0.99,-0.108c0.28,-0 0.558,0.02 0.834,0.06c0.276,0.04 0.526,0.122 0.75,0.246c0.224,0.124 0.404,0.298 0.54,0.522c0.136,0.224 0.204,0.516 0.204,0.876l0,3.192c0,0.24 0.014,0.416 0.042,0.528c0.028,0.112 0.122,0.168 0.282,0.168c0.088,-0 0.192,-0.02 0.312,-0.06l0,0.792Zm-1.656,-3.18c-0.128,0.096 -0.296,0.166 -0.504,0.21c-0.208,0.044 -0.426,0.08 -0.654,0.108c-0.228,0.028 -0.458,0.06 -0.69,0.096c-0.232,0.036 -0.44,0.094 -0.624,0.174c-0.184,0.08 -0.334,0.194 -0.45,0.342c-0.116,0.148 -0.174,0.35 -0.174,0.606c0,0.168 0.034,0.31 0.102,0.426c0.068,0.116 0.156,0.21 0.264,0.282c0.108,0.072 0.234,0.124 0.378,0.156c0.144,0.032 0.296,0.048 0.456,0.048c0.336,-0 0.624,-0.046 0.864,-0.138c0.24,-0.092 0.436,-0.208 0.588,-0.348c0.152,-0.14 0.264,-0.292 0.336,-0.456c0.072,-0.164 0.108,-0.318 0.108,-0.462l0,-1.044Z" style="fill:#070b00;fill-rule:nonzero;"/><path d="M466.644,85.097l-1.02,-0c0.016,0.384 0.096,0.71 0.24,0.978c0.144,0.268 0.336,0.484 0.576,0.648c0.24,0.164 0.516,0.282 0.828,0.354c0.312,0.072 0.64,0.108 0.984,0.108c0.312,-0 0.626,-0.03 0.942,-0.09c0.316,-0.06 0.6,-0.166 0.852,-0.318c0.252,-0.152 0.456,-0.352 0.612,-0.6c0.156,-0.248 0.234,-0.56 0.234,-0.936c0,-0.296 -0.058,-0.544 -0.174,-0.744c-0.116,-0.2 -0.268,-0.366 -0.456,-0.498c-0.188,-0.132 -0.404,-0.238 -0.648,-0.318c-0.244,-0.08 -0.494,-0.148 -0.75,-0.204c-0.24,-0.056 -0.48,-0.11 -0.72,-0.162c-0.24,-0.052 -0.456,-0.116 -0.648,-0.192c-0.192,-0.076 -0.35,-0.172 -0.474,-0.288c-0.124,-0.116 -0.186,-0.262 -0.186,-0.438c0,-0.16 0.04,-0.29 0.12,-0.39c0.08,-0.1 0.184,-0.18 0.312,-0.24c0.128,-0.06 0.27,-0.102 0.426,-0.126c0.156,-0.024 0.31,-0.036 0.462,-0.036c0.168,-0 0.334,0.018 0.498,0.054c0.164,0.036 0.314,0.094 0.45,0.174c0.136,0.08 0.248,0.186 0.336,0.318c0.088,0.132 0.14,0.298 0.156,0.498l1.02,-0c-0.024,-0.376 -0.104,-0.69 -0.24,-0.942c-0.136,-0.252 -0.318,-0.452 -0.546,-0.6c-0.228,-0.148 -0.49,-0.252 -0.786,-0.312c-0.296,-0.06 -0.62,-0.09 -0.972,-0.09c-0.272,-0 -0.546,0.034 -0.822,0.102c-0.276,0.068 -0.524,0.172 -0.744,0.312c-0.22,0.14 -0.4,0.322 -0.54,0.546c-0.14,0.224 -0.21,0.492 -0.21,0.804c0,0.4 0.1,0.712 0.3,0.936c0.2,0.224 0.45,0.398 0.75,0.522c0.3,0.124 0.626,0.22 0.978,0.288c0.352,0.068 0.678,0.144 0.978,0.228c0.3,0.084 0.55,0.194 0.75,0.33c0.2,0.136 0.3,0.336 0.3,0.6c0,0.192 -0.048,0.35 -0.144,0.474c-0.096,0.124 -0.218,0.218 -0.366,0.282c-0.148,0.064 -0.31,0.108 -0.486,0.132c-0.176,0.024 -0.344,0.036 -0.504,0.036c-0.208,-0 -0.41,-0.02 -0.606,-0.06c-0.196,-0.04 -0.372,-0.106 -0.528,-0.198c-0.156,-0.092 -0.282,-0.216 -0.378,-0.372c-0.096,-0.156 -0.148,-0.346 -0.156,-0.57Z" style="fill:#070b00;fill-rule:nonzero;"/><path d="M473.1,79.733l0,-1.248l-1.02,-0l0,1.248l1.02,-0Zm-1.02,1.116l0,6.204l1.02,-0l0,-6.204l-1.02,-0Z" style="fill:#070b00;fill-rule:nonzero;"/><path d="M475.308,85.097l-1.02,-0c0.016,0.384 0.096,0.71 0.24,0.978c0.144,0.268 0.336,0.484 0.576,0.648c0.24,0.164 0.516,0.282 0.828,0.354c0.312,0.072 0.64,0.108 0.984,0.108c0.312,-0 0.626,-0.03 0.942,-0.09c0.316,-0.06 0.6,-0.166 0.852,-0.318c0.252,-0.152 0.456,-0.352 0.612,-0.6c0.156,-0.248 0.234,-0.56 0.234,-0.936c0,-0.296 -0.058,-0.544 -0.174,-0.744c-0.116,-0.2 -0.268,-0.366 -0.456,-0.498c-0.188,-0.132 -0.404,-0.238 -0.648,-0.318c-0.244,-0.08 -0.494,-0.148 -0.75,-0.204c-0.24,-0.056 -0.48,-0.11 -0.72,-0.162c-0.24,-0.052 -0.456,-0.116 -0.648,-0.192c-0.192,-0.076 -0.35,-0.172 -0.474,-0.288c-0.124,-0.116 -0.186,-0.262 -0.186,-0.438c0,-0.16 0.04,-0.29 0.12,-0.39c0.08,-0.1 0.184,-0.18 0.312,-0.24c0.128,-0.06 0.27,-0.102 0.426,-0.126c0.156,-0.024 0.31,-0.036 0.462,-0.036c0.168,-0 0.334,0.018 0.498,0.054c0.164,0.036 0.314,0.094 0.45,0.174c0.136,0.08 0.248,0.186 0.336,0.318c0.088,0.132 0.14,0.298 0.156,0.498l1.02,-0c-0.024,-0.376 -0.104,-0.69 -0.24,-0.942c-0.136,-0.252 -0.318,-0.452 -0.546,-0.6c-0.228,-0.148 -0.49,-0.252 -0.786,-0.312c-0.296,-0.06 -0.62,-0.09 -0.972,-0.09c-0.272,-0 -0.546,0.034 -0.822,0.102c-0.276,0.068 -0.524,0.172 -0.744,0.312c-0.22,0.14 -0.4,0.322 -0.54,0.546c-0.14,0.224 -0.21,0.492 -0.21,0.804c0,0.4 0.1,0.712 0.3,0.936c0.2,0.224 0.45,0.398 0.75,0.522c0.3,0.124 0.626,0.22 0.978,0.288c0.352,0.068 0.678,0.144 0.978,0.228c0.3,0.084 0.55,0.194 0.75,0.33c0.2,0.136 0.3,0.336 0.3,0.6c0,0.192 -0.048,0.35 -0.144,0.474c-0.096,0.124 -0.218,0.218 -0.366,0.282c-0.148,0.064 -0.31,0.108 -0.486,0.132c-0.176,0.024 -0.344,0.036 -0.504,0.036c-0.208,-0 -0.41,-0.02 -0.606,-0.06c-0.196,-0.04 -0.372,-0.106 -0.528,-0.198c-0.156,-0.092 -0.282,-0.216 -0.378,-0.372c-0.096,-0.156 -0.148,-0.346 -0.156,-0.57Z" style="fill:#070b00;fill-rule:nonzero;"/><path d="M485.328,86.093l0,-6.648l1.92,-0c0.528,-0 0.972,0.074 1.332,0.222c0.36,0.148 0.654,0.364 0.882,0.648c0.228,0.284 0.392,0.628 0.492,1.032c0.1,0.404 0.15,0.862 0.15,1.374c0,0.528 -0.054,0.978 -0.162,1.35c-0.108,0.372 -0.246,0.682 -0.414,0.93c-0.168,0.248 -0.358,0.444 -0.57,0.588c-0.212,0.144 -0.426,0.254 -0.642,0.33c-0.216,0.076 -0.42,0.124 -0.612,0.144c-0.192,0.02 -0.352,0.03 -0.48,0.03l-1.896,-0Zm-1.14,-7.608l0,8.568l2.94,-0c0.712,-0 1.328,-0.1 1.848,-0.3c0.52,-0.2 0.948,-0.49 1.284,-0.87c0.336,-0.38 0.584,-0.848 0.744,-1.404c0.16,-0.556 0.24,-1.194 0.24,-1.914c0,-1.376 -0.356,-2.4 -1.068,-3.072c-0.712,-0.672 -1.728,-1.008 -3.048,-1.008l-2.94,-0Z" style="fill:#070b00;fill-rule:nonzero;"/><path d="M497.964,87.029c-0.176,0.104 -0.42,0.156 -0.732,0.156c-0.264,-0 -0.474,-0.074 -0.63,-0.222c-0.156,-0.148 -0.234,-0.39 -0.234,-0.726c-0.28,0.336 -0.606,0.578 -0.978,0.726c-0.372,0.148 -0.774,0.222 -1.206,0.222c-0.28,-0 -0.546,-0.032 -0.798,-0.096c-0.252,-0.064 -0.47,-0.164 -0.654,-0.3c-0.184,-0.136 -0.33,-0.314 -0.438,-0.534c-0.108,-0.22 -0.162,-0.486 -0.162,-0.798c0,-0.352 0.06,-0.64 0.18,-0.864c0.12,-0.224 0.278,-0.406 0.474,-0.546c0.196,-0.14 0.42,-0.246 0.672,-0.318c0.252,-0.072 0.51,-0.132 0.774,-0.18c0.28,-0.056 0.546,-0.098 0.798,-0.126c0.252,-0.028 0.474,-0.068 0.666,-0.12c0.192,-0.052 0.344,-0.128 0.456,-0.228c0.112,-0.1 0.168,-0.246 0.168,-0.438c0,-0.224 -0.042,-0.404 -0.126,-0.54c-0.084,-0.136 -0.192,-0.24 -0.324,-0.312c-0.132,-0.072 -0.28,-0.12 -0.444,-0.144c-0.164,-0.024 -0.326,-0.036 -0.486,-0.036c-0.432,-0 -0.792,0.082 -1.08,0.246c-0.288,0.164 -0.444,0.474 -0.468,0.93l-1.02,-0c0.016,-0.384 0.096,-0.708 0.24,-0.972c0.144,-0.264 0.336,-0.478 0.576,-0.642c0.24,-0.164 0.514,-0.282 0.822,-0.354c0.308,-0.072 0.638,-0.108 0.99,-0.108c0.28,-0 0.558,0.02 0.834,0.06c0.276,0.04 0.526,0.122 0.75,0.246c0.224,0.124 0.404,0.298 0.54,0.522c0.136,0.224 0.204,0.516 0.204,0.876l0,3.192c0,0.24 0.014,0.416 0.042,0.528c0.028,0.112 0.122,0.168 0.282,0.168c0.088,-0 0.192,-0.02 0.312,-0.06l0,0.792Zm-1.656,-3.18c-0.128,0.096 -0.296,0.166 -0.504,0.21c-0.208,0.044 -0.426,0.08 -0.654,0.108c-0.228,0.028 -0.458,0.06 -0.69,0.096c-0.232,0.036 -0.44,0.094 -0.624,0.174c-0.184,0.08 -0.334,0.194 -0.45,0.342c-0.116,0.148 -0.174,0.35 -0.174,0.606c0,0.168 0.034,0.31 0.102,0.426c0.068,0.116 0.156,0.21 0.264,0.282c0.108,0.072 0.234,0.124 0.378,0.156c0.144,0.032 0.296,0.048 0.456,0.048c0.336,-0 0.624,-0.046 0.864,-0.138c0.24,-0.092 0.436,-0.208 0.588,-0.348c0.152,-0.14 0.264,-0.292 0.336,-0.456c0.072,-0.164 0.108,-0.318 0.108,-0.462l0,-1.044Z" style="fill:#070b00;fill-rule:nonzero;"/><path d="M500.328,80.849l0,-1.86l-1.02,-0l0,1.86l-1.056,-0l0,0.9l1.056,-0l0,3.948c0,0.288 0.028,0.52 0.084,0.696c0.056,0.176 0.142,0.312 0.258,0.408c0.116,0.096 0.268,0.162 0.456,0.198c0.188,0.036 0.414,0.054 0.678,0.054l0.78,-0l0,-0.9l-0.468,-0c-0.16,-0 -0.29,-0.006 -0.39,-0.018c-0.1,-0.012 -0.178,-0.038 -0.234,-0.078c-0.056,-0.04 -0.094,-0.096 -0.114,-0.168c-0.02,-0.072 -0.03,-0.168 -0.03,-0.288l0,-3.852l1.236,-0l0,-0.9l-1.236,-0Z" style="fill:#070b00;fill-rule:nonzero;"/><path d="M508.188,87.029c-0.176,0.104 -0.42,0.156 -0.732,0.156c-0.264,-0 -0.474,-0.074 -0.63,-0.222c-0.156,-0.148 -0.234,-0.39 -0.234,-0.726c-0.28,0.336 -0.606,0.578 -0.978,0.726c-0.372,0.148 -0.774,0.222 -1.206,0.222c-0.28,-0 -0.546,-0.032 -0.798,-0.096c-0.252,-0.064 -0.47,-0.164 -0.654,-0.3c-0.184,-0.136 -0.33,-0.314 -0.438,-0.534c-0.108,-0.22 -0.162,-0.486 -0.162,-0.798c0,-0.352 0.06,-0.64 0.18,-0.864c0.12,-0.224 0.278,-0.406 0.474,-0.546c0.196,-0.14 0.42,-0.246 0.672,-0.318c0.252,-0.072 0.51,-0.132 0.774,-0.18c0.28,-0.056 0.546,-0.098 0.798,-0.126c0.252,-0.028 0.474,-0.068 0.666,-0.12c0.192,-0.052 0.344,-0.128 0.456,-0.228c0.112,-0.1 0.168,-0.246 0.168,-0.438c0,-0.224 -0.042,-0.404 -0.126,-0.54c-0.084,-0.136 -0.192,-0.24 -0.324,-0.312c-0.132,-0.072 -0.28,-0.12 -0.444,-0.144c-0.164,-0.024 -0.326,-0.036 -0.486,-0.036c-0.432,-0 -0.792,0.082 -1.08,0.246c-0.288,0.164 -0.444,0.474 -0.468,0.93l-1.02,-0c0.016,-0.384 0.096,-0.708 0.24,-0.972c0.144,-0.264 0.336,-0.478 0.576,-0.642c0.24,-0.164 0.514,-0.282 0.822,-0.354c0.308,-0.072 0.638,-0.108 0.99,-0.108c0.28,-0 0.558,0.02 0.834,0.06c0.276,0.04 0.526,0.122 0.75,0.246c0.224,0.124 0.404,0.298 0.54,0.522c0.136,0.224 0.204,0.516 0.204,0.876l0,3.192c0,0.24 0.014,0.416 0.042,0.528c0.028,0.112 0.122,0.168 0.282,0.168c0.088,-0 0.192,-0.02 0.312,-0.06l0,0.792Zm-1.656,-3.18c-0.128,0.096 -0.296,0.166 -0.504,0.21c-0.208,0.044 -0.426,0.08 -0.654,0.108c-0.228,0.028 -0.458,0.06 -0.69,0.096c-0.232,0.036 -0.44,0.094 -0.624,0.174c-0.184,0.08 -0.334,0.194 -0.45,0.342c-0.116,0.148 -0.174,0.35 -0.174,0.606c0,0.168 0.034,0.31 0.102,0.426c0.068,0.116 0.156,0.21 0.264,0.282c0.108,0.072 0.234,0.124 0.378,0.156c0.144,0.032 0.296,0.048 0.456,0.048c0.336,-0 0.624,-0.046 0.864,-0.138c0.24,-0.092 0.436,-0.208 0.588,-0.348c0.152,-0.14 0.264,-0.292 0.336,-0.456c0.072,-0.164 0.108,-0.318 0.108,-0.462l0,-1.044Z" style="fill:#070b00;fill-rule:nonzero;"/><path d="M437.199,222.623l1.452,-3.996l0.024,-0l1.428,3.996l-2.904,-0Zm0.852,-5.028l-3.336,8.568l1.164,-0l0.96,-2.58l3.624,-0l0.936,2.58l1.26,-0l-3.348,-8.568l-1.26,-0Z" style="fill:#070b00;fill-rule:nonzero;"/><path d="M444.639,221.699l0,-3.144l2.232,-0c0.648,-0 1.122,0.134 1.422,0.402c0.3,0.268 0.45,0.658 0.45,1.17c0,0.512 -0.15,0.904 -0.45,1.176c-0.3,0.272 -0.774,0.404 -1.422,0.396l-2.232,-0Zm-1.14,-4.104l0,8.568l1.14,-0l0,-3.504l2.616,-0c0.864,0.008 1.518,-0.212 1.962,-0.66c0.444,-0.448 0.666,-1.072 0.666,-1.872c0,-0.8 -0.222,-1.422 -0.666,-1.866c-0.444,-0.444 -1.098,-0.666 -1.962,-0.666l-3.756,-0Z" style="fill:#070b00;fill-rule:nonzero;"/><rect x="451.323" y="217.595" width="1.14" height="8.568" style="fill:#070b00;fill-rule:nonzero;"/><path d="M458.859,221.699l0,-3.144l2.232,-0c0.648,-0 1.122,0.134 1.422,0.402c0.3,0.268 0.45,0.658 0.45,1.17c0,0.512 -0.15,0.904 -0.45,1.176c-0.3,0.272 -0.774,0.404 -1.422,0.396l-2.232,-0Zm-1.14,-4.104l0,8.568l1.14,-0l0,-3.504l2.616,-0c0.864,0.008 1.518,-0.212 1.962,-0.66c0.444,-0.448 0.666,-1.072 0.666,-1.872c0,-0.8 -0.222,-1.422 -0.666,-1.866c-0.444,-0.444 -1.098,-0.666 -1.962,-0.666l-3.756,-0Z" style="fill:#070b00;fill-rule:nonzero;"/><path d="M466.407,218.843l0,-1.248l-1.02,-0l0,1.248l1.02,-0Zm-1.02,1.116l0,6.204l1.02,-0l0,-6.204l-1.02,-0Z" style="fill:#070b00;fill-rule:nonzero;"/><path d="M467.991,217.595l0,8.568l1.02,-0l0,-3.504c0,-0.28 0.038,-0.538 0.114,-0.774c0.076,-0.236 0.19,-0.442 0.342,-0.618c0.152,-0.176 0.342,-0.312 0.57,-0.408c0.228,-0.096 0.498,-0.144 0.81,-0.144c0.392,-0 0.7,0.112 0.924,0.336c0.224,0.224 0.336,0.528 0.336,0.912l0,4.2l1.02,-0l0,-4.08c0,-0.336 -0.034,-0.642 -0.102,-0.918c-0.068,-0.276 -0.186,-0.514 -0.354,-0.714c-0.168,-0.2 -0.388,-0.356 -0.66,-0.468c-0.272,-0.112 -0.612,-0.168 -1.02,-0.168c-0.184,-0 -0.374,0.02 -0.57,0.06c-0.196,0.04 -0.384,0.102 -0.564,0.186c-0.18,0.084 -0.342,0.192 -0.486,0.324c-0.144,0.132 -0.256,0.294 -0.336,0.486l-0.024,-0l0,-3.276l-1.02,-0Z" style="fill:#070b00;fill-rule:nonzero;"/><path d="M480.159,226.139c-0.176,0.104 -0.42,0.156 -0.732,0.156c-0.264,-0 -0.474,-0.074 -0.63,-0.222c-0.156,-0.148 -0.234,-0.39 -0.234,-0.726c-0.28,0.336 -0.606,0.578 -0.978,0.726c-0.372,0.148 -0.774,0.222 -1.206,0.222c-0.28,-0 -0.546,-0.032 -0.798,-0.096c-0.252,-0.064 -0.47,-0.164 -0.654,-0.3c-0.184,-0.136 -0.33,-0.314 -0.438,-0.534c-0.108,-0.22 -0.162,-0.486 -0.162,-0.798c0,-0.352 0.06,-0.64 0.18,-0.864c0.12,-0.224 0.278,-0.406 0.474,-0.546c0.196,-0.14 0.42,-0.246 0.672,-0.318c0.252,-0.072 0.51,-0.132 0.774,-0.18c0.28,-0.056 0.546,-0.098 0.798,-0.126c0.252,-0.028 0.474,-0.068 0.666,-0.12c0.192,-0.052 0.344,-0.128 0.456,-0.228c0.112,-0.1 0.168,-0.246 0.168,-0.438c0,-0.224 -0.042,-0.404 -0.126,-0.54c-0.084,-0.136 -0.192,-0.24 -0.324,-0.312c-0.132,-0.072 -0.28,-0.12 -0.444,-0.144c-0.164,-0.024 -0.326,-0.036 -0.486,-0.036c-0.432,-0 -0.792,0.082 -1.08,0.246c-0.288,0.164 -0.444,0.474 -0.468,0.93l-1.02,-0c0.016,-0.384 0.096,-0.708 0.24,-0.972c0.144,-0.264 0.336,-0.478 0.576,-0.642c0.24,-0.164 0.514,-0.282 0.822,-0.354c0.308,-0.072 0.638,-0.108 0.99,-0.108c0.28,-0 0.558,0.02 0.834,0.06c0.276,0.04 0.526,0.122 0.75,0.246c0.224,0.124 0.404,0.298 0.54,0.522c0.136,0.224 0.204,0.516 0.204,0.876l0,3.192c0,0.24 0.014,0.416 0.042,0.528c0.028,0.112 0.122,0.168 0.282,0.168c0.088,-0 0.192,-0.02 0.312,-0.06l0,0.792Zm-1.656,-3.18c-0.128,0.096 -0.296,0.166 -0.504,0.21c-0.208,0.044 -0.426,0.08 -0.654,0.108c-0.228,0.028 -0.458,0.06 -0.69,0.096c-0.232,0.036 -0.44,0.094 -0.624,0.174c-0.184,0.08 -0.334,0.194 -0.45,0.342c-0.116,0.148 -0.174,0.35 -0.174,0.606c0,0.168 0.034,0.31 0.102,0.426c0.068,0.116 0.156,0.21 0.264,0.282c0.108,0.072 0.234,0.124 0.378,0.156c0.144,0.032 0.296,0.048 0.456,0.048c0.336,-0 0.624,-0.046 0.864,-0.138c0.24,-0.092 0.436,-0.208 0.588,-0.348c0.152,-0.14 0.264,-0.292 0.336,-0.456c0.072,-0.164 0.108,-0.318 0.108,-0.462l0,-1.044Z" style="fill:#070b00;fill-rule:nonzero;"/><path d="M481.167,217.595l0,8.568l1.02,-0l0,-2.352l0.96,-0.888l2.124,3.24l1.296,-0l-2.64,-3.948l2.46,-2.256l-1.368,-0l-2.832,2.712l0,-5.076l-1.02,-0Z" style="fill:#070b00;fill-rule:nonzero;"/><path d="M490.839,217.595l0,8.568l1.14,-0l0,-3l1.428,-1.332l3.096,4.332l1.44,-0l-3.756,-5.112l3.612,-3.456l-1.476,-0l-4.344,4.272l0,-4.272l-1.14,-0Z" style="fill:#070b00;fill-rule:nonzero;"/><path d="M502.983,222.467l-3.564,-0c0.016,-0.24 0.068,-0.466 0.156,-0.678c0.088,-0.212 0.208,-0.398 0.36,-0.558c0.152,-0.16 0.334,-0.286 0.546,-0.378c0.212,-0.092 0.45,-0.138 0.714,-0.138c0.256,-0 0.49,0.046 0.702,0.138c0.212,0.092 0.396,0.216 0.552,0.372c0.156,0.156 0.28,0.342 0.372,0.558c0.092,0.216 0.146,0.444 0.162,0.684Zm0.984,1.728l-1.008,-0c-0.088,0.408 -0.27,0.712 -0.546,0.912c-0.276,0.2 -0.63,0.3 -1.062,0.3c-0.336,-0 -0.628,-0.056 -0.876,-0.168c-0.248,-0.112 -0.452,-0.262 -0.612,-0.45c-0.16,-0.188 -0.276,-0.404 -0.348,-0.648c-0.072,-0.244 -0.104,-0.502 -0.096,-0.774l4.644,-0c0.016,-0.376 -0.018,-0.772 -0.102,-1.188c-0.084,-0.416 -0.236,-0.8 -0.456,-1.152c-0.22,-0.352 -0.512,-0.642 -0.876,-0.87c-0.364,-0.228 -0.822,-0.342 -1.374,-0.342c-0.424,-0 -0.814,0.08 -1.17,0.24c-0.356,0.16 -0.664,0.384 -0.924,0.672c-0.26,0.288 -0.462,0.628 -0.606,1.02c-0.144,0.392 -0.216,0.824 -0.216,1.296c0.016,0.472 0.086,0.908 0.21,1.308c0.124,0.4 0.31,0.744 0.558,1.032c0.248,0.288 0.554,0.512 0.918,0.672c0.364,0.16 0.794,0.24 1.29,0.24c0.704,-0 1.288,-0.176 1.752,-0.528c0.464,-0.352 0.764,-0.876 0.9,-1.572Z" style="fill:#070b00;fill-rule:nonzero;"/><path d="M506.535,219.959l0,-1.86l-1.02,-0l0,1.86l-1.056,-0l0,0.9l1.056,-0l0,3.948c0,0.288 0.028,0.52 0.084,0.696c0.056,0.176 0.142,0.312 0.258,0.408c0.116,0.096 0.268,0.162 0.456,0.198c0.188,0.036 0.414,0.054 0.678,0.054l0.78,-0l0,-0.9l-0.468,-0c-0.16,-0 -0.29,-0.006 -0.39,-0.018c-0.1,-0.012 -0.178,-0.038 -0.234,-0.078c-0.056,-0.04 -0.094,-0.096 -0.114,-0.168c-0.02,-0.072 -0.03,-0.168 -0.03,-0.288l0,-3.852l1.236,-0l0,-0.9l-1.236,-0Z" style="fill:#070b00;fill-rule:nonzero;"/><path d="M509.979,218.843l0,-1.248l-1.02,-0l0,1.248l1.02,-0Zm-1.02,1.116l0,6.204l1.02,-0l0,-6.204l-1.02,-0Z" style="fill:#070b00;fill-rule:nonzero;"/><path d="M516.915,225.635l0,-5.676l-0.96,-0l0,0.888l-0.012,-0c-0.184,-0.344 -0.44,-0.602 -0.768,-0.774c-0.328,-0.172 -0.688,-0.258 -1.08,-0.258c-0.536,-0 -0.988,0.102 -1.356,0.306c-0.368,0.204 -0.664,0.464 -0.888,0.78c-0.224,0.316 -0.384,0.668 -0.48,1.056c-0.096,0.388 -0.144,0.766 -0.144,1.134c0,0.424 0.058,0.826 0.174,1.206c0.116,0.38 0.29,0.712 0.522,0.996c0.232,0.284 0.52,0.51 0.864,0.678c0.344,0.168 0.748,0.252 1.212,0.252c0.4,-0 0.778,-0.09 1.134,-0.27c0.356,-0.18 0.622,-0.462 0.798,-0.846l0.024,-0l0,0.408c0,0.344 -0.034,0.66 -0.102,0.948c-0.068,0.288 -0.178,0.534 -0.33,0.738c-0.152,0.204 -0.344,0.364 -0.576,0.48c-0.232,0.116 -0.516,0.174 -0.852,0.174c-0.168,-0 -0.344,-0.018 -0.528,-0.054c-0.184,-0.036 -0.354,-0.094 -0.51,-0.174c-0.156,-0.08 -0.288,-0.184 -0.396,-0.312c-0.108,-0.128 -0.166,-0.284 -0.174,-0.468l-1.02,-0c0.016,0.336 0.104,0.62 0.264,0.852c0.16,0.232 0.362,0.42 0.606,0.564c0.244,0.144 0.516,0.248 0.816,0.312c0.3,0.064 0.594,0.096 0.882,0.096c0.992,-0 1.72,-0.252 2.184,-0.756c0.464,-0.504 0.696,-1.264 0.696,-2.28Zm-2.856,-0.3c-0.336,-0 -0.616,-0.07 -0.84,-0.21c-0.224,-0.14 -0.404,-0.324 -0.54,-0.552c-0.136,-0.228 -0.232,-0.482 -0.288,-0.762c-0.056,-0.28 -0.084,-0.56 -0.084,-0.84c0,-0.296 0.034,-0.58 0.102,-0.852c0.068,-0.272 0.176,-0.512 0.324,-0.72c0.148,-0.208 0.338,-0.374 0.57,-0.498c0.232,-0.124 0.512,-0.186 0.84,-0.186c0.32,-0 0.592,0.064 0.816,0.192c0.224,0.128 0.406,0.298 0.546,0.51c0.14,0.212 0.242,0.45 0.306,0.714c0.064,0.264 0.096,0.532 0.096,0.804c0,0.288 -0.034,0.576 -0.102,0.864c-0.068,0.288 -0.174,0.546 -0.318,0.774c-0.144,0.228 -0.334,0.412 -0.57,0.552c-0.236,0.14 -0.522,0.21 -0.858,0.21Z" style="fill:#070b00;fill-rule:nonzero;"/><path d="M523.947,226.139c-0.176,0.104 -0.42,0.156 -0.732,0.156c-0.264,-0 -0.474,-0.074 -0.63,-0.222c-0.156,-0.148 -0.234,-0.39 -0.234,-0.726c-0.28,0.336 -0.606,0.578 -0.978,0.726c-0.372,0.148 -0.774,0.222 -1.206,0.222c-0.28,-0 -0.546,-0.032 -0.798,-0.096c-0.252,-0.064 -0.47,-0.164 -0.654,-0.3c-0.184,-0.136 -0.33,-0.314 -0.438,-0.534c-0.108,-0.22 -0.162,-0.486 -0.162,-0.798c0,-0.352 0.06,-0.64 0.18,-0.864c0.12,-0.224 0.278,-0.406 0.474,-0.546c0.196,-0.14 0.42,-0.246 0.672,-0.318c0.252,-0.072 0.51,-0.132 0.774,-0.18c0.28,-0.056 0.546,-0.098 0.798,-0.126c0.252,-0.028 0.474,-0.068 0.666,-0.12c0.192,-0.052 0.344,-0.128 0.456,-0.228c0.112,-0.1 0.168,-0.246 0.168,-0.438c0,-0.224 -0.042,-0.404 -0.126,-0.54c-0.084,-0.136 -0.192,-0.24 -0.324,-0.312c-0.132,-0.072 -0.28,-0.12 -0.444,-0.144c-0.164,-0.024 -0.326,-0.036 -0.486,-0.036c-0.432,-0 -0.792,0.082 -1.08,0.246c-0.288,0.164 -0.444,0.474 -0.468,0.93l-1.02,-0c0.016,-0.384 0.096,-0.708 0.24,-0.972c0.144,-0.264 0.336,-0.478 0.576,-0.642c0.24,-0.164 0.514,-0.282 0.822,-0.354c0.308,-0.072 0.638,-0.108 0.99,-0.108c0.28,-0 0.558,0.02 0.834,0.06c0.276,0.04 0.526,0.122 0.75,0.246c0.224,0.124 0.404,0.298 0.54,0.522c0.136,0.224 0.204,0.516 0.204,0.876l0,3.192c0,0.24 0.014,0.416 0.042,0.528c0.028,0.112 0.122,0.168 0.282,0.168c0.088,-0 0.192,-0.02 0.312,-0.06l0,0.792Zm-1.656,-3.18c-0.128,0.096 -0.296,0.166 -0.504,0.21c-0.208,0.044 -0.426,0.08 -0.654,0.108c-0.228,0.028 -0.458,0.06 -0.69,0.096c-0.232,0.036 -0.44,0.094 -0.624,0.174c-0.184,0.08 -0.334,0.194 -0.45,0.342c-0.116,0.148 -0.174,0.35 -0.174,0.606c0,0.168 0.034,0.31 0.102,0.426c0.068,0.116 0.156,0.21 0.264,0.282c0.108,0.072 0.234,0.124 0.378,0.156c0.144,0.032 0.296,0.048 0.456,0.048c0.336,-0 0.624,-0.046 0.864,-0.138c0.24,-0.092 0.436,-0.208 0.588,-0.348c0.152,-0.14 0.264,-0.292 0.336,-0.456c0.072,-0.164 0.108,-0.318 0.108,-0.462l0,-1.044Z" style="fill:#070b00;fill-rule:nonzero;"/><path d="M522.693,184.225l-0,-9.516l-3.307,-0.778c-0.418,-1.456 -0.997,-2.856 -1.733,-4.181l1.788,-2.889l-6.729,-6.729l-2.889,1.788c-1.1,-0.61 -2.258,-1.117 -3.452,-1.51l-0.091,-0.03c-0.477,2.992 -3.048,5.284 -6.174,5.284c7.623,0 13.803,6.18 13.803,13.803c-0,7.623 -6.18,13.803 -13.803,13.803c-7.623,-0 -13.803,-6.18 -13.803,-13.803c0,-7.623 6.18,-13.803 13.803,-13.803l-18.975,0l1.505,3.949c-0.772,1.364 -1.378,2.811 -1.81,4.316l-3.306,0.78l-0,9.516l3.306,0.778c0.418,1.456 0.998,2.856 1.733,4.181l-1.788,2.889l6.73,6.729l2.888,-1.788c1.325,0.735 2.725,1.316 4.181,1.733l0.778,3.306l9.516,0l0.778,-3.305c1.456,-0.418 2.856,-0.998 4.181,-1.733l2.889,1.788l6.729,-6.729l-1.788,-2.889c0.736,-1.325 1.317,-2.725 1.733,-4.181l3.307,-0.779Z" style="fill:#f0bc5e;fill-rule:nonzero;"/><path d="M469.991,161.9l0,-12.548c0,-2.768 -2.251,-5.019 -5.019,-5.019c-2.768,-0 -5.019,2.251 -5.019,5.019l-0,12.548l2.509,-0l0,-5.02l5.02,0l-0,5.02l2.509,-0Zm-7.529,-7.529l0,-5.019c0,-1.384 1.126,-2.51 2.51,-2.51c1.384,0 2.51,1.126 2.51,2.51l-0,5.019l-5.02,-0Z" style="fill-rule:nonzero;"/><path d="M477.52,154.371c2.768,-0 5.019,-2.251 5.019,-5.019c0,-2.768 -2.251,-5.019 -5.019,-5.019l-5.019,-0l-0,17.567l2.509,-0l0,-7.529l2.51,-0Zm-2.51,-7.529l2.51,0c1.384,0 2.509,1.126 2.509,2.51c0,1.384 -1.125,2.509 -2.509,2.509l-2.51,0l0,-5.019Z" style="fill-rule:nonzero;"/><path d="M483.794,159.39l-0,2.51l7.529,-0l-0,-2.51l-2.51,0l0,-12.548l2.51,0l-0,-2.509l-7.529,-0l-0,2.509l2.509,0l0,12.548l-2.509,0Z" style="fill-rule:nonzero;"/><path d="M504.888,165.201c1.677,-1.383 2.747,-3.473 2.747,-5.811c-0,-3.725 -2.722,-6.818 -6.28,-7.416c-0,-0.039 0.006,-0.075 0.006,-0.113c0,-6.919 -5.629,-12.548 -12.548,-12.548c-1.581,0 -3.114,0.291 -4.574,0.867c-2.859,-5.138 -8.324,-8.395 -14.248,-8.395c-8.598,-0 -15.646,6.69 -16.252,15.135c-4.974,0.593 -8.844,4.831 -8.844,9.96c0,5.535 4.504,10.039 10.039,10.039l2.509,-0l0,14.282l-5.019,2.51l-0,8.304l2.51,-0l-0,-6.754l5.019,-2.509l-0,-18.343l-5.019,0c-4.153,0 -7.529,-3.376 -7.529,-7.529c-0,-4.152 3.376,-7.528 7.529,-7.528c0.734,-0 1.458,0.104 2.15,0.312l0.717,-2.405c-0.508,-0.151 -1.028,-0.252 -1.555,-0.322c0.594,-7.069 6.526,-12.643 13.745,-12.643c5.364,0 10.283,3.16 12.533,8.048l0.548,1.191l1.166,-0.598c1.436,-0.738 2.975,-1.112 4.575,-1.112c5.535,-0 10.038,4.503 10.038,10.038c0,0.037 -0.005,0.073 -0.006,0.109c-1.159,0.195 -2.255,0.655 -3.217,1.367l1.493,2.016c0.87,-0.642 1.901,-0.982 2.985,-0.982c2.768,-0 5.019,2.251 5.019,5.019c0,2.768 -2.251,5.019 -5.019,5.019l-32.624,0l-0,18.343l5.019,2.509l-0,6.754l2.509,-0l0,-8.304l-5.019,-2.51l0,-14.282l21.81,-0c-4.065,2.699 -6.752,7.314 -6.752,12.548c-0,8.303 6.754,15.057 15.057,15.057c8.303,0 15.058,-6.754 15.058,-15.057c-0,-6.631 -4.313,-12.262 -10.276,-14.266Zm-4.782,26.814c-6.919,-0 -12.548,-5.629 -12.548,-12.548c0,-6.919 5.629,-12.548 12.548,-12.548c6.919,-0 12.548,5.629 12.548,12.548c0,6.919 -5.629,12.548 -12.548,12.548Z" style="fill-rule:nonzero;"/><path d="M500.106,169.428c-5.535,0 -10.038,4.504 -10.038,10.039c-0,5.535 4.503,10.038 10.038,10.038c5.535,0 10.039,-4.503 10.039,-10.038c-0,-5.535 -4.504,-10.039 -10.039,-10.039Zm0,17.568c-4.152,-0 -7.529,-3.377 -7.529,-7.529c0,-4.152 3.377,-7.529 7.529,-7.529c4.152,0 7.529,3.377 7.529,7.529c-0,4.152 -3.377,7.529 -7.529,7.529Z" style="fill-rule:nonzero;"/><rect x="452.424" y="199.544" width="2.51" height="3.764" style="fill-rule:nonzero;"/><rect x="452.424" y="194.524" width="2.51" height="2.51" style="fill-rule:nonzero;"/><rect x="472.501" y="199.544" width="2.51" height="3.764" style="fill-rule:nonzero;"/><rect x="472.501" y="194.524" width="2.51" height="2.51" style="fill-rule:nonzero;"/><rect x="462.462" y="164.409" width="2.51" height="2.51" style="fill-rule:nonzero;"/><rect x="462.462" y="169.428" width="2.51" height="2.51" style="fill-rule:nonzero;"/><rect x="462.462" y="174.448" width="2.51" height="2.51" style="fill-rule:nonzero;"/><rect x="462.462" y="179.467" width="2.51" height="15.058" style="fill-rule:nonzero;"/><g><path d="M453.679,202.053c-2.076,0 -3.765,1.689 -3.765,3.765c0,2.075 1.689,3.764 3.765,3.764c2.075,-0 3.764,-1.689 3.764,-3.764c0,-2.076 -1.689,-3.765 -3.764,-3.765Z" style="fill:#f0bc5e;fill-rule:nonzero;"/><path d="M473.755,202.053c-2.075,0 -3.764,1.689 -3.764,3.765c0,2.075 1.689,3.764 3.764,3.764c2.076,-0 3.765,-1.689 3.765,-3.764c-0,-2.076 -1.689,-3.765 -3.765,-3.765Z" style="fill:#f0bc5e;fill-rule:nonzero;"/><path d="M463.717,193.27c-2.075,-0 -3.764,1.689 -3.764,3.764c-0,2.075 1.689,3.764 3.764,3.764c2.076,0 3.765,-1.689 3.765,-3.764c-0,-2.075 -1.689,-3.764 -3.765,-3.764Z" style="fill:#f0bc5e;fill-rule:nonzero;"/></g><path d="M111.97,11.928c0,-4.469 -3.627,-8.096 -8.096,-8.096l-74.689,-0c-4.468,-0 -8.096,3.627 -8.096,8.096l0,16.192c0,4.468 3.628,8.096 8.096,8.096l74.689,-0c4.469,-0 8.096,-3.628 8.096,-8.096l0,-16.192Z" style="fill:#2cad7c;stroke:#000;stroke-width:3px;"/><path d="M37.459,15.078l-0,9.905l1.318,0l-0,-4.231l3.218,0c0.324,0 0.583,0.049 0.777,0.146c0.194,0.097 0.352,0.226 0.472,0.388c0.12,0.162 0.208,0.352 0.264,0.569c0.055,0.217 0.101,0.446 0.138,0.687c0.047,0.24 0.074,0.485 0.084,0.735c0.009,0.25 0.018,0.483 0.027,0.701c0.01,0.217 0.03,0.414 0.063,0.589c0.032,0.176 0.094,0.315 0.187,0.416l1.471,0c-0.139,-0.166 -0.243,-0.358 -0.313,-0.575c-0.069,-0.218 -0.122,-0.447 -0.159,-0.687c-0.037,-0.24 -0.06,-0.486 -0.07,-0.735c-0.009,-0.25 -0.023,-0.495 -0.041,-0.736c-0.028,-0.24 -0.067,-0.471 -0.118,-0.693c-0.051,-0.222 -0.13,-0.423 -0.236,-0.604c-0.106,-0.18 -0.25,-0.335 -0.43,-0.464c-0.18,-0.13 -0.414,-0.222 -0.701,-0.278l0,-0.028c0.602,-0.166 1.039,-0.476 1.311,-0.929c0.273,-0.453 0.41,-0.98 0.41,-1.582c-0,-0.804 -0.266,-1.438 -0.798,-1.9c-0.532,-0.463 -1.269,-0.694 -2.213,-0.694l-4.661,0Zm4.065,4.564l-2.747,0l-0,-3.454l3.274,-0c0.62,-0 1.068,0.157 1.346,0.472c0.277,0.314 0.416,0.721 0.416,1.22c-0,0.361 -0.063,0.655 -0.188,0.881c-0.124,0.227 -0.291,0.407 -0.499,0.541c-0.208,0.135 -0.451,0.225 -0.728,0.271c-0.278,0.046 -0.569,0.069 -0.874,0.069Z" style="fill:#fff;fill-rule:nonzero;"/><path d="M46.962,15.078l-0,9.905l6.881,0l-0,-1.109l-5.563,-0l-0,-3.427l5.147,-0l-0,-1.11l-5.147,0l-0,-3.149l5.521,-0l0,-1.11l-6.839,0Z" style="fill:#fff;fill-rule:nonzero;"/><path d="M61.168,17.978l1.249,-0c-0.019,-0.546 -0.123,-1.015 -0.313,-1.409c-0.189,-0.393 -0.448,-0.719 -0.777,-0.978c-0.328,-0.259 -0.709,-0.448 -1.144,-0.568c-0.435,-0.121 -0.906,-0.181 -1.415,-0.181c-0.453,0 -0.895,0.058 -1.325,0.174c-0.43,0.115 -0.814,0.291 -1.151,0.527c-0.338,0.236 -0.609,0.536 -0.812,0.902c-0.203,0.365 -0.305,0.797 -0.305,1.297c-0,0.453 0.09,0.83 0.27,1.13c0.181,0.301 0.421,0.546 0.722,0.736c0.3,0.189 0.64,0.342 1.019,0.457c0.38,0.116 0.766,0.218 1.159,0.306c0.393,0.088 0.779,0.173 1.158,0.256c0.379,0.084 0.719,0.192 1.02,0.326c0.3,0.134 0.541,0.308 0.721,0.521c0.181,0.212 0.271,0.49 0.271,0.832c-0,0.361 -0.074,0.657 -0.222,0.888c-0.148,0.231 -0.342,0.414 -0.583,0.548c-0.24,0.134 -0.511,0.229 -0.811,0.284c-0.301,0.056 -0.599,0.083 -0.895,0.083c-0.37,0 -0.731,-0.046 -1.082,-0.138c-0.352,-0.093 -0.659,-0.236 -0.923,-0.43c-0.263,-0.195 -0.476,-0.442 -0.638,-0.743c-0.162,-0.3 -0.243,-0.659 -0.243,-1.075l-1.248,0c-0,0.601 0.108,1.122 0.326,1.561c0.217,0.439 0.513,0.8 0.887,1.082c0.375,0.282 0.81,0.493 1.305,0.631c0.494,0.139 1.019,0.208 1.574,0.208c0.453,0 0.909,-0.053 1.367,-0.159c0.457,-0.106 0.871,-0.278 1.241,-0.513c0.37,-0.236 0.673,-0.541 0.909,-0.916c0.236,-0.375 0.354,-0.825 0.354,-1.353c-0,-0.49 -0.09,-0.897 -0.271,-1.22c-0.18,-0.324 -0.421,-0.592 -0.721,-0.805c-0.301,-0.213 -0.641,-0.382 -1.02,-0.506c-0.379,-0.125 -0.765,-0.234 -1.158,-0.327c-0.393,-0.092 -0.779,-0.178 -1.159,-0.256c-0.379,-0.079 -0.719,-0.178 -1.019,-0.298c-0.301,-0.121 -0.541,-0.276 -0.722,-0.465c-0.18,-0.19 -0.27,-0.437 -0.27,-0.742c-0,-0.324 0.062,-0.595 0.187,-0.812c0.125,-0.217 0.291,-0.391 0.499,-0.52c0.209,-0.13 0.447,-0.222 0.715,-0.278c0.268,-0.055 0.541,-0.083 0.818,-0.083c0.685,0 1.247,0.16 1.686,0.479c0.439,0.319 0.696,0.834 0.77,1.547Z" style="fill:#fff;fill-rule:nonzero;"/><path d="M66.676,16.188l-0,8.795l1.318,0l-0,-8.795l3.301,-0l0,-1.11l-7.921,0l-0,1.11l3.302,-0Z" style="fill:#fff;fill-rule:nonzero;"/><path d="M77.954,20.891l1.679,-4.62l0.028,0l1.651,4.62l-3.358,-0Zm0.985,-5.813l-3.856,9.905l1.345,0l1.11,-2.982l4.19,-0l1.082,2.982l1.457,0l-3.871,-9.905l-1.457,0Z" style="fill:#fff;fill-rule:nonzero;"/><path d="M86.556,19.823l-0,-3.635l2.58,-0c0.749,-0 1.297,0.155 1.644,0.465c0.347,0.31 0.52,0.76 0.52,1.352c0,0.592 -0.173,1.045 -0.52,1.36c-0.347,0.314 -0.895,0.467 -1.644,0.458l-2.58,-0Zm-1.318,-4.745l-0,9.905l1.318,0l-0,-4.05l3.024,-0c0.999,0.009 1.755,-0.246 2.268,-0.763c0.514,-0.518 0.77,-1.24 0.77,-2.165c0,-0.925 -0.256,-1.644 -0.77,-2.157c-0.513,-0.513 -1.269,-0.77 -2.268,-0.77l-4.342,0Z" style="fill:#fff;fill-rule:nonzero;"/><rect x="94.283" y="15.078" width="1.318" height="9.905" style="fill:#fff;fill-rule:nonzero;"/><path d="M111.97,174.044c0,-4.468 -3.627,-8.096 -8.096,-8.096l-74.689,0c-4.468,0 -8.096,3.628 -8.096,8.096l0,16.192c0,4.469 3.628,8.096 8.096,8.096l74.689,0c4.469,0 8.096,-3.627 8.096,-8.096l0,-16.192Z" style="fill:#2cad7c;stroke:#000;stroke-width:3px;"/><path d="M46.407,187.1l2.65,-9.906l-1.318,0l-2.012,8.241l-0.028,-0l-2.191,-8.241l-1.429,0l-2.22,8.241l-0.028,-0l-1.942,-8.241l-1.346,0l2.539,9.906l1.373,-0l2.29,-8.324l0.027,-0l2.262,8.324l1.373,-0Z" style="fill:#fff;fill-rule:nonzero;"/><path d="M50.305,177.194l0,9.906l6.881,-0l0,-1.11l-5.563,-0l0,-3.427l5.147,0l0,-1.11l-5.147,0l0,-3.149l5.522,0l-0,-1.11l-6.84,0Z" style="fill:#fff;fill-rule:nonzero;"/><path d="M60.1,181.453l-0,-3.149l2.636,0c0.286,0 0.557,0.016 0.811,0.049c0.255,0.032 0.479,0.104 0.673,0.215c0.194,0.111 0.347,0.268 0.458,0.472c0.111,0.203 0.166,0.48 0.166,0.832c0,0.527 -0.164,0.922 -0.492,1.186c-0.329,0.264 -0.867,0.395 -1.616,0.395l-2.636,0Zm-1.318,-4.259l-0,9.906l4.786,-0c0.49,-0 0.923,-0.081 1.297,-0.243c0.375,-0.162 0.689,-0.375 0.943,-0.638c0.255,-0.264 0.447,-0.567 0.576,-0.909c0.13,-0.342 0.194,-0.694 0.194,-1.054c0,-0.611 -0.161,-1.129 -0.485,-1.554c-0.324,-0.425 -0.791,-0.703 -1.401,-0.832l-0,-0.028c0.471,-0.185 0.834,-0.469 1.089,-0.853c0.254,-0.384 0.381,-0.84 0.381,-1.367c0,-0.499 -0.113,-0.92 -0.34,-1.262c-0.226,-0.342 -0.501,-0.611 -0.825,-0.805c-0.148,-0.092 -0.326,-0.162 -0.534,-0.208c-0.208,-0.046 -0.433,-0.081 -0.673,-0.104c-0.241,-0.023 -0.483,-0.037 -0.728,-0.042c-0.245,-0.004 -0.474,-0.007 -0.687,-0.007l-3.593,0Zm1.318,8.796l-0,-3.427l3.01,0c0.278,0 0.546,0.026 0.805,0.077c0.259,0.05 0.488,0.138 0.687,0.263c0.198,0.125 0.358,0.294 0.478,0.507c0.12,0.212 0.181,0.48 0.181,0.804c-0,0.555 -0.165,0.99 -0.493,1.304c-0.328,0.315 -0.784,0.472 -1.366,0.472l-3.302,-0Z" style="fill:#fff;fill-rule:nonzero;"/><path d="M80.049,183.521l0,-6.327l-1.318,0l0,6.327c0,0.887 -0.219,1.56 -0.659,2.018c-0.439,0.458 -1.079,0.687 -1.921,0.687c-0.888,-0 -1.568,-0.229 -2.039,-0.687c-0.472,-0.458 -0.708,-1.131 -0.708,-2.018l0,-6.327l-1.318,0l0,6.327c0,1.322 0.358,2.286 1.075,2.892c0.717,0.606 1.714,0.909 2.99,0.909c1.248,-0 2.21,-0.317 2.885,-0.951c0.676,-0.633 1.013,-1.583 1.013,-2.85Z" style="fill:#fff;fill-rule:nonzero;"/><rect x="82.213" y="177.194" width="1.318" height="9.905" style="fill:#fff;fill-rule:nonzero;"/><path d="M171.331,52.047l1.812,5.576c0,-0 -5.843,-0.472 -5.843,-0.472c-0.825,-0.066 -1.549,0.549 -1.616,1.375c-0.066,0.825 0.549,1.549 1.375,1.615l8.086,0.653c0.5,0.04 0.987,-0.172 1.298,-0.566c0.31,-0.393 0.404,-0.916 0.249,-1.393l-2.508,-7.715c-0.256,-0.788 -1.103,-1.219 -1.89,-0.963c-0.788,0.256 -1.219,1.103 -0.963,1.89Z"/><path d="M131.17,26.383c-0,-0 34.214,27.023 43.166,34.093c0.649,0.513 1.593,0.402 2.107,-0.248c0.513,-0.649 0.402,-1.593 -0.248,-2.107c-8.951,-7.069 -43.166,-34.093 -43.166,-34.093c-0.65,-0.513 -1.594,-0.402 -2.107,0.248c-0.513,0.649 -0.402,1.593 0.248,2.107Z"/><path d="M166.709,163.145l5.806,0.814c-0,-0 -2.985,5.046 -2.985,5.046c-0.421,0.712 -0.185,1.633 0.528,2.054c0.713,0.422 1.633,0.185 2.055,-0.527l4.129,-6.983c0.256,-0.432 0.278,-0.962 0.061,-1.414c-0.218,-0.452 -0.647,-0.765 -1.144,-0.835l-8.034,-1.126c-0.819,-0.115 -1.578,0.457 -1.693,1.277c-0.115,0.82 0.457,1.579 1.277,1.694Z"/><path d="M124.643,188.673c0,0 40.508,-19.504 50.959,-24.536c0.746,-0.359 1.06,-1.256 0.701,-2.002c-0.36,-0.746 -1.257,-1.06 -2.003,-0.701c-10.451,5.032 -50.958,24.536 -50.958,24.536c-0.746,0.359 -1.06,1.257 -0.701,2.002c0.359,0.746 1.256,1.06 2.002,0.701Z"/><path d="M423.171,26.504l4.84,0.667c-0,-0 -2.477,4.211 -2.477,4.211c-0.349,0.595 -0.15,1.361 0.444,1.711c0.595,0.35 1.362,0.151 1.711,-0.444l3.427,-5.827c0.212,-0.361 0.23,-0.803 0.048,-1.179c-0.182,-0.376 -0.541,-0.636 -0.955,-0.693l-6.697,-0.922c-0.683,-0.094 -1.315,0.384 -1.409,1.068c-0.094,0.683 0.385,1.314 1.068,1.408Z"/><path d="M383.689,50.035c-0,0 37.656,-18.246 46.895,-22.722c0.621,-0.301 0.881,-1.049 0.58,-1.67c-0.301,-0.621 -1.049,-0.881 -1.67,-0.58c-9.239,4.477 -46.895,22.722 -46.895,22.722c-0.621,0.301 -0.881,1.049 -0.58,1.67c0.301,0.621 1.049,0.881 1.67,0.58Z"/><path d="M432.515,171.336l2.675,4.089c-0,-0 -4.803,0.896 -4.803,0.896c-0.678,0.127 -1.126,0.78 -0.999,1.458c0.126,0.678 0.779,1.126 1.458,1l6.645,-1.241c0.411,-0.076 0.757,-0.353 0.921,-0.738c0.164,-0.384 0.125,-0.825 -0.104,-1.175l-3.701,-5.657c-0.377,-0.578 -1.153,-0.74 -1.73,-0.362c-0.577,0.378 -0.74,1.153 -0.362,1.73Z"/><path d="M387.266,156.324c-0,-0 39.879,17.026 49.505,21.135c0.635,0.271 1.37,-0.024 1.641,-0.659c0.271,-0.634 -0.025,-1.369 -0.659,-1.64c-9.626,-4.11 -49.505,-21.135 -49.505,-21.135c-0.635,-0.271 -1.37,0.024 -1.641,0.658c-0.271,0.635 0.024,1.37 0.659,1.641Z"/><path d="M548.877,225.733l0.139,28.197l-547.516,0.555l-0,-32.635" style="fill:none;stroke:#000;stroke-width:3px;"/><path d="M230.342,259.052l0,12.852l1.71,0l0,-4.5l2.142,-1.998l4.644,6.498l2.16,0l-5.634,-7.668l5.418,-5.184l-2.214,0l-6.516,6.408l0,-6.408l-1.71,0Z" style="fill-rule:nonzero;"/><path d="M243.212,267.26c0,-0.564 0.075,-1.065 0.225,-1.503c0.15,-0.438 0.357,-0.807 0.621,-1.107c0.264,-0.3 0.573,-0.528 0.927,-0.684c0.354,-0.156 0.729,-0.234 1.125,-0.234c0.396,0 0.771,0.078 1.125,0.234c0.354,0.156 0.663,0.384 0.927,0.684c0.264,0.3 0.471,0.669 0.621,1.107c0.15,0.438 0.225,0.939 0.225,1.503c0,0.564 -0.075,1.065 -0.225,1.503c-0.15,0.438 -0.357,0.804 -0.621,1.098c-0.264,0.294 -0.573,0.519 -0.927,0.675c-0.354,0.156 -0.729,0.234 -1.125,0.234c-0.396,0 -0.771,-0.078 -1.125,-0.234c-0.354,-0.156 -0.663,-0.381 -0.927,-0.675c-0.264,-0.294 -0.471,-0.66 -0.621,-1.098c-0.15,-0.438 -0.225,-0.939 -0.225,-1.503Zm-1.62,0c0,0.684 0.096,1.32 0.288,1.908c0.192,0.588 0.48,1.101 0.864,1.539c0.384,0.438 0.858,0.78 1.422,1.026c0.564,0.246 1.212,0.369 1.944,0.369c0.744,0 1.395,-0.123 1.953,-0.369c0.558,-0.246 1.029,-0.588 1.413,-1.026c0.384,-0.438 0.672,-0.951 0.864,-1.539c0.192,-0.588 0.288,-1.224 0.288,-1.908c0,-0.684 -0.096,-1.323 -0.288,-1.917c-0.192,-0.594 -0.48,-1.11 -0.864,-1.548c-0.384,-0.438 -0.855,-0.783 -1.413,-1.035c-0.558,-0.252 -1.209,-0.378 -1.953,-0.378c-0.732,0 -1.38,0.126 -1.944,0.378c-0.564,0.252 -1.038,0.597 -1.422,1.035c-0.384,0.438 -0.672,0.954 -0.864,1.548c-0.192,0.594 -0.288,1.233 -0.288,1.917Z" style="fill-rule:nonzero;"/><path d="M252.428,262.598l0,9.306l1.53,0l0,-5.256c0,-0.42 0.057,-0.807 0.171,-1.161c0.114,-0.354 0.285,-0.663 0.513,-0.927c0.228,-0.264 0.513,-0.468 0.855,-0.612c0.342,-0.144 0.747,-0.216 1.215,-0.216c0.588,0 1.05,0.168 1.386,0.504c0.336,0.336 0.504,0.792 0.504,1.368l0,6.3l1.53,0l0,-6.12c0,-0.504 -0.051,-0.963 -0.153,-1.377c-0.102,-0.414 -0.279,-0.771 -0.531,-1.071c-0.252,-0.3 -0.582,-0.534 -0.99,-0.702c-0.408,-0.168 -0.918,-0.252 -1.53,-0.252c-1.38,0 -2.388,0.564 -3.024,1.692l-0.036,0l0,-1.476l-1.44,0Z" style="fill-rule:nonzero;"/><path d="M267.854,271.904l1.53,0l0,-9.306l-1.53,0l0,9.306Zm0,-10.98l1.53,0l0,-1.872l-1.53,0l0,1.872Zm-4.788,3.024l0,7.956l1.53,0l0,-7.956l1.8,0l0,-1.35l-1.8,0l0,-1.296c0,-0.408 0.102,-0.684 0.306,-0.828c0.204,-0.144 0.492,-0.216 0.864,-0.216c0.132,0 0.276,0.009 0.432,0.027c0.156,0.018 0.3,0.051 0.432,0.099l0,-1.332c-0.144,-0.048 -0.309,-0.084 -0.495,-0.108c-0.186,-0.024 -0.351,-0.036 -0.495,-0.036c-0.84,0 -1.479,0.195 -1.917,0.585c-0.438,0.39 -0.657,0.963 -0.657,1.719l0,1.386l-1.566,0l0,1.35l1.566,0Z" style="fill-rule:nonzero;"/><path d="M279.788,271.112l0,-8.514l-1.44,0l0,1.332l-0.018,0c-0.276,-0.516 -0.66,-0.903 -1.152,-1.161c-0.492,-0.258 -1.032,-0.387 -1.62,-0.387c-0.804,0 -1.482,0.153 -2.034,0.459c-0.552,0.306 -0.996,0.696 -1.332,1.17c-0.336,0.474 -0.576,1.002 -0.72,1.584c-0.144,0.582 -0.216,1.149 -0.216,1.701c0,0.636 0.087,1.239 0.261,1.809c0.174,0.57 0.435,1.068 0.783,1.494c0.348,0.426 0.78,0.765 1.296,1.017c0.516,0.252 1.122,0.378 1.818,0.378c0.6,0 1.167,-0.135 1.701,-0.405c0.534,-0.27 0.933,-0.693 1.197,-1.269l0.036,0l0,0.612c0,0.516 -0.051,0.99 -0.153,1.422c-0.102,0.432 -0.267,0.801 -0.495,1.107c-0.228,0.306 -0.516,0.546 -0.864,0.72c-0.348,0.174 -0.774,0.261 -1.278,0.261c-0.252,0 -0.516,-0.027 -0.792,-0.081c-0.276,-0.054 -0.531,-0.141 -0.765,-0.261c-0.234,-0.12 -0.432,-0.276 -0.594,-0.468c-0.162,-0.192 -0.249,-0.426 -0.261,-0.702l-1.53,0c0.024,0.504 0.156,0.93 0.396,1.278c0.24,0.348 0.543,0.63 0.909,0.846c0.366,0.216 0.774,0.372 1.224,0.468c0.45,0.096 0.891,0.144 1.323,0.144c1.488,0 2.58,-0.378 3.276,-1.134c0.696,-0.756 1.044,-1.896 1.044,-3.42Zm-4.284,-0.45c-0.504,0 -0.924,-0.105 -1.26,-0.315c-0.336,-0.21 -0.606,-0.486 -0.81,-0.828c-0.204,-0.342 -0.348,-0.723 -0.432,-1.143c-0.084,-0.42 -0.126,-0.84 -0.126,-1.26c0,-0.444 0.051,-0.87 0.153,-1.278c0.102,-0.408 0.264,-0.768 0.486,-1.08c0.222,-0.312 0.507,-0.561 0.855,-0.747c0.348,-0.186 0.768,-0.279 1.26,-0.279c0.48,0 0.888,0.096 1.224,0.288c0.336,0.192 0.609,0.447 0.819,0.765c0.21,0.318 0.363,0.675 0.459,1.071c0.096,0.396 0.144,0.798 0.144,1.206c0,0.432 -0.051,0.864 -0.153,1.296c-0.102,0.432 -0.261,0.819 -0.477,1.161c-0.216,0.342 -0.501,0.618 -0.855,0.828c-0.354,0.21 -0.783,0.315 -1.287,0.315Z" style="fill-rule:nonzero;"/><path d="M289.796,271.904l0,-9.306l-1.53,0l0,5.256c0,0.42 -0.057,0.807 -0.171,1.161c-0.114,0.354 -0.285,0.663 -0.513,0.927c-0.228,0.264 -0.513,0.468 -0.855,0.612c-0.342,0.144 -0.747,0.216 -1.215,0.216c-0.588,0 -1.05,-0.168 -1.386,-0.504c-0.336,-0.336 -0.504,-0.792 -0.504,-1.368l0,-6.3l-1.53,0l0,6.12c0,0.504 0.051,0.963 0.153,1.377c0.102,0.414 0.279,0.771 0.531,1.071c0.252,0.3 0.582,0.531 0.99,0.693c0.408,0.162 0.918,0.243 1.53,0.243c0.684,0 1.278,-0.135 1.782,-0.405c0.504,-0.27 0.918,-0.693 1.242,-1.269l0.036,0l0,1.476l1.44,0Z" style="fill-rule:nonzero;"/><path d="M292.046,262.598l0,9.306l1.53,0l0,-4.14c0,-0.6 0.06,-1.131 0.18,-1.593c0.12,-0.462 0.312,-0.855 0.576,-1.179c0.264,-0.324 0.612,-0.57 1.044,-0.738c0.432,-0.168 0.954,-0.252 1.566,-0.252l0,-1.62c-0.828,-0.024 -1.512,0.144 -2.052,0.504c-0.54,0.36 -0.996,0.918 -1.368,1.674l-0.036,0l0,-1.962l-1.44,0Z" style="fill-rule:nonzero;"/><path d="M306.338,271.868c-0.264,0.156 -0.63,0.234 -1.098,0.234c-0.396,0 -0.711,-0.111 -0.945,-0.333c-0.234,-0.222 -0.351,-0.585 -0.351,-1.089c-0.42,0.504 -0.909,0.867 -1.467,1.089c-0.558,0.222 -1.161,0.333 -1.809,0.333c-0.42,0 -0.819,-0.048 -1.197,-0.144c-0.378,-0.096 -0.705,-0.246 -0.981,-0.45c-0.276,-0.204 -0.495,-0.471 -0.657,-0.801c-0.162,-0.33 -0.243,-0.729 -0.243,-1.197c0,-0.528 0.09,-0.96 0.27,-1.296c0.18,-0.336 0.417,-0.609 0.711,-0.819c0.294,-0.21 0.63,-0.369 1.008,-0.477c0.378,-0.108 0.765,-0.198 1.161,-0.27c0.42,-0.084 0.819,-0.147 1.197,-0.189c0.378,-0.042 0.711,-0.102 0.999,-0.18c0.288,-0.078 0.516,-0.192 0.684,-0.342c0.168,-0.15 0.252,-0.369 0.252,-0.657c0,-0.336 -0.063,-0.606 -0.189,-0.81c-0.126,-0.204 -0.288,-0.36 -0.486,-0.468c-0.198,-0.108 -0.42,-0.18 -0.666,-0.216c-0.246,-0.036 -0.489,-0.054 -0.729,-0.054c-0.648,0 -1.188,0.123 -1.62,0.369c-0.432,0.246 -0.666,0.711 -0.702,1.395l-1.53,0c0.024,-0.576 0.144,-1.062 0.36,-1.458c0.216,-0.396 0.504,-0.717 0.864,-0.963c0.36,-0.246 0.771,-0.423 1.233,-0.531c0.462,-0.108 0.957,-0.162 1.485,-0.162c0.42,0 0.837,0.03 1.251,0.09c0.414,0.06 0.789,0.183 1.125,0.369c0.336,0.186 0.606,0.447 0.81,0.783c0.204,0.336 0.306,0.774 0.306,1.314l0,4.788c0,0.36 0.021,0.624 0.063,0.792c0.042,0.168 0.183,0.252 0.423,0.252c0.132,0 0.288,-0.03 0.468,-0.09l0,1.188Zm-2.484,-4.77c-0.192,0.144 -0.444,0.249 -0.756,0.315c-0.312,0.066 -0.639,0.12 -0.981,0.162c-0.342,0.042 -0.687,0.09 -1.035,0.144c-0.348,0.054 -0.66,0.141 -0.936,0.261c-0.276,0.12 -0.501,0.291 -0.675,0.513c-0.174,0.222 -0.261,0.525 -0.261,0.909c0,0.252 0.051,0.465 0.153,0.639c0.102,0.174 0.234,0.315 0.396,0.423c0.162,0.108 0.351,0.186 0.567,0.234c0.216,0.048 0.444,0.072 0.684,0.072c0.504,0 0.936,-0.069 1.296,-0.207c0.36,-0.138 0.654,-0.312 0.882,-0.522c0.228,-0.21 0.396,-0.438 0.504,-0.684c0.108,-0.246 0.162,-0.477 0.162,-0.693l0,-1.566Z" style="fill-rule:nonzero;"/><path d="M308.696,268.97l-1.53,0c0.024,0.576 0.144,1.065 0.36,1.467c0.216,0.402 0.504,0.726 0.864,0.972c0.36,0.246 0.774,0.423 1.242,0.531c0.468,0.108 0.96,0.162 1.476,0.162c0.468,0 0.939,-0.045 1.413,-0.135c0.474,-0.09 0.9,-0.249 1.278,-0.477c0.378,-0.228 0.684,-0.528 0.918,-0.9c0.234,-0.372 0.351,-0.84 0.351,-1.404c0,-0.444 -0.087,-0.816 -0.261,-1.116c-0.174,-0.3 -0.402,-0.549 -0.684,-0.747c-0.282,-0.198 -0.606,-0.357 -0.972,-0.477c-0.366,-0.12 -0.741,-0.222 -1.125,-0.306c-0.36,-0.084 -0.72,-0.165 -1.08,-0.243c-0.36,-0.078 -0.684,-0.174 -0.972,-0.288c-0.288,-0.114 -0.525,-0.258 -0.711,-0.432c-0.186,-0.174 -0.279,-0.393 -0.279,-0.657c0,-0.24 0.06,-0.435 0.18,-0.585c0.12,-0.15 0.276,-0.27 0.468,-0.36c0.192,-0.09 0.405,-0.153 0.639,-0.189c0.234,-0.036 0.465,-0.054 0.693,-0.054c0.252,0 0.501,0.027 0.747,0.081c0.246,0.054 0.471,0.141 0.675,0.261c0.204,0.12 0.372,0.279 0.504,0.477c0.132,0.198 0.21,0.447 0.234,0.747l1.53,0c-0.036,-0.564 -0.156,-1.035 -0.36,-1.413c-0.204,-0.378 -0.477,-0.678 -0.819,-0.9c-0.342,-0.222 -0.735,-0.378 -1.179,-0.468c-0.444,-0.09 -0.93,-0.135 -1.458,-0.135c-0.408,0 -0.819,0.051 -1.233,0.153c-0.414,0.102 -0.786,0.258 -1.116,0.468c-0.33,0.21 -0.6,0.483 -0.81,0.819c-0.21,0.336 -0.315,0.738 -0.315,1.206c0,0.6 0.15,1.068 0.45,1.404c0.3,0.336 0.675,0.597 1.125,0.783c0.45,0.186 0.939,0.33 1.467,0.432c0.528,0.102 1.017,0.216 1.467,0.342c0.45,0.126 0.825,0.291 1.125,0.495c0.3,0.204 0.45,0.504 0.45,0.9c0,0.288 -0.072,0.525 -0.216,0.711c-0.144,0.186 -0.327,0.327 -0.549,0.423c-0.222,0.096 -0.465,0.162 -0.729,0.198c-0.264,0.036 -0.516,0.054 -0.756,0.054c-0.312,0 -0.615,-0.03 -0.909,-0.09c-0.294,-0.06 -0.558,-0.159 -0.792,-0.297c-0.234,-0.138 -0.423,-0.324 -0.567,-0.558c-0.144,-0.234 -0.222,-0.519 -0.234,-0.855Z" style="fill-rule:nonzero;"/><path d="M318.38,260.924l0,-1.872l-1.53,0l0,1.872l1.53,0Zm-1.53,1.674l0,9.306l1.53,0l0,-9.306l-1.53,0Z" style="fill-rule:nonzero;"/></svg>