<?xml version="1.0" encoding="UTF-8" standalone="no"?><!DOCTYPE svg PUBLIC "-//W3C//DTD SVG 1.1//EN" "http://www.w3.org/Graphics/SVG/1.1/DTD/svg11.dtd"><svg width="100%" height="100%" viewBox="0 0 291 291" version="1.1" xmlns="http://www.w3.org/2000/svg" xmlns:xlink="http://www.w3.org/1999/xlink" xml:space="preserve" xmlns:serif="http://www.serif.com/" style="fill-rule:evenodd;clip-rule:evenodd;stroke-linecap:round;stroke-linejoin:round;stroke-miterlimit:1.5;"><circle cx="145.459" cy="145.459" r="145.009" style="fill:#f1a21b;stroke:#191616;stroke-width:0.9px;"/><path d="M145.459,35.374l0,220.17c-60.757,0 -110.085,-49.327 -110.085,-110.085c0,-60.757 49.328,-110.085 110.085,-110.085Z" style="fill:#ceddbb;stroke:#191616;stroke-width:1px;"/><path d="M145.459,255.544l0,-220.17c60.758,0 110.085,49.328 110.085,110.085c0,60.758 -49.327,110.085 -110.085,110.085Z" style="fill:#9cc6f3;stroke:#191616;stroke-width:1px;"/><circle cx="145.459" cy="145.459" r="69.634" style="fill:#d7cccc;stroke:#191616;stroke-width:0.9px;"/><g transform="matrix(1,0,0,1,-244.709,-127.32)"><g transform="matrix(0.747454,-0.664313,0.664313,0.747454,-72.0142,297.947)"><g transform="matrix(18,0,0,18,355.863,243.689)"><path d="M0.619,-0.27c0,0.039 -0.005,0.075 -0.014,0.11c-0.01,0.035 -0.025,0.065 -0.046,0.092c-0.021,0.026 -0.049,0.047 -0.083,0.063c-0.034,0.015 -0.075,0.023 -0.124,0.023c-0.049,0 -0.09,-0.008 -0.124,-0.023c-0.034,-0.016 -0.061,-0.037 -0.082,-0.063c-0.021,-0.027 -0.037,-0.057 -0.046,-0.092c-0.01,-0.035 -0.015,-0.071 -0.015,-0.11l0,-0.438l0.084,0l0,0.426c0,0.029 0.003,0.056 0.009,0.083c0.006,0.027 0.016,0.05 0.03,0.071c0.014,0.021 0.033,0.037 0.056,0.049c0.023,0.013 0.053,0.019 0.088,0.019c0.035,-0 0.065,-0.006 0.088,-0.019c0.023,-0.012 0.042,-0.028 0.056,-0.049c0.014,-0.021 0.024,-0.044 0.03,-0.071c0.006,-0.027 0.009,-0.054 0.009,-0.083l0,-0.426l0.084,0l0,0.438Z" style="fill-rule:nonzero;"/></g></g><g transform="matrix(0.876794,-0.480866,0.480866,0.876794,-68.2006,204.787)"><g transform="matrix(18,0,0,18,365.537,235.485)"><path d="M0.084,-0.123c0.015,0.019 0.032,0.035 0.051,0.046c0.018,0.011 0.041,0.017 0.069,0.017c0.012,0 0.024,-0.001 0.036,-0.004c0.013,-0.003 0.024,-0.007 0.034,-0.013c0.01,-0.006 0.018,-0.014 0.024,-0.023c0.006,-0.008 0.009,-0.019 0.009,-0.032c-0,-0.013 -0.003,-0.023 -0.009,-0.031c-0.005,-0.008 -0.013,-0.015 -0.022,-0.02c-0.009,-0.006 -0.02,-0.011 -0.032,-0.014c-0.012,-0.003 -0.024,-0.006 -0.037,-0.009c-0.022,-0.005 -0.043,-0.01 -0.063,-0.016c-0.02,-0.006 -0.038,-0.014 -0.053,-0.023c-0.015,-0.01 -0.027,-0.023 -0.036,-0.038c-0.009,-0.015 -0.013,-0.035 -0.013,-0.059c-0,-0.023 0.005,-0.043 0.015,-0.06c0.01,-0.017 0.023,-0.032 0.04,-0.043c0.017,-0.011 0.035,-0.02 0.056,-0.026c0.021,-0.006 0.042,-0.009 0.064,-0.009c0.033,0 0.064,0.007 0.092,0.02c0.029,0.013 0.051,0.035 0.067,0.065l-0.065,0.043c-0.01,-0.017 -0.023,-0.03 -0.04,-0.04c-0.016,-0.011 -0.036,-0.016 -0.059,-0.016c-0.011,-0 -0.022,0.001 -0.033,0.004c-0.011,0.003 -0.02,0.007 -0.029,0.012c-0.009,0.005 -0.016,0.012 -0.022,0.021c-0.005,0.008 -0.008,0.017 -0.008,0.028c-0,0.01 0.003,0.018 0.009,0.025c0.007,0.007 0.015,0.014 0.026,0.019c0.011,0.005 0.024,0.01 0.038,0.014c0.015,0.004 0.03,0.007 0.045,0.01c0.021,0.004 0.04,0.009 0.059,0.015c0.019,0.007 0.035,0.015 0.049,0.026c0.014,0.011 0.025,0.024 0.033,0.04c0.008,0.016 0.012,0.036 0.012,0.059c-0,0.027 -0.005,0.049 -0.016,0.068c-0.011,0.019 -0.025,0.034 -0.043,0.045c-0.017,0.012 -0.037,0.021 -0.06,0.026c-0.022,0.005 -0.045,0.008 -0.068,0.008c-0.04,-0 -0.075,-0.006 -0.104,-0.019c-0.029,-0.012 -0.055,-0.035 -0.078,-0.068l0.062,-0.048Z" style="fill-rule:nonzero;"/></g></g><g transform="matrix(0.955491,-0.295021,0.295021,0.955491,-51.7845,120.133)"><g transform="matrix(18,0,0,18,372.246,231.688)"><path d="M0.492,-0.085c-0.028,0.036 -0.059,0.061 -0.092,0.076c-0.033,0.014 -0.072,0.021 -0.116,0.021c-0.037,0 -0.07,-0.006 -0.099,-0.019c-0.029,-0.013 -0.054,-0.031 -0.075,-0.053c-0.02,-0.022 -0.036,-0.048 -0.047,-0.078c-0.011,-0.03 -0.016,-0.062 -0.016,-0.096c-0,-0.036 0.006,-0.069 0.018,-0.1c0.012,-0.03 0.029,-0.056 0.05,-0.078c0.021,-0.021 0.047,-0.038 0.076,-0.05c0.029,-0.012 0.061,-0.018 0.096,-0.018c0.033,0 0.063,0.006 0.09,0.017c0.027,0.011 0.051,0.026 0.071,0.047c0.019,0.022 0.034,0.047 0.045,0.078c0.011,0.03 0.016,0.064 0.016,0.103l0,0.025l-0.378,0c0.001,0.02 0.006,0.039 0.014,0.058c0.009,0.018 0.02,0.034 0.033,0.048c0.013,0.013 0.029,0.024 0.047,0.032c0.018,0.008 0.038,0.012 0.059,0.012c0.034,0 0.063,-0.006 0.086,-0.018c0.023,-0.012 0.044,-0.03 0.063,-0.053l0.059,0.046Zm-0.067,-0.191c-0.001,-0.04 -0.014,-0.072 -0.039,-0.096c-0.025,-0.024 -0.059,-0.036 -0.102,-0.036c-0.043,-0 -0.078,0.012 -0.105,0.036c-0.027,0.024 -0.043,0.056 -0.048,0.096l0.294,0Z" style="fill-rule:nonzero;"/></g></g><g transform="matrix(0.997515,0.0704477,-0.0704477,0.997515,17.0157,-26.6874)"><g transform="matrix(18,0,0,18,386.863,227.892)"><path d="M0.584,-0.562c-0.021,-0.029 -0.048,-0.05 -0.079,-0.065c-0.031,-0.014 -0.064,-0.021 -0.098,-0.021c-0.039,0 -0.076,0.008 -0.109,0.024c-0.033,0.016 -0.061,0.037 -0.085,0.065c-0.024,0.026 -0.043,0.058 -0.056,0.093c-0.013,0.036 -0.02,0.073 -0.02,0.112c-0,0.041 0.007,0.08 0.02,0.115c0.013,0.036 0.032,0.067 0.055,0.094c0.024,0.026 0.052,0.047 0.085,0.062c0.033,0.015 0.07,0.023 0.11,0.023c0.043,-0 0.082,-0.009 0.116,-0.026c0.034,-0.017 0.064,-0.041 0.089,-0.073l0.063,0.053c-0.032,0.043 -0.071,0.074 -0.116,0.094c-0.045,0.02 -0.095,0.03 -0.152,0.03c-0.051,-0 -0.098,-0.009 -0.142,-0.028c-0.044,-0.019 -0.082,-0.045 -0.115,-0.078c-0.032,-0.033 -0.057,-0.072 -0.076,-0.117c-0.018,-0.045 -0.027,-0.095 -0.027,-0.149c-0,-0.052 0.009,-0.101 0.026,-0.146c0.018,-0.045 0.043,-0.085 0.075,-0.118c0.032,-0.033 0.07,-0.06 0.114,-0.079c0.044,-0.019 0.092,-0.029 0.145,-0.029c0.048,0 0.094,0.009 0.138,0.026c0.045,0.017 0.082,0.046 0.112,0.085l-0.073,0.053Z" style="fill-rule:nonzero;"/></g></g><g transform="matrix(0.951761,0.306839,-0.306839,0.951761,89.5335,-111.541)"><g transform="matrix(18,0,0,18,399.514,228.985)"><path d="M0.068,-0.408c0.024,-0.025 0.053,-0.043 0.085,-0.054c0.033,-0.012 0.067,-0.018 0.101,-0.018c0.069,0 0.119,0.016 0.15,0.049c0.031,0.033 0.046,0.082 0.046,0.149l0,0.201c0,0.013 0.001,0.027 0.002,0.042c0.001,0.014 0.003,0.027 0.005,0.039l-0.075,0c-0.003,-0.011 -0.004,-0.022 -0.005,-0.035c0,-0.013 0,-0.025 0,-0.035l-0.002,0c-0.015,0.024 -0.036,0.044 -0.062,0.059c-0.025,0.015 -0.056,0.023 -0.092,0.023c-0.024,0 -0.047,-0.003 -0.068,-0.009c-0.021,-0.006 -0.039,-0.015 -0.054,-0.026c-0.016,-0.012 -0.029,-0.027 -0.038,-0.044c-0.009,-0.017 -0.014,-0.037 -0.014,-0.06c0,-0.039 0.01,-0.069 0.03,-0.091c0.02,-0.022 0.045,-0.038 0.074,-0.049c0.03,-0.011 0.062,-0.017 0.096,-0.02c0.035,-0.003 0.066,-0.004 0.095,-0.004l0.03,0l0,-0.014c0,-0.034 -0.01,-0.06 -0.03,-0.077c-0.021,-0.017 -0.049,-0.026 -0.086,-0.026c-0.025,0 -0.05,0.004 -0.074,0.013c-0.025,0.008 -0.046,0.021 -0.065,0.038l-0.049,-0.051Zm0.226,0.183c-0.05,0 -0.09,0.007 -0.119,0.021c-0.029,0.014 -0.044,0.037 -0.044,0.069c0,0.029 0.01,0.05 0.03,0.063c0.019,0.012 0.044,0.018 0.073,0.018c0.023,0 0.043,-0.004 0.06,-0.011c0.017,-0.008 0.031,-0.018 0.042,-0.031c0.011,-0.013 0.02,-0.027 0.026,-0.044c0.006,-0.017 0.009,-0.036 0.01,-0.055l0,-0.03l-0.078,0Z" style="fill-rule:nonzero;"/></g></g><g transform="matrix(0.8757,0.482855,-0.482855,0.8757,162.76,-168.353)"><g transform="matrix(18,0,0,18,408.373,231.952)"><path d="M0.084,-0.123c0.015,0.019 0.032,0.035 0.051,0.046c0.018,0.011 0.041,0.017 0.069,0.017c0.012,0 0.024,-0.001 0.036,-0.004c0.013,-0.003 0.024,-0.007 0.034,-0.013c0.01,-0.006 0.018,-0.014 0.024,-0.023c0.006,-0.008 0.009,-0.019 0.009,-0.032c-0,-0.013 -0.003,-0.023 -0.009,-0.031c-0.005,-0.008 -0.013,-0.015 -0.022,-0.02c-0.009,-0.006 -0.02,-0.011 -0.032,-0.014c-0.012,-0.003 -0.024,-0.006 -0.037,-0.009c-0.022,-0.005 -0.043,-0.01 -0.063,-0.016c-0.02,-0.006 -0.038,-0.014 -0.053,-0.023c-0.015,-0.01 -0.027,-0.023 -0.036,-0.038c-0.009,-0.015 -0.013,-0.035 -0.013,-0.059c-0,-0.023 0.005,-0.043 0.015,-0.06c0.01,-0.017 0.023,-0.032 0.04,-0.043c0.017,-0.011 0.035,-0.02 0.056,-0.026c0.021,-0.006 0.042,-0.009 0.064,-0.009c0.033,0 0.064,0.007 0.092,0.02c0.029,0.013 0.051,0.035 0.067,0.065l-0.065,0.043c-0.01,-0.017 -0.023,-0.03 -0.04,-0.04c-0.016,-0.011 -0.036,-0.016 -0.059,-0.016c-0.011,-0 -0.022,0.001 -0.033,0.004c-0.011,0.003 -0.02,0.007 -0.029,0.012c-0.009,0.005 -0.016,0.012 -0.022,0.021c-0.005,0.008 -0.008,0.017 -0.008,0.028c-0,0.01 0.003,0.018 0.009,0.025c0.007,0.007 0.015,0.014 0.026,0.019c0.011,0.005 0.024,0.01 0.038,0.014c0.015,0.004 0.03,0.007 0.045,0.01c0.021,0.004 0.04,0.009 0.059,0.015c0.019,0.007 0.035,0.015 0.049,0.026c0.014,0.011 0.025,0.024 0.033,0.04c0.008,0.016 0.012,0.036 0.012,0.059c-0,0.027 -0.005,0.049 -0.016,0.068c-0.011,0.019 -0.025,0.034 -0.043,0.045c-0.017,0.012 -0.037,0.021 -0.06,0.026c-0.022,0.005 -0.045,0.008 -0.068,0.008c-0.04,-0 -0.075,-0.006 -0.104,-0.019c-0.029,-0.012 -0.055,-0.035 -0.078,-0.068l0.062,-0.048Z" style="fill-rule:nonzero;"/></g></g><g transform="matrix(0.762118,0.647438,-0.647438,0.762118,251.286,-212.754)"><g transform="matrix(18,0,0,18,415.167,235.583)"><path d="M0.492,-0.085c-0.028,0.036 -0.059,0.061 -0.092,0.076c-0.033,0.014 -0.072,0.021 -0.116,0.021c-0.037,0 -0.07,-0.006 -0.099,-0.019c-0.029,-0.013 -0.054,-0.031 -0.075,-0.053c-0.02,-0.022 -0.036,-0.048 -0.047,-0.078c-0.011,-0.03 -0.016,-0.062 -0.016,-0.096c-0,-0.036 0.006,-0.069 0.018,-0.1c0.012,-0.03 0.029,-0.056 0.05,-0.078c0.021,-0.021 0.047,-0.038 0.076,-0.05c0.029,-0.012 0.061,-0.018 0.096,-0.018c0.033,0 0.063,0.006 0.09,0.017c0.027,0.011 0.051,0.026 0.071,0.047c0.019,0.022 0.034,0.047 0.045,0.078c0.011,0.03 0.016,0.064 0.016,0.103l0,0.025l-0.378,0c0.001,0.02 0.006,0.039 0.014,0.058c0.009,0.018 0.02,0.034 0.033,0.048c0.013,0.013 0.029,0.024 0.047,0.032c0.018,0.008 0.038,0.012 0.059,0.012c0.034,0 0.063,-0.006 0.086,-0.018c0.023,-0.012 0.044,-0.03 0.063,-0.053l0.059,0.046Zm-0.067,-0.191c-0.001,-0.04 -0.014,-0.072 -0.039,-0.096c-0.025,-0.024 -0.059,-0.036 -0.102,-0.036c-0.043,-0 -0.078,0.012 -0.105,0.036c-0.027,0.024 -0.043,0.056 -0.048,0.096l0.294,0Z" style="fill-rule:nonzero;"/></g></g></g><circle cx="145.459" cy="145.459" r="37.186" style="fill:#f2d6a4;stroke:#191616;stroke-width:1px;"/><path d="M121.041,140.062l7.396,-0l0,2.214l-4.997,0l-0,2.03l4.72,-0l0,2.214l-4.72,0l-0,2.214l5.274,0l-0,2.215l-7.673,-0l-0,-10.887Z" style="fill-rule:nonzero;"/><path d="M130.344,143.476l2.214,-0l0,1.014l0.031,0c0.072,-0.143 0.174,-0.287 0.307,-0.43c0.134,-0.144 0.292,-0.272 0.477,-0.385c0.184,-0.112 0.395,-0.205 0.63,-0.276c0.236,-0.072 0.492,-0.108 0.769,-0.108c0.585,-0 1.056,0.09 1.415,0.269c0.359,0.179 0.638,0.428 0.838,0.746c0.2,0.318 0.336,0.692 0.407,1.122c0.072,0.431 0.108,0.897 0.108,1.4l0,4.121l-2.306,-0l-0,-3.66c-0,-0.215 -0.008,-0.438 -0.024,-0.669c-0.015,-0.231 -0.061,-0.443 -0.138,-0.638c-0.077,-0.195 -0.195,-0.354 -0.354,-0.477c-0.158,-0.123 -0.387,-0.184 -0.684,-0.184c-0.297,-0 -0.538,0.054 -0.723,0.161c-0.184,0.108 -0.325,0.251 -0.422,0.431c-0.098,0.179 -0.162,0.382 -0.193,0.607c-0.03,0.226 -0.046,0.461 -0.046,0.707l0,3.722l-2.306,-0l-0,-7.473Z" style="fill-rule:nonzero;"/><path d="M144.26,145.321l-2.03,-0l-0,2.491c-0,0.205 0.01,0.392 0.031,0.561c0.02,0.169 0.066,0.315 0.138,0.438c0.072,0.123 0.182,0.218 0.331,0.285c0.148,0.066 0.346,0.1 0.592,0.1c0.123,-0 0.284,-0.013 0.484,-0.039c0.2,-0.025 0.351,-0.084 0.454,-0.177l-0,1.922c-0.257,0.093 -0.523,0.154 -0.8,0.185c-0.277,0.031 -0.548,0.046 -0.815,0.046c-0.389,0 -0.748,-0.041 -1.076,-0.123c-0.328,-0.082 -0.615,-0.213 -0.861,-0.392c-0.246,-0.179 -0.439,-0.413 -0.577,-0.7c-0.138,-0.287 -0.208,-0.635 -0.208,-1.045l0,-3.552l-1.476,-0l0,-1.845l1.476,-0l0,-2.215l2.307,0l-0,2.215l2.03,-0l-0,1.845Z" style="fill-rule:nonzero;"/><path d="M145.459,143.476l2.307,-0l-0,7.473l-2.307,-0l0,-7.473Zm-0.184,-2.353c-0,-0.369 0.13,-0.684 0.392,-0.946c0.261,-0.261 0.576,-0.392 0.945,-0.392c0.369,0 0.685,0.131 0.946,0.392c0.261,0.262 0.392,0.577 0.392,0.946c0,0.369 -0.131,0.684 -0.392,0.946c-0.261,0.261 -0.577,0.392 -0.946,0.392c-0.369,-0 -0.684,-0.131 -0.945,-0.392c-0.262,-0.262 -0.392,-0.577 -0.392,-0.946Z" style="fill-rule:nonzero;"/><path d="M154.516,145.321l-2.03,-0l0,2.491c0,0.205 0.011,0.392 0.031,0.561c0.021,0.169 0.067,0.315 0.138,0.438c0.072,0.123 0.182,0.218 0.331,0.285c0.149,0.066 0.346,0.1 0.592,0.1c0.123,-0 0.285,-0.013 0.484,-0.039c0.2,-0.025 0.352,-0.084 0.454,-0.177l0,1.922c-0.256,0.093 -0.523,0.154 -0.8,0.185c-0.276,0.031 -0.548,0.046 -0.815,0.046c-0.389,0 -0.748,-0.041 -1.076,-0.123c-0.328,-0.082 -0.615,-0.213 -0.861,-0.392c-0.246,-0.179 -0.438,-0.413 -0.577,-0.7c-0.138,-0.287 -0.207,-0.635 -0.207,-1.045l-0,-3.552l-1.476,-0l-0,-1.845l1.476,-0l-0,-2.215l2.306,0l0,2.215l2.03,-0l0,1.845Z" style="fill-rule:nonzero;"/><path d="M160.375,150.011l-0.031,-0c-0.256,0.399 -0.597,0.686 -1.023,0.861c-0.425,0.174 -0.874,0.261 -1.345,0.261c-0.349,0 -0.684,-0.049 -1.007,-0.146c-0.323,-0.097 -0.608,-0.243 -0.854,-0.438c-0.246,-0.195 -0.441,-0.436 -0.584,-0.723c-0.144,-0.287 -0.215,-0.62 -0.215,-0.999c-0,-0.431 0.079,-0.795 0.238,-1.092c0.159,-0.297 0.374,-0.543 0.646,-0.738c0.271,-0.195 0.582,-0.346 0.93,-0.454c0.349,-0.107 0.71,-0.187 1.084,-0.238c0.374,-0.051 0.748,-0.082 1.123,-0.092c0.374,-0.011 0.72,-0.016 1.038,-0.016c-0,-0.41 -0.147,-0.735 -0.439,-0.976c-0.292,-0.241 -0.638,-0.362 -1.038,-0.362c-0.379,0 -0.725,0.08 -1.038,0.239c-0.312,0.159 -0.592,0.376 -0.838,0.653l-1.23,-1.261c0.431,-0.399 0.933,-0.699 1.507,-0.899c0.574,-0.2 1.169,-0.3 1.784,-0.3c0.676,-0 1.233,0.085 1.668,0.254c0.436,0.169 0.785,0.417 1.046,0.745c0.261,0.329 0.443,0.731 0.546,1.208c0.102,0.476 0.154,1.027 0.154,1.653l-0,3.798l-2.122,-0l-0,-0.938Zm-0.569,-2.338c-0.175,0 -0.392,0.008 -0.654,0.023c-0.261,0.016 -0.512,0.059 -0.753,0.131c-0.241,0.072 -0.446,0.18 -0.615,0.323c-0.17,0.144 -0.254,0.343 -0.254,0.6c-0,0.277 0.118,0.482 0.354,0.615c0.235,0.133 0.481,0.2 0.738,0.2c0.225,-0 0.443,-0.031 0.653,-0.093c0.21,-0.061 0.397,-0.148 0.561,-0.261c0.164,-0.113 0.295,-0.256 0.392,-0.431c0.098,-0.174 0.147,-0.379 0.147,-0.615l-0,-0.492l-0.569,0Z" style="fill-rule:nonzero;"/><path d="M168.171,145.674c-0.339,-0.42 -0.785,-0.63 -1.338,-0.63c-0.195,-0 -0.385,0.046 -0.569,0.138c-0.185,0.093 -0.277,0.251 -0.277,0.477c0,0.185 0.095,0.32 0.285,0.407c0.189,0.088 0.43,0.165 0.722,0.231c0.292,0.067 0.605,0.139 0.938,0.215c0.333,0.077 0.646,0.198 0.938,0.362c0.292,0.164 0.533,0.387 0.723,0.669c0.19,0.282 0.284,0.658 0.284,1.13c0,0.482 -0.105,0.879 -0.315,1.192c-0.21,0.312 -0.479,0.563 -0.807,0.753c-0.328,0.19 -0.697,0.323 -1.107,0.4c-0.41,0.077 -0.815,0.115 -1.215,0.115c-0.523,0 -1.051,-0.074 -1.584,-0.223c-0.533,-0.148 -0.984,-0.412 -1.353,-0.792l1.399,-1.553c0.216,0.267 0.454,0.469 0.715,0.608c0.262,0.138 0.567,0.207 0.915,0.207c0.267,0 0.508,-0.038 0.723,-0.115c0.215,-0.077 0.323,-0.218 0.323,-0.423c-0,-0.195 -0.095,-0.341 -0.285,-0.438c-0.189,-0.098 -0.43,-0.18 -0.722,-0.246c-0.292,-0.067 -0.605,-0.139 -0.938,-0.216c-0.333,-0.076 -0.646,-0.192 -0.938,-0.346c-0.292,-0.153 -0.533,-0.371 -0.723,-0.653c-0.19,-0.282 -0.284,-0.659 -0.284,-1.13c-0,-0.441 0.089,-0.82 0.269,-1.138c0.179,-0.318 0.415,-0.579 0.707,-0.784c0.292,-0.205 0.628,-0.357 1.007,-0.454c0.379,-0.097 0.764,-0.146 1.153,-0.146c0.492,-0 0.99,0.072 1.492,0.215c0.502,0.144 0.928,0.4 1.276,0.769l-1.414,1.399Z" style="fill-rule:nonzero;"/><path d="M74.885,87.236l1.331,-0.768c0.332,-0.192 0.595,-0.39 0.787,-0.593c0.192,-0.204 0.324,-0.402 0.397,-0.597c0.072,-0.194 0.095,-0.387 0.067,-0.579c-0.028,-0.192 -0.093,-0.378 -0.197,-0.558c-0.1,-0.173 -0.227,-0.32 -0.379,-0.44c-0.152,-0.12 -0.332,-0.198 -0.538,-0.236c-0.207,-0.038 -0.445,-0.023 -0.715,0.045c-0.27,0.069 -0.572,0.199 -0.904,0.391l-1.331,0.768l1.482,2.567Zm2.37,4.104l-0.748,0.432l-4.248,-7.357l2.266,-1.308c0.748,-0.432 1.433,-0.61 2.054,-0.535c0.621,0.076 1.121,0.443 1.501,1.101c0.296,0.513 0.384,1.037 0.264,1.573c-0.12,0.536 -0.469,1.007 -1.047,1.415l4.136,2.267l-0.914,0.528l-3.99,-2.255l-1.248,0.72l1.974,3.419Z" style="fill-rule:nonzero;"/><path d="M83.022,87.097l3.939,-2.274l0.396,0.685l-4.687,2.706l-4.248,-7.357l4.562,-2.634l0.396,0.686l-3.814,2.202l1.446,2.504l3.565,-2.058l0.396,0.686l-3.565,2.058l1.614,2.796Z" style="fill-rule:nonzero;"/><path d="M88.768,76.505c-0.602,-0.29 -1.214,-0.255 -1.838,0.105c-0.194,0.112 -0.369,0.248 -0.526,0.408c-0.157,0.159 -0.279,0.336 -0.366,0.53c-0.087,0.193 -0.127,0.4 -0.119,0.622c0.008,0.222 0.078,0.447 0.21,0.676c0.192,0.332 0.434,0.536 0.728,0.612c0.293,0.076 0.612,0.092 0.957,0.05c0.345,-0.042 0.709,-0.111 1.092,-0.208c0.383,-0.096 0.758,-0.147 1.125,-0.151c0.368,-0.004 0.719,0.068 1.054,0.217c0.335,0.148 0.63,0.444 0.886,0.887c0.192,0.333 0.294,0.673 0.306,1.022c0.012,0.349 -0.046,0.68 -0.174,0.994c-0.128,0.315 -0.308,0.603 -0.539,0.866c-0.232,0.263 -0.493,0.479 -0.784,0.647c-0.45,0.26 -0.927,0.422 -1.431,0.486c-0.503,0.064 -1.008,-0.016 -1.517,-0.24l0.394,-0.878c0.315,0.178 0.662,0.267 1.04,0.265c0.378,-0.001 0.761,-0.113 1.149,-0.337c0.187,-0.108 0.357,-0.246 0.51,-0.413c0.153,-0.167 0.271,-0.35 0.354,-0.55c0.083,-0.201 0.125,-0.412 0.126,-0.634c0.001,-0.223 -0.06,-0.441 -0.184,-0.656c-0.148,-0.256 -0.325,-0.438 -0.53,-0.546c-0.206,-0.108 -0.43,-0.168 -0.672,-0.18c-0.243,-0.012 -0.499,0.008 -0.768,0.062c-0.269,0.054 -0.545,0.112 -0.828,0.173c-0.283,0.062 -0.566,0.11 -0.847,0.143c-0.281,0.033 -0.553,0.026 -0.815,-0.021c-0.263,-0.047 -0.513,-0.152 -0.751,-0.315c-0.237,-0.164 -0.454,-0.415 -0.65,-0.754c-0.204,-0.354 -0.314,-0.701 -0.331,-1.042c-0.017,-0.342 0.037,-0.664 0.162,-0.967c0.126,-0.303 0.306,-0.578 0.542,-0.826c0.236,-0.247 0.503,-0.456 0.801,-0.628c0.416,-0.24 0.831,-0.393 1.247,-0.457c0.415,-0.064 0.865,-0.014 1.348,0.15l-0.361,0.888Z" style="fill-rule:nonzero;"/><path d="M96.97,79.958l-0.749,0.432l-3.852,-6.671l-2.463,1.422l-0.396,-0.686l5.675,-3.276l0.396,0.686l-2.463,1.422l3.852,6.671Z" style="fill-rule:nonzero;"/><path d="M102.919,73.032l3.191,-1.842l-3.822,-2.948l0.631,4.79Zm0.421,3.248l-0.873,0.504l-1.047,-9.205l0.728,-0.42l7.448,5.509l-0.873,0.504l-1.926,-1.464l-3.762,2.172l0.305,2.4Z" style="fill-rule:nonzero;"/><path d="M108.972,67.556l1.206,-0.696c0.332,-0.192 0.595,-0.39 0.787,-0.593c0.192,-0.204 0.324,-0.402 0.397,-0.597c0.072,-0.194 0.095,-0.387 0.067,-0.579c-0.028,-0.192 -0.093,-0.378 -0.197,-0.558c-0.1,-0.173 -0.227,-0.32 -0.379,-0.44c-0.152,-0.12 -0.332,-0.198 -0.538,-0.236c-0.207,-0.038 -0.445,-0.023 -0.715,0.045c-0.27,0.069 -0.572,0.199 -0.904,0.391l-1.206,0.696l1.482,2.567Zm-2.626,-2.821l2.141,-1.236c0.748,-0.432 1.433,-0.61 2.054,-0.535c0.621,0.076 1.121,0.443 1.501,1.101c0.38,0.658 0.449,1.277 0.206,1.856c-0.243,0.579 -0.739,1.084 -1.487,1.516l-1.393,0.804l1.974,3.419l-0.748,0.432l-4.248,-7.357Z" style="fill-rule:nonzero;"/><path d="M117.307,68.216l-0.748,0.432l-4.248,-7.357l0.748,-0.432l4.248,7.357Z" style="fill-rule:nonzero;"/><path d="M166.814,237.485l1.434,-0.828c0.27,-0.156 0.507,-0.33 0.71,-0.521c0.204,-0.192 0.359,-0.395 0.467,-0.609c0.107,-0.214 0.161,-0.437 0.161,-0.668c0.001,-0.232 -0.069,-0.468 -0.209,-0.711c-0.28,-0.485 -0.644,-0.755 -1.092,-0.811c-0.448,-0.055 -0.973,0.091 -1.576,0.439l-1.527,0.882l1.632,2.827Zm-1.992,-3.451l1.507,-0.87c0.18,-0.104 0.345,-0.229 0.496,-0.376c0.15,-0.147 0.267,-0.314 0.349,-0.5c0.082,-0.185 0.121,-0.386 0.117,-0.601c-0.004,-0.214 -0.074,-0.44 -0.21,-0.675c-0.044,-0.076 -0.122,-0.175 -0.233,-0.295c-0.111,-0.121 -0.26,-0.219 -0.448,-0.296c-0.187,-0.077 -0.414,-0.105 -0.679,-0.086c-0.266,0.02 -0.576,0.132 -0.929,0.336l-1.434,0.828l1.464,2.535Zm-2.609,-2.789l2.193,-1.266c0.305,-0.176 0.617,-0.315 0.938,-0.417c0.32,-0.101 0.632,-0.143 0.938,-0.126c0.306,0.018 0.593,0.106 0.86,0.266c0.268,0.159 0.502,0.412 0.702,0.759c0.232,0.402 0.318,0.811 0.259,1.229c-0.059,0.417 -0.269,0.794 -0.628,1.131l0.012,0.021c0.543,-0.258 1.055,-0.311 1.536,-0.159c0.48,0.152 0.876,0.498 1.188,1.039c0.068,0.117 0.139,0.308 0.212,0.57c0.073,0.263 0.081,0.561 0.024,0.894c-0.057,0.333 -0.214,0.685 -0.471,1.055c-0.258,0.37 -0.681,0.726 -1.27,1.066l-2.245,1.296l-4.248,-7.358Z" style="fill-rule:nonzero;"/><path d="M172.463,231.646l3.19,-1.842l-3.822,-2.948l0.632,4.79Zm0.421,3.249l-0.873,0.504l-1.047,-9.206l0.727,-0.42l7.449,5.51l-0.873,0.504l-1.927,-1.465l-3.762,2.172l0.306,2.401Z" style="fill-rule:nonzero;"/><path d="M180.073,222.555c-0.602,-0.29 -1.214,-0.255 -1.838,0.105c-0.194,0.112 -0.369,0.248 -0.526,0.408c-0.157,0.16 -0.279,0.336 -0.366,0.53c-0.087,0.193 -0.127,0.401 -0.119,0.622c0.008,0.222 0.078,0.447 0.21,0.676c0.192,0.332 0.435,0.537 0.728,0.612c0.293,0.076 0.612,0.092 0.957,0.05c0.345,-0.042 0.709,-0.111 1.092,-0.208c0.383,-0.096 0.759,-0.147 1.126,-0.151c0.367,-0.004 0.718,0.068 1.053,0.217c0.335,0.148 0.631,0.444 0.887,0.887c0.192,0.333 0.294,0.673 0.305,1.022c0.012,0.349 -0.046,0.68 -0.174,0.994c-0.128,0.315 -0.308,0.603 -0.539,0.866c-0.232,0.263 -0.493,0.479 -0.784,0.647c-0.45,0.26 -0.927,0.422 -1.43,0.486c-0.504,0.064 -1.009,-0.016 -1.517,-0.24l0.393,-0.878c0.315,0.178 0.662,0.267 1.04,0.266c0.378,-0.002 0.761,-0.114 1.149,-0.338c0.187,-0.108 0.357,-0.246 0.51,-0.413c0.154,-0.166 0.272,-0.35 0.355,-0.55c0.082,-0.201 0.124,-0.412 0.125,-0.634c0.001,-0.223 -0.06,-0.441 -0.184,-0.656c-0.148,-0.256 -0.325,-0.438 -0.53,-0.546c-0.206,-0.108 -0.43,-0.168 -0.672,-0.18c-0.243,-0.012 -0.499,0.008 -0.768,0.062c-0.269,0.054 -0.545,0.112 -0.828,0.174c-0.283,0.061 -0.565,0.109 -0.847,0.142c-0.281,0.033 -0.553,0.026 -0.815,-0.021c-0.263,-0.047 -0.513,-0.152 -0.75,-0.315c-0.238,-0.164 -0.454,-0.415 -0.65,-0.754c-0.204,-0.354 -0.315,-0.701 -0.332,-1.042c-0.017,-0.342 0.037,-0.664 0.163,-0.967c0.125,-0.303 0.305,-0.578 0.541,-0.826c0.236,-0.247 0.503,-0.456 0.801,-0.628c0.416,-0.24 0.832,-0.392 1.247,-0.457c0.416,-0.064 0.865,-0.014 1.348,0.151l-0.361,0.887Z" style="fill-rule:nonzero;"/><path d="M186.664,226.939l-0.748,0.432l-4.248,-7.358l0.748,-0.432l4.248,7.358Z" style="fill-rule:nonzero;"/><path d="M188.595,217.635c-0.602,-0.29 -1.214,-0.255 -1.838,0.105c-0.194,0.112 -0.369,0.248 -0.527,0.408c-0.157,0.16 -0.279,0.336 -0.366,0.53c-0.086,0.193 -0.126,0.401 -0.118,0.622c0.008,0.222 0.078,0.447 0.21,0.676c0.192,0.332 0.434,0.537 0.727,0.612c0.293,0.076 0.613,0.092 0.958,0.05c0.345,-0.042 0.709,-0.111 1.092,-0.208c0.383,-0.096 0.758,-0.147 1.125,-0.151c0.367,-0.004 0.719,0.068 1.054,0.217c0.335,0.148 0.63,0.444 0.886,0.887c0.192,0.333 0.294,0.673 0.306,1.022c0.012,0.349 -0.046,0.68 -0.174,0.994c-0.128,0.315 -0.308,0.603 -0.539,0.866c-0.232,0.263 -0.493,0.479 -0.784,0.647c-0.451,0.26 -0.927,0.422 -1.431,0.486c-0.503,0.064 -1.009,-0.016 -1.517,-0.24l0.394,-0.878c0.315,0.178 0.662,0.267 1.04,0.266c0.378,-0.002 0.761,-0.114 1.149,-0.338c0.187,-0.108 0.357,-0.246 0.51,-0.413c0.153,-0.166 0.271,-0.35 0.354,-0.55c0.083,-0.201 0.125,-0.412 0.126,-0.634c0.001,-0.223 -0.06,-0.441 -0.184,-0.656c-0.148,-0.256 -0.325,-0.438 -0.53,-0.546c-0.206,-0.108 -0.43,-0.168 -0.673,-0.18c-0.242,-0.012 -0.498,0.008 -0.767,0.062c-0.269,0.054 -0.546,0.112 -0.829,0.174c-0.283,0.061 -0.565,0.109 -0.846,0.142c-0.281,0.033 -0.553,0.026 -0.816,-0.021c-0.262,-0.047 -0.512,-0.152 -0.75,-0.315c-0.237,-0.164 -0.454,-0.415 -0.65,-0.754c-0.204,-0.354 -0.314,-0.701 -0.331,-1.042c-0.017,-0.342 0.037,-0.664 0.162,-0.967c0.125,-0.303 0.306,-0.578 0.542,-0.826c0.236,-0.247 0.503,-0.456 0.801,-0.628c0.416,-0.24 0.831,-0.392 1.247,-0.457c0.415,-0.064 0.865,-0.014 1.348,0.151l-0.361,0.887Z" style="fill-rule:nonzero;"/><path d="M197.575,219.725l1.455,-0.84c0.561,-0.324 0.999,-0.69 1.313,-1.098c0.314,-0.408 0.527,-0.831 0.639,-1.269c0.111,-0.439 0.13,-0.875 0.056,-1.307c-0.075,-0.433 -0.222,-0.84 -0.442,-1.221c-0.22,-0.381 -0.499,-0.712 -0.836,-0.993c-0.338,-0.281 -0.725,-0.483 -1.16,-0.605c-0.436,-0.123 -0.909,-0.15 -1.419,-0.082c-0.51,0.069 -1.046,0.265 -1.607,0.589l-1.455,0.84l3.456,5.986Zm-4.6,-6.24l2.442,-1.41c0.457,-0.264 0.96,-0.453 1.509,-0.567c0.549,-0.113 1.097,-0.123 1.646,-0.028c0.549,0.094 1.07,0.305 1.565,0.634c0.494,0.329 0.918,0.798 1.27,1.408c0.356,0.616 0.551,1.219 0.587,1.809c0.035,0.589 -0.043,1.145 -0.236,1.667c-0.193,0.522 -0.475,0.993 -0.848,1.411c-0.373,0.418 -0.788,0.76 -1.245,1.024l-2.442,1.41l-4.248,-7.358Z" style="fill-rule:nonzero;"/><path d="M204.482,213.16l3.19,-1.842l-3.822,-2.948l0.632,4.79Zm0.421,3.249l-0.873,0.504l-1.048,-9.206l0.728,-0.42l7.449,5.51l-0.873,0.504l-1.927,-1.465l-3.762,2.172l0.306,2.401Z" style="fill-rule:nonzero;"/><path d="M213.809,211.267l-0.748,0.432l-3.852,-6.672l-2.463,1.422l-0.396,-0.686l5.674,-3.276l0.396,0.686l-2.463,1.422l3.852,6.672Z" style="fill-rule:nonzero;"/><path d="M216.163,206.416l3.19,-1.842l-3.822,-2.948l0.632,4.79Zm0.421,3.249l-0.873,0.504l-1.048,-9.206l0.728,-0.42l7.449,5.51l-0.873,0.504l-1.927,-1.465l-3.762,2.172l0.306,2.401Z" style="fill-rule:nonzero;"/><path d="M180.505,62.108l2.605,2.605l1.858,-4.455l-4.463,1.85Zm-3.029,1.247l-0.713,-0.712l8.621,-3.395l0.594,0.594l-3.394,8.621l-0.713,-0.712l0.917,-2.24l-3.072,-3.072l-2.24,0.916Z" style="fill-rule:nonzero;"/><path d="M187.361,66.537l0.985,0.985c0.271,0.271 0.53,0.473 0.776,0.606c0.246,0.133 0.472,0.21 0.679,0.229c0.206,0.02 0.399,-0.008 0.577,-0.084c0.178,-0.077 0.341,-0.189 0.488,-0.336c0.141,-0.141 0.25,-0.301 0.326,-0.479c0.077,-0.178 0.106,-0.372 0.089,-0.581c-0.016,-0.21 -0.093,-0.436 -0.229,-0.679c-0.135,-0.243 -0.339,-0.501 -0.611,-0.772l-0.984,-0.985l-2.096,2.096Zm2.045,-3.267l1.748,1.748c0.611,0.611 0.96,1.227 1.048,1.846c0.088,0.619 -0.137,1.198 -0.674,1.735c-0.538,0.538 -1.118,0.764 -1.74,0.679c-0.622,-0.085 -1.239,-0.433 -1.85,-1.044l-1.137,-1.137l-2.791,2.792l-0.611,-0.611l6.007,-6.008Z" style="fill-rule:nonzero;"/><path d="M188.88,74.76l-0.611,-0.611l6.008,-6.008l0.611,0.611l-6.008,6.008Z" style="fill-rule:nonzero;"/><path d="M196.831,76.007l0.984,0.984c0.272,0.272 0.53,0.474 0.777,0.607c0.246,0.133 0.472,0.209 0.678,0.229c0.207,0.02 0.399,-0.009 0.577,-0.085c0.179,-0.076 0.341,-0.188 0.488,-0.335c0.142,-0.142 0.251,-0.301 0.327,-0.48c0.076,-0.178 0.106,-0.371 0.089,-0.581c-0.017,-0.209 -0.093,-0.435 -0.229,-0.679c-0.136,-0.243 -0.339,-0.5 -0.611,-0.772l-0.984,-0.984l-2.096,2.096Zm2.045,-3.267l1.748,1.748c0.611,0.611 0.96,1.226 1.048,1.846c0.087,0.619 -0.137,1.197 -0.675,1.735c-0.537,0.537 -1.117,0.763 -1.739,0.679c-0.623,-0.085 -1.239,-0.433 -1.85,-1.044l-1.137,-1.137l-2.792,2.792l-0.611,-0.611l6.008,-6.008Z" style="fill-rule:nonzero;"/><path d="M203.848,78.731c-0.119,0.118 -0.259,0.174 -0.42,0.165c-0.161,-0.008 -0.293,-0.064 -0.394,-0.165c-0.102,-0.102 -0.157,-0.234 -0.166,-0.395c-0.008,-0.161 0.047,-0.301 0.166,-0.42c0.118,-0.119 0.258,-0.174 0.42,-0.165c0.161,0.008 0.292,0.063 0.394,0.165c0.102,0.102 0.157,0.233 0.166,0.395c0.008,0.161 -0.047,0.301 -0.166,0.42Zm-5.626,5.371l-0.56,-0.56l3.972,-3.971l0.56,0.56l-3.972,3.971Z" style="fill-rule:nonzero;"/><path d="M205.986,79.036l0.561,0.56l-3.081,3.08l0.017,0.017c0.17,-0.045 0.348,-0.065 0.535,-0.059c0.187,0.006 0.372,0.035 0.556,0.089c0.184,0.054 0.36,0.129 0.53,0.225c0.17,0.096 0.32,0.209 0.45,0.339c0.509,0.509 0.751,1.02 0.725,1.532c-0.025,0.512 -0.287,1.017 -0.785,1.514l-2.52,2.521l-0.56,-0.56l2.198,-2.198c0.441,-0.441 0.703,-0.856 0.785,-1.243c0.082,-0.388 -0.084,-0.788 -0.497,-1.201c-0.028,-0.028 -0.118,-0.096 -0.271,-0.204c-0.153,-0.107 -0.352,-0.182 -0.598,-0.224c-0.246,-0.043 -0.528,-0.019 -0.845,0.072c-0.316,0.09 -0.656,0.316 -1.018,0.679l-2.036,2.036l-0.56,-0.56l6.414,-6.415Z" style="fill-rule:nonzero;"/><path d="M208.524,90.449c-0.142,-0.142 -0.326,-0.311 -0.552,-0.509c-0.226,-0.198 -0.464,-0.368 -0.713,-0.509c-0.249,-0.142 -0.499,-0.225 -0.751,-0.251c-0.251,-0.025 -0.476,0.061 -0.674,0.259c-0.13,0.13 -0.215,0.269 -0.255,0.416c-0.039,0.147 -0.044,0.295 -0.013,0.445c0.032,0.15 0.09,0.293 0.174,0.429c0.085,0.136 0.184,0.26 0.297,0.373c0.204,0.204 0.415,0.347 0.633,0.429c0.217,0.082 0.435,0.116 0.653,0.101c0.218,-0.014 0.428,-0.074 0.632,-0.182c0.204,-0.107 0.393,-0.249 0.569,-0.424l0.288,-0.289l-0.288,-0.288Zm0.746,-0.17l0.102,-0.102c0.685,-0.684 0.687,-1.366 0.009,-2.045c-0.464,-0.464 -1.024,-0.712 -1.68,-0.746l0.059,-0.739c0.758,-0.011 1.51,0.357 2.257,1.103c0.192,0.193 0.349,0.406 0.471,0.641c0.122,0.235 0.189,0.475 0.204,0.721c0.014,0.246 -0.027,0.497 -0.123,0.751c-0.097,0.255 -0.266,0.504 -0.51,0.747l-1.773,1.773c-0.153,0.153 -0.305,0.32 -0.458,0.501c-0.153,0.181 -0.275,0.334 -0.365,0.458l-0.543,-0.543c0.079,-0.113 0.171,-0.23 0.276,-0.352c0.104,-0.122 0.21,-0.236 0.318,-0.344l-0.017,-0.017c-0.43,0.102 -0.815,0.099 -1.154,-0.008c-0.34,-0.108 -0.67,-0.322 -0.993,-0.645c-0.175,-0.175 -0.321,-0.369 -0.437,-0.581c-0.116,-0.212 -0.188,-0.431 -0.216,-0.658c-0.029,-0.226 -0.009,-0.449 0.059,-0.67c0.068,-0.221 0.198,-0.427 0.39,-0.62c0.323,-0.322 0.659,-0.492 1.01,-0.509c0.351,-0.017 0.697,0.056 1.04,0.217c0.342,0.161 0.667,0.373 0.975,0.636c0.309,0.263 0.582,0.513 0.819,0.751l0.28,0.28Z" style="fill-rule:nonzero;"/><path d="M211.434,92.952l3.666,0.085l0.84,0.84l-3.793,-0.161l0.034,4.344l-0.866,-0.865l0.026,-4.15l-2.088,2.088l-0.56,-0.56l6.415,-6.415l0.56,0.56l-4.234,4.234Z" style="fill-rule:nonzero;"/><path d="M219.359,98.433l0.085,0.085l5.431,0.221l0.874,0.874l-5.753,-0.306l-0.085,6.483l-0.9,-0.899l0.145,-6.05l-0.102,-0.102l-3.097,3.097l-0.611,-0.611l6.007,-6.007l0.611,0.61l-2.605,2.605Z" style="fill-rule:nonzero;"/><path d="M225.868,107.165c0.379,-0.379 0.572,-0.799 0.581,-1.26c0.008,-0.461 -0.191,-0.895 -0.598,-1.303c-0.181,-0.181 -0.392,-0.321 -0.633,-0.42c-0.24,-0.099 -0.483,-0.153 -0.729,-0.161c-0.246,-0.008 -0.484,0.025 -0.713,0.102c-0.229,0.076 -0.426,0.196 -0.59,0.36l2.682,2.682Zm-3.157,-2.24c-0.181,0.215 -0.32,0.449 -0.416,0.704c-0.096,0.255 -0.143,0.51 -0.14,0.768c0.003,0.257 0.053,0.508 0.149,0.751c0.096,0.243 0.243,0.464 0.441,0.662c0.3,0.299 0.628,0.489 0.984,0.568c0.357,0.079 0.682,0.085 0.976,0.017l0.076,0.789c-0.537,0.063 -1.014,0.016 -1.429,-0.14c-0.416,-0.155 -0.788,-0.397 -1.116,-0.725c-0.294,-0.294 -0.515,-0.62 -0.662,-0.976c-0.147,-0.356 -0.218,-0.718 -0.212,-1.086c0.005,-0.368 0.083,-0.731 0.233,-1.09c0.15,-0.36 0.375,-0.689 0.675,-0.989c0.3,-0.3 0.628,-0.526 0.984,-0.679c0.356,-0.153 0.718,-0.232 1.086,-0.237c0.368,-0.006 0.726,0.06 1.074,0.199c0.347,0.139 0.663,0.349 0.946,0.632c0.299,0.3 0.514,0.622 0.645,0.967c0.13,0.346 0.186,0.688 0.169,1.027c-0.017,0.34 -0.103,0.672 -0.259,0.997c-0.155,0.325 -0.369,0.624 -0.64,0.895l-0.255,0.255l-3.309,-3.309Z" style="fill-rule:nonzero;"/><path d="M230.721,109.676l-1.145,-1.145l-2.342,2.342c-0.147,0.147 -0.254,0.281 -0.319,0.403c-0.065,0.122 -0.097,0.233 -0.097,0.335c-0,0.102 0.025,0.198 0.076,0.289c0.051,0.09 0.119,0.178 0.204,0.263c0.096,0.096 0.209,0.181 0.339,0.254c0.13,0.074 0.26,0.13 0.391,0.17l-0.493,0.543c-0.305,-0.113 -0.605,-0.317 -0.899,-0.611c-0.107,-0.107 -0.205,-0.233 -0.293,-0.378c-0.087,-0.144 -0.14,-0.304 -0.157,-0.479c-0.017,-0.175 0.012,-0.362 0.085,-0.56c0.074,-0.198 0.221,-0.407 0.441,-0.628l2.504,-2.503l-0.841,-0.84l0.51,-0.509l0.84,0.84l1.12,-1.12l0.56,0.56l-1.12,1.12l1.145,1.145l-0.509,0.509Z" style="fill-rule:nonzero;"/><path d="M234.336,109.218c-0.119,0.119 -0.259,0.174 -0.42,0.166c-0.161,-0.009 -0.293,-0.064 -0.395,-0.166c-0.102,-0.102 -0.157,-0.233 -0.165,-0.394c-0.009,-0.162 0.046,-0.302 0.165,-0.42c0.119,-0.119 0.259,-0.174 0.42,-0.166c0.161,0.009 0.293,0.064 0.395,0.166c0.102,0.101 0.157,0.233 0.165,0.394c0.009,0.161 -0.046,0.301 -0.165,0.42Zm-5.626,5.371l-0.56,-0.56l3.971,-3.971l0.56,0.56l-3.971,3.971Z" style="fill-rule:nonzero;"/><path d="M232.503,114.309c-0.209,0.21 -0.368,0.444 -0.475,0.705c-0.108,0.26 -0.164,0.526 -0.17,0.797c-0.006,0.272 0.04,0.538 0.136,0.798c0.096,0.26 0.249,0.495 0.458,0.704c0.204,0.204 0.434,0.361 0.692,0.471c0.257,0.11 0.523,0.17 0.797,0.178c0.275,0.009 0.543,-0.042 0.806,-0.152c0.263,-0.111 0.508,-0.285 0.734,-0.522c0.21,-0.21 0.372,-0.44 0.488,-0.692c0.116,-0.252 0.178,-0.512 0.187,-0.78c0.008,-0.269 -0.04,-0.538 -0.144,-0.807c-0.105,-0.268 -0.273,-0.519 -0.505,-0.751c-0.21,-0.209 -0.444,-0.362 -0.704,-0.458c-0.261,-0.096 -0.527,-0.141 -0.798,-0.135c-0.272,0.005 -0.538,0.062 -0.798,0.169c-0.26,0.108 -0.495,0.266 -0.704,0.475Zm-2.936,2.733c-0.056,0.384 -0.02,0.775 0.11,1.171c0.13,0.396 0.357,0.755 0.679,1.077c0.283,0.283 0.564,0.483 0.844,0.598c0.281,0.116 0.552,0.165 0.815,0.145c0.263,-0.02 0.516,-0.098 0.76,-0.234c0.243,-0.135 0.472,-0.311 0.687,-0.526l0.713,-0.712l-0.017,-0.017c-0.453,0.09 -0.866,0.062 -1.239,-0.085c-0.374,-0.147 -0.705,-0.365 -0.993,-0.654c-0.289,-0.288 -0.508,-0.609 -0.658,-0.963c-0.15,-0.353 -0.229,-0.713 -0.237,-1.077c-0.009,-0.365 0.058,-0.726 0.199,-1.082c0.142,-0.357 0.357,-0.679 0.645,-0.968c0.289,-0.288 0.608,-0.506 0.959,-0.653c0.351,-0.147 0.708,-0.225 1.073,-0.233c0.365,-0.009 0.723,0.058 1.074,0.199c0.35,0.142 0.673,0.359 0.967,0.653c0.119,0.119 0.233,0.256 0.344,0.412c0.11,0.156 0.203,0.328 0.28,0.518c0.076,0.189 0.13,0.398 0.161,0.628c0.031,0.229 0.027,0.476 -0.013,0.742l0.017,0.017l0.662,-0.662l0.56,0.56l-3.937,3.937c-0.215,0.215 -0.471,0.418 -0.768,0.607c-0.297,0.19 -0.625,0.308 -0.984,0.356c-0.36,0.048 -0.746,0.002 -1.159,-0.14c-0.413,-0.141 -0.842,-0.435 -1.289,-0.882c-0.396,-0.396 -0.685,-0.815 -0.866,-1.256c-0.181,-0.441 -0.263,-0.925 -0.246,-1.451l0.857,-0.025Z" style="fill-rule:nonzero;"/><path d="M239.478,121.403c-0.142,-0.141 -0.325,-0.311 -0.552,-0.509c-0.226,-0.198 -0.464,-0.368 -0.712,-0.509c-0.249,-0.142 -0.5,-0.225 -0.751,-0.25c-0.252,-0.026 -0.477,0.06 -0.675,0.258c-0.13,0.13 -0.215,0.269 -0.255,0.416c-0.039,0.147 -0.043,0.296 -0.012,0.446c0.031,0.15 0.089,0.292 0.174,0.428c0.085,0.136 0.184,0.26 0.297,0.373c0.203,0.204 0.414,0.347 0.632,0.429c0.218,0.082 0.435,0.116 0.653,0.102c0.218,-0.014 0.429,-0.075 0.632,-0.183c0.204,-0.107 0.394,-0.249 0.569,-0.424l0.288,-0.288l-0.288,-0.289Zm0.747,-0.17l0.101,-0.101c0.685,-0.685 0.688,-1.367 0.009,-2.045c-0.464,-0.464 -1.024,-0.713 -1.68,-0.747l0.059,-0.738c0.758,-0.012 1.511,0.356 2.257,1.103c0.193,0.192 0.35,0.406 0.471,0.64c0.122,0.235 0.19,0.476 0.204,0.722c0.014,0.246 -0.027,0.496 -0.123,0.751c-0.096,0.254 -0.266,0.503 -0.509,0.746l-1.774,1.774c-0.152,0.152 -0.305,0.319 -0.458,0.5c-0.153,0.181 -0.274,0.334 -0.365,0.459l-0.543,-0.543c0.079,-0.114 0.171,-0.231 0.276,-0.353c0.105,-0.121 0.211,-0.236 0.318,-0.343l-0.017,-0.017c-0.43,0.102 -0.814,0.099 -1.154,-0.009c-0.339,-0.107 -0.67,-0.322 -0.993,-0.645c-0.175,-0.175 -0.321,-0.369 -0.437,-0.581c-0.116,-0.212 -0.188,-0.431 -0.216,-0.657c-0.028,-0.227 -0.008,-0.45 0.059,-0.671c0.068,-0.22 0.198,-0.427 0.391,-0.619c0.322,-0.323 0.659,-0.492 1.009,-0.509c0.351,-0.017 0.698,0.055 1.04,0.216c0.342,0.161 0.667,0.373 0.976,0.636c0.308,0.263 0.581,0.514 0.819,0.751l0.28,0.28Z" style="fill-rule:nonzero;"/><path d="M121.381,21.674l0.12,0l3.996,-3.684l1.236,0l-4.284,3.852l4.524,4.644l-1.272,0l-4.176,-4.38l-0.144,0l-0,4.38l-0.864,0l-0,-8.496l0.864,0l-0,3.684Z" style="fill-rule:nonzero;"/><path d="M132.601,23.678c-0,-0.312 -0.05,-0.604 -0.15,-0.876c-0.1,-0.272 -0.242,-0.508 -0.426,-0.708c-0.184,-0.2 -0.406,-0.358 -0.666,-0.474c-0.26,-0.116 -0.554,-0.174 -0.882,-0.174c-0.328,0 -0.622,0.058 -0.882,0.174c-0.26,0.116 -0.48,0.274 -0.66,0.474c-0.18,0.2 -0.32,0.436 -0.42,0.708c-0.1,0.272 -0.15,0.564 -0.15,0.876c-0,0.312 0.05,0.604 0.15,0.876c0.1,0.272 0.24,0.508 0.42,0.708c0.18,0.2 0.4,0.358 0.66,0.474c0.26,0.116 0.554,0.174 0.882,0.174c0.328,0 0.622,-0.058 0.882,-0.174c0.26,-0.116 0.482,-0.274 0.666,-0.474c0.184,-0.2 0.326,-0.436 0.426,-0.708c0.1,-0.272 0.15,-0.564 0.15,-0.876Zm0.864,0c-0,0.424 -0.074,0.816 -0.222,1.176c-0.148,0.36 -0.354,0.672 -0.618,0.936c-0.264,0.264 -0.578,0.47 -0.942,0.618c-0.364,0.148 -0.766,0.222 -1.206,0.222c-0.432,0 -0.83,-0.074 -1.194,-0.222c-0.364,-0.148 -0.678,-0.354 -0.942,-0.618c-0.264,-0.264 -0.47,-0.576 -0.618,-0.936c-0.148,-0.36 -0.222,-0.752 -0.222,-1.176c-0,-0.424 0.074,-0.816 0.222,-1.176c0.148,-0.36 0.354,-0.672 0.618,-0.936c0.264,-0.264 0.578,-0.47 0.942,-0.618c0.364,-0.148 0.762,-0.222 1.194,-0.222c0.44,0 0.842,0.074 1.206,0.222c0.364,0.148 0.678,0.354 0.942,0.618c0.264,0.264 0.47,0.576 0.618,0.936c0.148,0.36 0.222,0.752 0.222,1.176Z" style="fill-rule:nonzero;"/><path d="M135.661,20.87c0.016,0.152 0.026,0.302 0.03,0.45c0.004,0.148 0.006,0.298 0.006,0.45l0.024,0c0.088,-0.152 0.2,-0.292 0.336,-0.42c0.136,-0.128 0.288,-0.238 0.456,-0.33c0.168,-0.092 0.346,-0.164 0.534,-0.216c0.188,-0.052 0.374,-0.078 0.558,-0.078c0.72,0 1.252,0.19 1.596,0.57c0.344,0.38 0.516,0.922 0.516,1.626l-0,3.564l-0.792,0l-0,-3.108c-0,-0.624 -0.108,-1.102 -0.324,-1.434c-0.216,-0.332 -0.616,-0.498 -1.2,-0.498c-0.04,0 -0.152,0.016 -0.336,0.048c-0.184,0.032 -0.378,0.12 -0.582,0.264c-0.204,0.144 -0.386,0.36 -0.546,0.648c-0.16,0.288 -0.24,0.688 -0.24,1.2l-0,2.88l-0.792,0l-0,-4.38c-0,-0.152 -0.006,-0.344 -0.018,-0.576c-0.012,-0.232 -0.026,-0.452 -0.042,-0.66l0.816,0Z" style="fill-rule:nonzero;"/><path d="M146.293,18.71c-0,0.168 -0.06,0.306 -0.18,0.414c-0.12,0.108 -0.252,0.162 -0.396,0.162c-0.144,0 -0.276,-0.054 -0.396,-0.162c-0.12,-0.108 -0.18,-0.246 -0.18,-0.414c-0,-0.168 0.06,-0.306 0.18,-0.414c0.12,-0.108 0.252,-0.162 0.396,-0.162c0.144,0 0.276,0.054 0.396,0.162c0.12,0.108 0.18,0.246 0.18,0.414Zm-0.18,7.776l-0.792,0l-0,-5.616l0.792,0l-0,5.616Zm-1.92,-4.896l-1.332,0l-0,4.896l-0.792,0l-0,-4.896l-1.188,0l-0,-0.72l1.188,0l-0,-1.536c-0,-0.744 0.172,-1.274 0.516,-1.59c0.344,-0.316 0.8,-0.474 1.368,-0.474c0.112,0 0.226,0.008 0.342,0.024c0.116,0.016 0.23,0.036 0.342,0.06l-0.144,0.72c-0.096,-0.024 -0.196,-0.044 -0.3,-0.06c-0.104,-0.016 -0.208,-0.024 -0.312,-0.024c-0.216,0 -0.392,0.036 -0.528,0.108c-0.136,0.072 -0.24,0.174 -0.312,0.306c-0.072,0.132 -0.12,0.286 -0.144,0.462c-0.024,0.176 -0.036,0.364 -0.036,0.564l-0,1.44l1.332,0l-0,0.72Z" style="fill-rule:nonzero;"/><path d="M148.597,23.606c-0,0.296 0.054,0.574 0.162,0.834c0.108,0.26 0.256,0.488 0.444,0.684c0.188,0.196 0.408,0.352 0.66,0.468c0.252,0.116 0.526,0.174 0.822,0.174c0.288,0 0.562,-0.052 0.822,-0.156c0.26,-0.104 0.49,-0.25 0.69,-0.438c0.2,-0.188 0.354,-0.414 0.462,-0.678c0.108,-0.264 0.158,-0.56 0.15,-0.888c-0,-0.296 -0.048,-0.574 -0.144,-0.834c-0.096,-0.26 -0.236,-0.488 -0.42,-0.684c-0.184,-0.196 -0.408,-0.352 -0.672,-0.468c-0.264,-0.116 -0.56,-0.174 -0.888,-0.174c-0.296,0 -0.57,0.058 -0.822,0.174c-0.252,0.116 -0.472,0.272 -0.66,0.468c-0.188,0.196 -0.336,0.424 -0.444,0.684c-0.108,0.26 -0.162,0.538 -0.162,0.834Zm-0.144,4.008c0.232,0.312 0.534,0.562 0.906,0.75c0.372,0.188 0.786,0.282 1.242,0.282c0.4,0 0.74,-0.058 1.02,-0.174c0.28,-0.116 0.506,-0.274 0.678,-0.474c0.172,-0.2 0.296,-0.434 0.372,-0.702c0.076,-0.268 0.114,-0.554 0.114,-0.858l-0,-1.008l-0.024,0c-0.256,0.384 -0.568,0.656 -0.936,0.816c-0.368,0.16 -0.756,0.24 -1.164,0.24c-0.408,0 -0.79,-0.072 -1.146,-0.216c-0.356,-0.144 -0.666,-0.342 -0.93,-0.594c-0.264,-0.252 -0.472,-0.554 -0.624,-0.906c-0.152,-0.352 -0.228,-0.732 -0.228,-1.14c-0,-0.408 0.072,-0.788 0.216,-1.14c0.144,-0.352 0.342,-0.66 0.594,-0.924c0.252,-0.264 0.552,-0.47 0.9,-0.618c0.348,-0.148 0.73,-0.222 1.146,-0.222c0.168,0 0.346,0.016 0.534,0.048c0.188,0.032 0.376,0.088 0.564,0.168c0.188,0.08 0.374,0.19 0.558,0.33c0.184,0.14 0.356,0.318 0.516,0.534l0.024,0l-0,-0.936l0.792,0l-0,5.568c-0,0.304 -0.038,0.628 -0.114,0.972c-0.076,0.344 -0.224,0.66 -0.444,0.948c-0.22,0.288 -0.526,0.528 -0.918,0.72c-0.392,0.192 -0.904,0.288 -1.536,0.288c-0.56,0 -1.06,-0.092 -1.5,-0.276c-0.44,-0.184 -0.84,-0.468 -1.2,-0.852l0.588,-0.624Z" style="fill-rule:nonzero;"/><path d="M159.409,26.486c-0.016,-0.152 -0.026,-0.302 -0.03,-0.45c-0.004,-0.148 -0.006,-0.298 -0.006,-0.45l-0.024,0c-0.088,0.152 -0.2,0.292 -0.336,0.42c-0.136,0.128 -0.288,0.238 -0.456,0.33c-0.168,0.092 -0.346,0.164 -0.534,0.216c-0.188,0.052 -0.374,0.078 -0.558,0.078c-0.72,0 -1.252,-0.19 -1.596,-0.57c-0.344,-0.38 -0.516,-0.922 -0.516,-1.626l-0,-3.564l0.792,0l-0,3.108c-0,0.312 0.024,0.588 0.072,0.828c0.048,0.24 0.13,0.442 0.246,0.606c0.116,0.164 0.272,0.288 0.468,0.372c0.196,0.084 0.442,0.126 0.738,0.126c0.04,0 0.152,-0.016 0.336,-0.048c0.184,-0.032 0.378,-0.12 0.582,-0.264c0.204,-0.144 0.386,-0.36 0.546,-0.648c0.16,-0.288 0.24,-0.688 0.24,-1.2l-0,-2.88l0.792,0l-0,4.38c-0,0.152 0.006,0.344 0.018,0.576c0.012,0.232 0.026,0.452 0.042,0.66l-0.816,0Z" style="fill-rule:nonzero;"/><path d="M162.109,22.622c-0,-0.248 -0.006,-0.5 -0.018,-0.756c-0.012,-0.256 -0.022,-0.588 -0.03,-0.996l0.78,0l-0,1.044l0.024,0c0.056,-0.152 0.136,-0.298 0.24,-0.438c0.104,-0.14 0.23,-0.266 0.378,-0.378c0.148,-0.112 0.32,-0.202 0.516,-0.27c0.196,-0.068 0.418,-0.102 0.666,-0.102c0.224,0 0.42,0.024 0.588,0.072l-0.156,0.78c-0.104,-0.04 -0.256,-0.06 -0.456,-0.06c-0.304,0 -0.564,0.058 -0.78,0.174c-0.216,0.116 -0.396,0.264 -0.54,0.444c-0.144,0.18 -0.25,0.374 -0.318,0.582c-0.068,0.208 -0.102,0.408 -0.102,0.6l-0,3.168l-0.792,0l-0,-3.864Z" style="fill-rule:nonzero;"/><path d="M169.201,23.69c-0.2,0 -0.45,0.01 -0.75,0.03c-0.3,0.02 -0.588,0.068 -0.864,0.144c-0.276,0.076 -0.512,0.194 -0.708,0.354c-0.196,0.16 -0.294,0.38 -0.294,0.66c-0,0.184 0.038,0.342 0.114,0.474c0.076,0.132 0.178,0.24 0.306,0.324c0.128,0.084 0.27,0.144 0.426,0.18c0.156,0.036 0.314,0.054 0.474,0.054c0.288,0 0.538,-0.048 0.75,-0.144c0.212,-0.096 0.39,-0.226 0.534,-0.39c0.144,-0.164 0.25,-0.356 0.318,-0.576c0.068,-0.22 0.102,-0.454 0.102,-0.702l-0,-0.408l-0.408,0Zm0.408,-0.648l-0,-0.144c-0,-0.968 -0.48,-1.452 -1.44,-1.452c-0.656,0 -1.228,0.22 -1.716,0.66l-0.48,-0.564c0.528,-0.544 1.32,-0.816 2.376,-0.816c0.272,0 0.534,0.04 0.786,0.12c0.252,0.08 0.47,0.202 0.654,0.366c0.184,0.164 0.332,0.37 0.444,0.618c0.112,0.248 0.168,0.544 0.168,0.888l-0,2.508c-0,0.216 0.01,0.442 0.03,0.678c0.02,0.236 0.042,0.43 0.066,0.582l-0.768,0c-0.024,-0.136 -0.042,-0.284 -0.054,-0.444c-0.012,-0.16 -0.018,-0.316 -0.018,-0.468l-0.024,0c-0.232,0.376 -0.506,0.646 -0.822,0.81c-0.316,0.164 -0.702,0.246 -1.158,0.246c-0.248,0 -0.488,-0.034 -0.72,-0.102c-0.232,-0.068 -0.438,-0.172 -0.618,-0.312c-0.18,-0.14 -0.324,-0.312 -0.432,-0.516c-0.108,-0.204 -0.162,-0.442 -0.162,-0.714c-0,-0.456 0.118,-0.814 0.354,-1.074c0.236,-0.26 0.532,-0.454 0.888,-0.582c0.356,-0.128 0.736,-0.208 1.14,-0.24c0.404,-0.032 0.774,-0.048 1.11,-0.048l0.396,0Z" style="fill-rule:nonzero;"/><path d="M175.213,22.202c-0.12,-0.232 -0.28,-0.416 -0.48,-0.552c-0.2,-0.136 -0.444,-0.204 -0.732,-0.204c-0.136,0 -0.274,0.016 -0.414,0.048c-0.14,0.032 -0.266,0.082 -0.378,0.15c-0.112,0.068 -0.202,0.154 -0.27,0.258c-0.068,0.104 -0.102,0.232 -0.102,0.384c-0,0.264 0.092,0.456 0.276,0.576c0.184,0.12 0.46,0.224 0.828,0.312l0.804,0.192c0.392,0.088 0.718,0.266 0.978,0.534c0.26,0.268 0.39,0.602 0.39,1.002c-0,0.304 -0.062,0.566 -0.186,0.786c-0.124,0.22 -0.288,0.4 -0.492,0.54c-0.204,0.14 -0.438,0.242 -0.702,0.306c-0.264,0.064 -0.532,0.096 -0.804,0.096c-0.432,0 -0.834,-0.082 -1.206,-0.246c-0.372,-0.164 -0.69,-0.446 -0.954,-0.846l0.684,-0.468c0.16,0.256 0.362,0.46 0.606,0.612c0.244,0.152 0.534,0.228 0.87,0.228c0.16,0 0.32,-0.018 0.48,-0.054c0.16,-0.036 0.302,-0.092 0.426,-0.168c0.124,-0.076 0.224,-0.174 0.3,-0.294c0.076,-0.12 0.114,-0.26 0.114,-0.42c-0,-0.28 -0.104,-0.482 -0.312,-0.606c-0.208,-0.124 -0.46,-0.222 -0.756,-0.294l-0.768,-0.18c-0.096,-0.024 -0.226,-0.064 -0.39,-0.12c-0.164,-0.056 -0.324,-0.14 -0.48,-0.252c-0.156,-0.112 -0.29,-0.258 -0.402,-0.438c-0.112,-0.18 -0.168,-0.402 -0.168,-0.666c-0,-0.288 0.058,-0.54 0.174,-0.756c0.116,-0.216 0.272,-0.392 0.468,-0.528c0.196,-0.136 0.418,-0.238 0.666,-0.306c0.248,-0.068 0.504,-0.102 0.768,-0.102c0.392,0 0.756,0.076 1.092,0.228c0.336,0.152 0.596,0.412 0.78,0.78l-0.708,0.468Z" style="fill-rule:nonzero;"/><path d="M178.501,18.71c-0,0.168 -0.06,0.306 -0.18,0.414c-0.12,0.108 -0.252,0.162 -0.396,0.162c-0.144,0 -0.276,-0.054 -0.396,-0.162c-0.12,-0.108 -0.18,-0.246 -0.18,-0.414c-0,-0.168 0.06,-0.306 0.18,-0.414c0.12,-0.108 0.252,-0.162 0.396,-0.162c0.144,0 0.276,0.054 0.396,0.162c0.12,0.108 0.18,0.246 0.18,0.414Zm-0.18,7.776l-0.792,0l-0,-5.616l0.792,0l-0,5.616Z" style="fill-rule:nonzero;"/><path d="M64.398,200.172l0.017,0.017l6.652,-3.632l0.73,0.73l-3.632,6.652l0.017,0.017l6.568,-3.716l0.678,0.679l-7.781,4.234l-0.712,-0.713l3.631,-6.652l-0.017,-0.017l-6.652,3.631l-0.713,-0.713l4.234,-7.781l0.679,0.679l-3.699,6.585Z" style="fill-rule:nonzero;"/><path d="M75.259,208.182c0.379,-0.379 0.572,-0.799 0.581,-1.26c0.008,-0.461 -0.191,-0.895 -0.598,-1.303c-0.181,-0.181 -0.392,-0.321 -0.632,-0.42c-0.241,-0.099 -0.484,-0.152 -0.73,-0.161c-0.246,-0.008 -0.484,0.026 -0.713,0.102c-0.229,0.076 -0.426,0.197 -0.59,0.361l2.682,2.681Zm-3.157,-2.24c-0.181,0.215 -0.319,0.45 -0.416,0.704c-0.096,0.255 -0.142,0.511 -0.14,0.768c0.003,0.257 0.053,0.508 0.149,0.751c0.096,0.243 0.243,0.464 0.441,0.662c0.3,0.3 0.628,0.489 0.984,0.568c0.357,0.08 0.682,0.085 0.976,0.017l0.077,0.789c-0.538,0.063 -1.014,0.016 -1.43,-0.14c-0.416,-0.155 -0.788,-0.397 -1.116,-0.725c-0.294,-0.294 -0.515,-0.619 -0.662,-0.976c-0.147,-0.356 -0.218,-0.718 -0.212,-1.086c0.006,-0.368 0.083,-0.731 0.233,-1.09c0.15,-0.36 0.375,-0.689 0.675,-0.989c0.3,-0.3 0.628,-0.526 0.984,-0.679c0.357,-0.152 0.719,-0.232 1.086,-0.237c0.368,-0.006 0.726,0.061 1.074,0.199c0.348,0.139 0.663,0.349 0.946,0.632c0.3,0.3 0.515,0.623 0.645,0.968c0.13,0.345 0.186,0.687 0.169,1.026c-0.017,0.34 -0.103,0.672 -0.258,0.997c-0.156,0.326 -0.369,0.624 -0.641,0.896l-0.255,0.254l-3.309,-3.309Z" style="fill-rule:nonzero;"/><path d="M80.206,213.74c0.22,-0.221 0.391,-0.463 0.513,-0.726c0.122,-0.263 0.188,-0.53 0.199,-0.802c0.012,-0.271 -0.034,-0.54 -0.135,-0.806c-0.102,-0.265 -0.269,-0.514 -0.501,-0.746c-0.232,-0.232 -0.485,-0.403 -0.759,-0.514c-0.275,-0.11 -0.553,-0.165 -0.836,-0.165c-0.283,-0 -0.56,0.056 -0.832,0.17c-0.271,0.113 -0.517,0.28 -0.738,0.5c-0.221,0.221 -0.388,0.467 -0.501,0.738c-0.113,0.272 -0.169,0.549 -0.169,0.832c-0,0.283 0.055,0.561 0.165,0.836c0.11,0.274 0.282,0.527 0.513,0.759c0.232,0.232 0.481,0.399 0.747,0.501c0.266,0.102 0.535,0.147 0.806,0.136c0.272,-0.012 0.539,-0.078 0.802,-0.2c0.263,-0.121 0.505,-0.293 0.726,-0.513Zm0.806,-8.053l0.56,0.56l-3.106,3.106l0.017,0.017c0.226,-0.045 0.45,-0.054 0.67,-0.026c0.221,0.029 0.43,0.08 0.628,0.153c0.198,0.074 0.384,0.168 0.556,0.284c0.173,0.116 0.324,0.239 0.454,0.37c0.311,0.311 0.543,0.647 0.696,1.009c0.153,0.362 0.229,0.73 0.229,1.103c-0,0.374 -0.075,0.74 -0.225,1.099c-0.15,0.359 -0.375,0.689 -0.674,0.989c-0.3,0.3 -0.63,0.524 -0.989,0.674c-0.359,0.15 -0.725,0.225 -1.099,0.225c-0.373,0 -0.741,-0.076 -1.103,-0.229c-0.362,-0.153 -0.699,-0.385 -1.01,-0.696c-0.13,-0.13 -0.253,-0.281 -0.369,-0.454c-0.116,-0.172 -0.21,-0.357 -0.284,-0.555c-0.074,-0.198 -0.124,-0.408 -0.153,-0.628c-0.028,-0.221 -0.02,-0.444 0.026,-0.671l-0.017,-0.017l-0.662,0.662l-0.56,-0.56l6.415,-6.415Z" style="fill-rule:nonzero;"/><path d="M88.878,221.903c-0.249,0.249 -0.543,0.483 -0.883,0.704c-0.339,0.221 -0.71,0.368 -1.111,0.441c-0.402,0.074 -0.824,0.045 -1.265,-0.085c-0.441,-0.13 -0.885,-0.418 -1.332,-0.865c-0.453,-0.453 -0.742,-0.898 -0.87,-1.337c-0.127,-0.438 -0.154,-0.858 -0.08,-1.26c0.073,-0.401 0.22,-0.772 0.441,-1.111c0.221,-0.34 0.455,-0.634 0.704,-0.883l3.768,-3.767l0.611,0.611l-3.7,3.699c-0.288,0.289 -0.508,0.565 -0.658,0.828c-0.149,0.263 -0.248,0.512 -0.297,0.746c-0.048,0.235 -0.055,0.452 -0.021,0.65c0.034,0.197 0.086,0.377 0.157,0.538c0.071,0.162 0.153,0.303 0.246,0.425c0.094,0.121 0.18,0.222 0.259,0.301c0.074,0.073 0.173,0.158 0.297,0.254c0.125,0.097 0.267,0.18 0.429,0.251c0.161,0.07 0.34,0.123 0.538,0.157c0.198,0.034 0.415,0.027 0.649,-0.022c0.235,-0.048 0.484,-0.147 0.747,-0.297c0.263,-0.149 0.539,-0.369 0.828,-0.657l3.699,-3.7l0.611,0.611l-3.767,3.768Z" style="fill-rule:nonzero;"/><path d="M88.776,226.281l-0.611,-0.611l6.007,-6.007l0.611,0.611l-6.007,6.007Z" style="fill-rule:nonzero;"/></svg>