<?xml version="1.0" encoding="UTF-8" standalone="no"?><!DOCTYPE svg PUBLIC "-//W3C//DTD SVG 1.1//EN" "http://www.w3.org/Graphics/SVG/1.1/DTD/svg11.dtd"><svg width="100%" height="100%" viewBox="0 0 291 291" version="1.1" xmlns="http://www.w3.org/2000/svg" xmlns:xlink="http://www.w3.org/1999/xlink" xml:space="preserve" xmlns:serif="http://www.serif.com/" style="fill-rule:evenodd;clip-rule:evenodd;stroke-linecap:round;stroke-linejoin:round;stroke-miterlimit:1.5;"><circle cx="145.459" cy="145.459" r="145.009" style="fill:#f1a21b;stroke:#191616;stroke-width:0.9px;"/><path d="M145.459,35.374l0,220.17c-60.757,0 -110.085,-49.327 -110.085,-110.085c0,-60.757 49.328,-110.085 110.085,-110.085Z" style="fill:#ceddbb;stroke:#191616;stroke-width:1px;"/><path d="M145.459,255.544l0,-220.17c60.758,0 110.085,49.328 110.085,110.085c0,60.758 -49.327,110.085 -110.085,110.085Z" style="fill:#9cc6f3;stroke:#191616;stroke-width:1px;"/><circle cx="145.459" cy="145.459" r="69.634" style="fill:#d7cccc;stroke:#191616;stroke-width:0.9px;"/><g transform="matrix(1,0,0,1,-244.709,-127.32)"><g transform="matrix(0.747454,-0.664313,0.664313,0.747454,-72.0142,297.947)"><g transform="matrix(18,0,0,18,355.863,243.689)"><path d="M0.619,-0.27c0,0.039 -0.005,0.075 -0.014,0.11c-0.01,0.035 -0.025,0.065 -0.046,0.092c-0.021,0.026 -0.049,0.047 -0.083,0.063c-0.034,0.015 -0.075,0.023 -0.124,0.023c-0.049,0 -0.09,-0.008 -0.124,-0.023c-0.034,-0.016 -0.061,-0.037 -0.082,-0.063c-0.021,-0.027 -0.037,-0.057 -0.046,-0.092c-0.01,-0.035 -0.015,-0.071 -0.015,-0.11l0,-0.438l0.084,0l0,0.426c0,0.029 0.003,0.056 0.009,0.083c0.006,0.027 0.016,0.05 0.03,0.071c0.014,0.021 0.033,0.037 0.056,0.049c0.023,0.013 0.053,0.019 0.088,0.019c0.035,-0 0.065,-0.006 0.088,-0.019c0.023,-0.012 0.042,-0.028 0.056,-0.049c0.014,-0.021 0.024,-0.044 0.03,-0.071c0.006,-0.027 0.009,-0.054 0.009,-0.083l0,-0.426l0.084,0l0,0.438Z" style="fill-rule:nonzero;"/></g></g><g transform="matrix(0.876794,-0.480866,0.480866,0.876794,-68.2006,204.787)"><g transform="matrix(18,0,0,18,365.537,235.485)"><path d="M0.084,-0.123c0.015,0.019 0.032,0.035 0.051,0.046c0.018,0.011 0.041,0.017 0.069,0.017c0.012,0 0.024,-0.001 0.036,-0.004c0.013,-0.003 0.024,-0.007 0.034,-0.013c0.01,-0.006 0.018,-0.014 0.024,-0.023c0.006,-0.008 0.009,-0.019 0.009,-0.032c-0,-0.013 -0.003,-0.023 -0.009,-0.031c-0.005,-0.008 -0.013,-0.015 -0.022,-0.02c-0.009,-0.006 -0.02,-0.011 -0.032,-0.014c-0.012,-0.003 -0.024,-0.006 -0.037,-0.009c-0.022,-0.005 -0.043,-0.01 -0.063,-0.016c-0.02,-0.006 -0.038,-0.014 -0.053,-0.023c-0.015,-0.01 -0.027,-0.023 -0.036,-0.038c-0.009,-0.015 -0.013,-0.035 -0.013,-0.059c-0,-0.023 0.005,-0.043 0.015,-0.06c0.01,-0.017 0.023,-0.032 0.04,-0.043c0.017,-0.011 0.035,-0.02 0.056,-0.026c0.021,-0.006 0.042,-0.009 0.064,-0.009c0.033,0 0.064,0.007 0.092,0.02c0.029,0.013 0.051,0.035 0.067,0.065l-0.065,0.043c-0.01,-0.017 -0.023,-0.03 -0.04,-0.04c-0.016,-0.011 -0.036,-0.016 -0.059,-0.016c-0.011,-0 -0.022,0.001 -0.033,0.004c-0.011,0.003 -0.02,0.007 -0.029,0.012c-0.009,0.005 -0.016,0.012 -0.022,0.021c-0.005,0.008 -0.008,0.017 -0.008,0.028c-0,0.01 0.003,0.018 0.009,0.025c0.007,0.007 0.015,0.014 0.026,0.019c0.011,0.005 0.024,0.01 0.038,0.014c0.015,0.004 0.03,0.007 0.045,0.01c0.021,0.004 0.04,0.009 0.059,0.015c0.019,0.007 0.035,0.015 0.049,0.026c0.014,0.011 0.025,0.024 0.033,0.04c0.008,0.016 0.012,0.036 0.012,0.059c-0,0.027 -0.005,0.049 -0.016,0.068c-0.011,0.019 -0.025,0.034 -0.043,0.045c-0.017,0.012 -0.037,0.021 -0.06,0.026c-0.022,0.005 -0.045,0.008 -0.068,0.008c-0.04,-0 -0.075,-0.006 -0.104,-0.019c-0.029,-0.012 -0.055,-0.035 -0.078,-0.068l0.062,-0.048Z" style="fill-rule:nonzero;"/></g></g><g transform="matrix(0.955491,-0.295021,0.295021,0.955491,-51.7845,120.133)"><g transform="matrix(18,0,0,18,372.246,231.688)"><path d="M0.492,-0.085c-0.028,0.036 -0.059,0.061 -0.092,0.076c-0.033,0.014 -0.072,0.021 -0.116,0.021c-0.037,0 -0.07,-0.006 -0.099,-0.019c-0.029,-0.013 -0.054,-0.031 -0.075,-0.053c-0.02,-0.022 -0.036,-0.048 -0.047,-0.078c-0.011,-0.03 -0.016,-0.062 -0.016,-0.096c-0,-0.036 0.006,-0.069 0.018,-0.1c0.012,-0.03 0.029,-0.056 0.05,-0.078c0.021,-0.021 0.047,-0.038 0.076,-0.05c0.029,-0.012 0.061,-0.018 0.096,-0.018c0.033,0 0.063,0.006 0.09,0.017c0.027,0.011 0.051,0.026 0.071,0.047c0.019,0.022 0.034,0.047 0.045,0.078c0.011,0.03 0.016,0.064 0.016,0.103l0,0.025l-0.378,0c0.001,0.02 0.006,0.039 0.014,0.058c0.009,0.018 0.02,0.034 0.033,0.048c0.013,0.013 0.029,0.024 0.047,0.032c0.018,0.008 0.038,0.012 0.059,0.012c0.034,0 0.063,-0.006 0.086,-0.018c0.023,-0.012 0.044,-0.03 0.063,-0.053l0.059,0.046Zm-0.067,-0.191c-0.001,-0.04 -0.014,-0.072 -0.039,-0.096c-0.025,-0.024 -0.059,-0.036 -0.102,-0.036c-0.043,-0 -0.078,0.012 -0.105,0.036c-0.027,0.024 -0.043,0.056 -0.048,0.096l0.294,0Z" style="fill-rule:nonzero;"/></g></g><g transform="matrix(0.997515,0.0704477,-0.0704477,0.997515,17.0157,-26.6874)"><g transform="matrix(18,0,0,18,386.863,227.892)"><path d="M0.584,-0.562c-0.021,-0.029 -0.048,-0.05 -0.079,-0.065c-0.031,-0.014 -0.064,-0.021 -0.098,-0.021c-0.039,0 -0.076,0.008 -0.109,0.024c-0.033,0.016 -0.061,0.037 -0.085,0.065c-0.024,0.026 -0.043,0.058 -0.056,0.093c-0.013,0.036 -0.02,0.073 -0.02,0.112c-0,0.041 0.007,0.08 0.02,0.115c0.013,0.036 0.032,0.067 0.055,0.094c0.024,0.026 0.052,0.047 0.085,0.062c0.033,0.015 0.07,0.023 0.11,0.023c0.043,-0 0.082,-0.009 0.116,-0.026c0.034,-0.017 0.064,-0.041 0.089,-0.073l0.063,0.053c-0.032,0.043 -0.071,0.074 -0.116,0.094c-0.045,0.02 -0.095,0.03 -0.152,0.03c-0.051,-0 -0.098,-0.009 -0.142,-0.028c-0.044,-0.019 -0.082,-0.045 -0.115,-0.078c-0.032,-0.033 -0.057,-0.072 -0.076,-0.117c-0.018,-0.045 -0.027,-0.095 -0.027,-0.149c-0,-0.052 0.009,-0.101 0.026,-0.146c0.018,-0.045 0.043,-0.085 0.075,-0.118c0.032,-0.033 0.07,-0.06 0.114,-0.079c0.044,-0.019 0.092,-0.029 0.145,-0.029c0.048,0 0.094,0.009 0.138,0.026c0.045,0.017 0.082,0.046 0.112,0.085l-0.073,0.053Z" style="fill-rule:nonzero;"/></g></g><g transform="matrix(0.951761,0.306839,-0.306839,0.951761,89.5335,-111.541)"><g transform="matrix(18,0,0,18,399.514,228.985)"><path d="M0.068,-0.408c0.024,-0.025 0.053,-0.043 0.085,-0.054c0.033,-0.012 0.067,-0.018 0.101,-0.018c0.069,0 0.119,0.016 0.15,0.049c0.031,0.033 0.046,0.082 0.046,0.149l0,0.201c0,0.013 0.001,0.027 0.002,0.042c0.001,0.014 0.003,0.027 0.005,0.039l-0.075,0c-0.003,-0.011 -0.004,-0.022 -0.005,-0.035c0,-0.013 0,-0.025 0,-0.035l-0.002,0c-0.015,0.024 -0.036,0.044 -0.062,0.059c-0.025,0.015 -0.056,0.023 -0.092,0.023c-0.024,0 -0.047,-0.003 -0.068,-0.009c-0.021,-0.006 -0.039,-0.015 -0.054,-0.026c-0.016,-0.012 -0.029,-0.027 -0.038,-0.044c-0.009,-0.017 -0.014,-0.037 -0.014,-0.06c0,-0.039 0.01,-0.069 0.03,-0.091c0.02,-0.022 0.045,-0.038 0.074,-0.049c0.03,-0.011 0.062,-0.017 0.096,-0.02c0.035,-0.003 0.066,-0.004 0.095,-0.004l0.03,0l0,-0.014c0,-0.034 -0.01,-0.06 -0.03,-0.077c-0.021,-0.017 -0.049,-0.026 -0.086,-0.026c-0.025,0 -0.05,0.004 -0.074,0.013c-0.025,0.008 -0.046,0.021 -0.065,0.038l-0.049,-0.051Zm0.226,0.183c-0.05,0 -0.09,0.007 -0.119,0.021c-0.029,0.014 -0.044,0.037 -0.044,0.069c0,0.029 0.01,0.05 0.03,0.063c0.019,0.012 0.044,0.018 0.073,0.018c0.023,0 0.043,-0.004 0.06,-0.011c0.017,-0.008 0.031,-0.018 0.042,-0.031c0.011,-0.013 0.02,-0.027 0.026,-0.044c0.006,-0.017 0.009,-0.036 0.01,-0.055l0,-0.03l-0.078,0Z" style="fill-rule:nonzero;"/></g></g><g transform="matrix(0.8757,0.482855,-0.482855,0.8757,162.76,-168.353)"><g transform="matrix(18,0,0,18,408.373,231.952)"><path d="M0.084,-0.123c0.015,0.019 0.032,0.035 0.051,0.046c0.018,0.011 0.041,0.017 0.069,0.017c0.012,0 0.024,-0.001 0.036,-0.004c0.013,-0.003 0.024,-0.007 0.034,-0.013c0.01,-0.006 0.018,-0.014 0.024,-0.023c0.006,-0.008 0.009,-0.019 0.009,-0.032c-0,-0.013 -0.003,-0.023 -0.009,-0.031c-0.005,-0.008 -0.013,-0.015 -0.022,-0.02c-0.009,-0.006 -0.02,-0.011 -0.032,-0.014c-0.012,-0.003 -0.024,-0.006 -0.037,-0.009c-0.022,-0.005 -0.043,-0.01 -0.063,-0.016c-0.02,-0.006 -0.038,-0.014 -0.053,-0.023c-0.015,-0.01 -0.027,-0.023 -0.036,-0.038c-0.009,-0.015 -0.013,-0.035 -0.013,-0.059c-0,-0.023 0.005,-0.043 0.015,-0.06c0.01,-0.017 0.023,-0.032 0.04,-0.043c0.017,-0.011 0.035,-0.02 0.056,-0.026c0.021,-0.006 0.042,-0.009 0.064,-0.009c0.033,0 0.064,0.007 0.092,0.02c0.029,0.013 0.051,0.035 0.067,0.065l-0.065,0.043c-0.01,-0.017 -0.023,-0.03 -0.04,-0.04c-0.016,-0.011 -0.036,-0.016 -0.059,-0.016c-0.011,-0 -0.022,0.001 -0.033,0.004c-0.011,0.003 -0.02,0.007 -0.029,0.012c-0.009,0.005 -0.016,0.012 -0.022,0.021c-0.005,0.008 -0.008,0.017 -0.008,0.028c-0,0.01 0.003,0.018 0.009,0.025c0.007,0.007 0.015,0.014 0.026,0.019c0.011,0.005 0.024,0.01 0.038,0.014c0.015,0.004 0.03,0.007 0.045,0.01c0.021,0.004 0.04,0.009 0.059,0.015c0.019,0.007 0.035,0.015 0.049,0.026c0.014,0.011 0.025,0.024 0.033,0.04c0.008,0.016 0.012,0.036 0.012,0.059c-0,0.027 -0.005,0.049 -0.016,0.068c-0.011,0.019 -0.025,0.034 -0.043,0.045c-0.017,0.012 -0.037,0.021 -0.06,0.026c-0.022,0.005 -0.045,0.008 -0.068,0.008c-0.04,-0 -0.075,-0.006 -0.104,-0.019c-0.029,-0.012 -0.055,-0.035 -0.078,-0.068l0.062,-0.048Z" style="fill-rule:nonzero;"/></g></g><g transform="matrix(0.762118,0.647438,-0.647438,0.762118,251.286,-212.754)"><g transform="matrix(18,0,0,18,415.167,235.583)"><path d="M0.492,-0.085c-0.028,0.036 -0.059,0.061 -0.092,0.076c-0.033,0.014 -0.072,0.021 -0.116,0.021c-0.037,0 -0.07,-0.006 -0.099,-0.019c-0.029,-0.013 -0.054,-0.031 -0.075,-0.053c-0.02,-0.022 -0.036,-0.048 -0.047,-0.078c-0.011,-0.03 -0.016,-0.062 -0.016,-0.096c-0,-0.036 0.006,-0.069 0.018,-0.1c0.012,-0.03 0.029,-0.056 0.05,-0.078c0.021,-0.021 0.047,-0.038 0.076,-0.05c0.029,-0.012 0.061,-0.018 0.096,-0.018c0.033,0 0.063,0.006 0.09,0.017c0.027,0.011 0.051,0.026 0.071,0.047c0.019,0.022 0.034,0.047 0.045,0.078c0.011,0.03 0.016,0.064 0.016,0.103l0,0.025l-0.378,0c0.001,0.02 0.006,0.039 0.014,0.058c0.009,0.018 0.02,0.034 0.033,0.048c0.013,0.013 0.029,0.024 0.047,0.032c0.018,0.008 0.038,0.012 0.059,0.012c0.034,0 0.063,-0.006 0.086,-0.018c0.023,-0.012 0.044,-0.03 0.063,-0.053l0.059,0.046Zm-0.067,-0.191c-0.001,-0.04 -0.014,-0.072 -0.039,-0.096c-0.025,-0.024 -0.059,-0.036 -0.102,-0.036c-0.043,-0 -0.078,0.012 -0.105,0.036c-0.027,0.024 -0.043,0.056 -0.048,0.096l0.294,0Z" style="fill-rule:nonzero;"/></g></g></g><circle cx="145.459" cy="145.459" r="37.186" style="fill:#f2d6a4;stroke:#191616;stroke-width:1px;"/><path d="M121.041,140.062l7.396,-0l0,2.214l-4.997,0l-0,2.03l4.72,-0l0,2.214l-4.72,0l-0,2.214l5.274,0l-0,2.215l-7.673,-0l-0,-10.887Z" style="fill-rule:nonzero;"/><path d="M130.344,143.476l2.214,-0l0,1.014l0.031,0c0.072,-0.143 0.174,-0.287 0.307,-0.43c0.134,-0.144 0.292,-0.272 0.477,-0.385c0.184,-0.112 0.395,-0.205 0.63,-0.276c0.236,-0.072 0.492,-0.108 0.769,-0.108c0.585,-0 1.056,0.09 1.415,0.269c0.359,0.179 0.638,0.428 0.838,0.746c0.2,0.318 0.336,0.692 0.407,1.122c0.072,0.431 0.108,0.897 0.108,1.4l0,4.121l-2.306,-0l-0,-3.66c-0,-0.215 -0.008,-0.438 -0.024,-0.669c-0.015,-0.231 -0.061,-0.443 -0.138,-0.638c-0.077,-0.195 -0.195,-0.354 -0.354,-0.477c-0.158,-0.123 -0.387,-0.184 -0.684,-0.184c-0.297,-0 -0.538,0.054 -0.723,0.161c-0.184,0.108 -0.325,0.251 -0.422,0.431c-0.098,0.179 -0.162,0.382 -0.193,0.607c-0.03,0.226 -0.046,0.461 -0.046,0.707l0,3.722l-2.306,-0l-0,-7.473Z" style="fill-rule:nonzero;"/><path d="M144.26,145.321l-2.03,-0l-0,2.491c-0,0.205 0.01,0.392 0.031,0.561c0.02,0.169 0.066,0.315 0.138,0.438c0.072,0.123 0.182,0.218 0.331,0.285c0.148,0.066 0.346,0.1 0.592,0.1c0.123,-0 0.284,-0.013 0.484,-0.039c0.2,-0.025 0.351,-0.084 0.454,-0.177l-0,1.922c-0.257,0.093 -0.523,0.154 -0.8,0.185c-0.277,0.031 -0.548,0.046 -0.815,0.046c-0.389,0 -0.748,-0.041 -1.076,-0.123c-0.328,-0.082 -0.615,-0.213 -0.861,-0.392c-0.246,-0.179 -0.439,-0.413 -0.577,-0.7c-0.138,-0.287 -0.208,-0.635 -0.208,-1.045l0,-3.552l-1.476,-0l0,-1.845l1.476,-0l0,-2.215l2.307,0l-0,2.215l2.03,-0l-0,1.845Z" style="fill-rule:nonzero;"/><path d="M145.459,143.476l2.307,-0l-0,7.473l-2.307,-0l0,-7.473Zm-0.184,-2.353c-0,-0.369 0.13,-0.684 0.392,-0.946c0.261,-0.261 0.576,-0.392 0.945,-0.392c0.369,0 0.685,0.131 0.946,0.392c0.261,0.262 0.392,0.577 0.392,0.946c0,0.369 -0.131,0.684 -0.392,0.946c-0.261,0.261 -0.577,0.392 -0.946,0.392c-0.369,-0 -0.684,-0.131 -0.945,-0.392c-0.262,-0.262 -0.392,-0.577 -0.392,-0.946Z" style="fill-rule:nonzero;"/><path d="M154.516,145.321l-2.03,-0l0,2.491c0,0.205 0.011,0.392 0.031,0.561c0.021,0.169 0.067,0.315 0.138,0.438c0.072,0.123 0.182,0.218 0.331,0.285c0.149,0.066 0.346,0.1 0.592,0.1c0.123,-0 0.285,-0.013 0.484,-0.039c0.2,-0.025 0.352,-0.084 0.454,-0.177l0,1.922c-0.256,0.093 -0.523,0.154 -0.8,0.185c-0.276,0.031 -0.548,0.046 -0.815,0.046c-0.389,0 -0.748,-0.041 -1.076,-0.123c-0.328,-0.082 -0.615,-0.213 -0.861,-0.392c-0.246,-0.179 -0.438,-0.413 -0.577,-0.7c-0.138,-0.287 -0.207,-0.635 -0.207,-1.045l-0,-3.552l-1.476,-0l-0,-1.845l1.476,-0l-0,-2.215l2.306,0l0,2.215l2.03,-0l0,1.845Z" style="fill-rule:nonzero;"/><path d="M160.375,150.011l-0.031,-0c-0.256,0.399 -0.597,0.686 -1.023,0.861c-0.425,0.174 -0.874,0.261 -1.345,0.261c-0.349,0 -0.684,-0.049 -1.007,-0.146c-0.323,-0.097 -0.608,-0.243 -0.854,-0.438c-0.246,-0.195 -0.441,-0.436 -0.584,-0.723c-0.144,-0.287 -0.215,-0.62 -0.215,-0.999c-0,-0.431 0.079,-0.795 0.238,-1.092c0.159,-0.297 0.374,-0.543 0.646,-0.738c0.271,-0.195 0.582,-0.346 0.93,-0.454c0.349,-0.107 0.71,-0.187 1.084,-0.238c0.374,-0.051 0.748,-0.082 1.123,-0.092c0.374,-0.011 0.72,-0.016 1.038,-0.016c-0,-0.41 -0.147,-0.735 -0.439,-0.976c-0.292,-0.241 -0.638,-0.362 -1.038,-0.362c-0.379,0 -0.725,0.08 -1.038,0.239c-0.312,0.159 -0.592,0.376 -0.838,0.653l-1.23,-1.261c0.431,-0.399 0.933,-0.699 1.507,-0.899c0.574,-0.2 1.169,-0.3 1.784,-0.3c0.676,-0 1.233,0.085 1.668,0.254c0.436,0.169 0.785,0.417 1.046,0.745c0.261,0.329 0.443,0.731 0.546,1.208c0.102,0.476 0.154,1.027 0.154,1.653l-0,3.798l-2.122,-0l-0,-0.938Zm-0.569,-2.338c-0.175,0 -0.392,0.008 -0.654,0.023c-0.261,0.016 -0.512,0.059 -0.753,0.131c-0.241,0.072 -0.446,0.18 -0.615,0.323c-0.17,0.144 -0.254,0.343 -0.254,0.6c-0,0.277 0.118,0.482 0.354,0.615c0.235,0.133 0.481,0.2 0.738,0.2c0.225,-0 0.443,-0.031 0.653,-0.093c0.21,-0.061 0.397,-0.148 0.561,-0.261c0.164,-0.113 0.295,-0.256 0.392,-0.431c0.098,-0.174 0.147,-0.379 0.147,-0.615l-0,-0.492l-0.569,0Z" style="fill-rule:nonzero;"/><path d="M168.171,145.674c-0.339,-0.42 -0.785,-0.63 -1.338,-0.63c-0.195,-0 -0.385,0.046 -0.569,0.138c-0.185,0.093 -0.277,0.251 -0.277,0.477c0,0.185 0.095,0.32 0.285,0.407c0.189,0.088 0.43,0.165 0.722,0.231c0.292,0.067 0.605,0.139 0.938,0.215c0.333,0.077 0.646,0.198 0.938,0.362c0.292,0.164 0.533,0.387 0.723,0.669c0.19,0.282 0.284,0.658 0.284,1.13c0,0.482 -0.105,0.879 -0.315,1.192c-0.21,0.312 -0.479,0.563 -0.807,0.753c-0.328,0.19 -0.697,0.323 -1.107,0.4c-0.41,0.077 -0.815,0.115 -1.215,0.115c-0.523,0 -1.051,-0.074 -1.584,-0.223c-0.533,-0.148 -0.984,-0.412 -1.353,-0.792l1.399,-1.553c0.216,0.267 0.454,0.469 0.715,0.608c0.262,0.138 0.567,0.207 0.915,0.207c0.267,0 0.508,-0.038 0.723,-0.115c0.215,-0.077 0.323,-0.218 0.323,-0.423c-0,-0.195 -0.095,-0.341 -0.285,-0.438c-0.189,-0.098 -0.43,-0.18 -0.722,-0.246c-0.292,-0.067 -0.605,-0.139 -0.938,-0.216c-0.333,-0.076 -0.646,-0.192 -0.938,-0.346c-0.292,-0.153 -0.533,-0.371 -0.723,-0.653c-0.19,-0.282 -0.284,-0.659 -0.284,-1.13c-0,-0.441 0.089,-0.82 0.269,-1.138c0.179,-0.318 0.415,-0.579 0.707,-0.784c0.292,-0.205 0.628,-0.357 1.007,-0.454c0.379,-0.097 0.764,-0.146 1.153,-0.146c0.492,-0 0.99,0.072 1.492,0.215c0.502,0.144 0.928,0.4 1.276,0.769l-1.414,1.399Z" style="fill-rule:nonzero;"/><path d="M66.192,91.3l1.552,-0.896c0.388,-0.224 0.694,-0.455 0.918,-0.692c0.225,-0.237 0.379,-0.469 0.464,-0.696c0.084,-0.226 0.111,-0.452 0.078,-0.676c-0.032,-0.223 -0.109,-0.44 -0.23,-0.651c-0.117,-0.202 -0.264,-0.373 -0.442,-0.512c-0.177,-0.14 -0.387,-0.232 -0.628,-0.276c-0.241,-0.044 -0.519,-0.027 -0.834,0.053c-0.315,0.079 -0.667,0.231 -1.055,0.455l-1.552,0.896l1.729,2.995Zm2.765,4.789l-0.873,0.504l-4.956,-8.584l2.644,-1.526c0.873,-0.504 1.671,-0.712 2.396,-0.624c0.724,0.089 1.308,0.517 1.752,1.284c0.345,0.599 0.447,1.21 0.307,1.835c-0.14,0.626 -0.547,1.176 -1.221,1.651l4.825,2.646l-1.067,0.616l-4.655,-2.631l-1.455,0.84l2.303,3.989Z" style="fill-rule:nonzero;"/><path d="M75.685,91.138l4.595,-2.653l0.462,0.8l-5.468,3.157l-4.956,-8.584l5.323,-3.073l0.462,0.8l-4.45,2.569l1.687,2.922l4.159,-2.401l0.462,0.8l-4.159,2.401l1.883,3.262Z" style="fill-rule:nonzero;"/><path d="M82.389,78.78c-0.702,-0.338 -1.417,-0.297 -2.144,0.123c-0.227,0.131 -0.432,0.289 -0.615,0.476c-0.183,0.186 -0.325,0.393 -0.427,0.618c-0.101,0.226 -0.147,0.468 -0.138,0.727c0.009,0.258 0.091,0.521 0.245,0.788c0.224,0.388 0.507,0.626 0.849,0.714c0.342,0.088 0.714,0.108 1.117,0.059c0.402,-0.05 0.827,-0.131 1.274,-0.243c0.447,-0.113 0.884,-0.171 1.313,-0.176c0.428,-0.005 0.838,0.079 1.229,0.252c0.391,0.173 0.735,0.518 1.034,1.036c0.224,0.388 0.343,0.785 0.357,1.192c0.014,0.407 -0.054,0.794 -0.203,1.16c-0.15,0.366 -0.36,0.703 -0.63,1.01c-0.27,0.307 -0.575,0.558 -0.914,0.754c-0.525,0.304 -1.082,0.493 -1.669,0.568c-0.587,0.075 -1.177,-0.019 -1.77,-0.28l0.459,-1.025c0.368,0.208 0.773,0.311 1.214,0.31c0.441,-0.001 0.888,-0.133 1.34,-0.394c0.219,-0.126 0.417,-0.286 0.596,-0.481c0.178,-0.195 0.316,-0.409 0.413,-0.643c0.096,-0.233 0.145,-0.48 0.147,-0.739c0.001,-0.26 -0.071,-0.514 -0.216,-0.765c-0.172,-0.299 -0.379,-0.511 -0.618,-0.637c-0.24,-0.126 -0.501,-0.196 -0.784,-0.21c-0.283,-0.015 -0.582,0.01 -0.896,0.072c-0.314,0.063 -0.636,0.13 -0.966,0.203c-0.331,0.072 -0.66,0.127 -0.988,0.165c-0.328,0.039 -0.645,0.031 -0.951,-0.024c-0.307,-0.055 -0.599,-0.177 -0.875,-0.368c-0.277,-0.19 -0.53,-0.483 -0.759,-0.879c-0.238,-0.413 -0.367,-0.818 -0.386,-1.216c-0.02,-0.398 0.043,-0.774 0.189,-1.128c0.146,-0.353 0.357,-0.674 0.632,-0.963c0.276,-0.288 0.587,-0.533 0.935,-0.733c0.485,-0.28 0.969,-0.458 1.454,-0.533c0.485,-0.075 1.009,-0.017 1.572,0.175l-0.42,1.035Z" style="fill-rule:nonzero;"/><path d="M91.957,82.81l-0.873,0.504l-4.494,-7.784l-2.873,1.659l-0.462,-0.8l6.62,-3.822l0.462,0.8l-2.874,1.659l4.494,7.784Z" style="fill-rule:nonzero;"/><path d="M98.899,74.729l3.722,-2.149l-4.459,-3.44l0.737,5.589Zm0.491,3.79l-1.019,0.588l-1.222,-10.74l0.849,-0.49l8.69,6.428l-1.018,0.588l-2.248,-1.709l-4.389,2.534l0.357,2.801Z" style="fill-rule:nonzero;"/><path d="M105.96,68.34l1.407,-0.812c0.388,-0.224 0.694,-0.455 0.918,-0.692c0.224,-0.237 0.378,-0.469 0.463,-0.696c0.085,-0.226 0.111,-0.452 0.079,-0.676c-0.033,-0.223 -0.109,-0.44 -0.231,-0.651c-0.116,-0.202 -0.264,-0.373 -0.441,-0.512c-0.178,-0.14 -0.387,-0.232 -0.628,-0.276c-0.241,-0.044 -0.52,-0.027 -0.835,0.053c-0.315,0.079 -0.666,0.231 -1.054,0.455l-1.407,0.812l1.729,2.995Zm-3.064,-3.291l2.498,-1.442c0.873,-0.504 1.672,-0.712 2.396,-0.624c0.725,0.089 1.309,0.517 1.752,1.284c0.443,0.768 0.523,1.49 0.24,2.166c-0.284,0.675 -0.862,1.265 -1.735,1.769l-1.625,0.938l2.303,3.989l-0.873,0.504l-4.956,-8.584Z" style="fill-rule:nonzero;"/><path d="M115.685,69.111l-0.873,0.504l-4.956,-8.584l0.873,-0.504l4.956,8.584Z" style="fill-rule:nonzero;"/><path d="M167.039,237.202l1.673,-0.966c0.315,-0.182 0.591,-0.384 0.829,-0.608c0.237,-0.223 0.419,-0.46 0.544,-0.71c0.125,-0.25 0.188,-0.51 0.188,-0.779c0.001,-0.27 -0.081,-0.546 -0.244,-0.829c-0.327,-0.566 -0.751,-0.881 -1.274,-0.946c-0.522,-0.065 -1.135,0.106 -1.838,0.512l-1.782,1.029l1.904,3.297Zm-2.324,-4.025l1.758,-1.015c0.21,-0.121 0.403,-0.268 0.579,-0.439c0.175,-0.172 0.311,-0.366 0.407,-0.583c0.096,-0.217 0.141,-0.451 0.136,-0.701c-0.004,-0.251 -0.086,-0.513 -0.244,-0.788c-0.052,-0.089 -0.142,-0.204 -0.272,-0.345c-0.13,-0.14 -0.304,-0.255 -0.522,-0.345c-0.219,-0.089 -0.483,-0.122 -0.794,-0.099c-0.31,0.022 -0.671,0.153 -1.083,0.391l-1.673,0.966l1.708,2.958Zm-3.043,-3.254l2.558,-1.477c0.356,-0.206 0.72,-0.368 1.094,-0.486c0.373,-0.119 0.738,-0.168 1.095,-0.148c0.356,0.021 0.691,0.124 1.003,0.31c0.312,0.186 0.585,0.482 0.818,0.886c0.271,0.468 0.372,0.946 0.303,1.434c-0.069,0.487 -0.314,0.927 -0.733,1.32l0.014,0.024c0.634,-0.301 1.231,-0.363 1.792,-0.186c0.56,0.178 1.023,0.582 1.387,1.212c0.079,0.138 0.161,0.36 0.247,0.666c0.085,0.306 0.094,0.654 0.028,1.043c-0.067,0.388 -0.25,0.799 -0.551,1.231c-0.3,0.432 -0.793,0.846 -1.48,1.243l-2.619,1.512l-4.956,-8.584Z" style="fill-rule:nonzero;"/><path d="M173.63,230.39l3.722,-2.149l-4.459,-3.439l0.737,5.588Zm0.491,3.791l-1.019,0.588l-1.222,-10.74l0.849,-0.49l8.69,6.428l-1.018,0.588l-2.248,-1.71l-4.389,2.534l0.357,2.802Z" style="fill-rule:nonzero;"/><path d="M182.508,219.784c-0.702,-0.338 -1.417,-0.297 -2.144,0.123c-0.226,0.13 -0.431,0.289 -0.614,0.475c-0.184,0.187 -0.326,0.393 -0.427,0.619c-0.102,0.225 -0.148,0.468 -0.139,0.726c0.01,0.259 0.091,0.522 0.245,0.788c0.224,0.388 0.507,0.627 0.849,0.715c0.342,0.088 0.714,0.107 1.117,0.058c0.403,-0.049 0.827,-0.13 1.274,-0.243c0.447,-0.112 0.885,-0.171 1.313,-0.176c0.428,-0.004 0.838,0.08 1.229,0.253c0.391,0.173 0.736,0.518 1.034,1.035c0.224,0.388 0.343,0.786 0.357,1.193c0.014,0.406 -0.053,0.793 -0.203,1.16c-0.149,0.366 -0.359,0.703 -0.629,1.01c-0.27,0.306 -0.575,0.558 -0.915,0.754c-0.525,0.303 -1.081,0.492 -1.668,0.567c-0.588,0.075 -1.178,-0.018 -1.77,-0.279l0.459,-1.025c0.368,0.208 0.772,0.311 1.213,0.31c0.441,-0.002 0.888,-0.133 1.341,-0.394c0.218,-0.126 0.416,-0.287 0.595,-0.481c0.179,-0.195 0.316,-0.409 0.413,-0.643c0.097,-0.234 0.146,-0.48 0.147,-0.74c0.001,-0.259 -0.071,-0.514 -0.215,-0.764c-0.173,-0.299 -0.379,-0.512 -0.619,-0.638c-0.239,-0.125 -0.501,-0.195 -0.784,-0.21c-0.283,-0.014 -0.582,0.01 -0.896,0.073c-0.314,0.063 -0.636,0.13 -0.966,0.202c-0.33,0.072 -0.659,0.128 -0.987,0.166c-0.328,0.039 -0.646,0.03 -0.952,-0.024c-0.306,-0.055 -0.598,-0.178 -0.875,-0.368c-0.277,-0.19 -0.53,-0.484 -0.759,-0.88c-0.238,-0.412 -0.366,-0.817 -0.386,-1.215c-0.02,-0.398 0.043,-0.774 0.189,-1.128c0.146,-0.354 0.357,-0.675 0.633,-0.963c0.275,-0.289 0.586,-0.533 0.934,-0.734c0.485,-0.28 0.97,-0.457 1.455,-0.532c0.484,-0.075 1.008,-0.017 1.572,0.175l-0.421,1.035Z" style="fill-rule:nonzero;"/><path d="M190.197,224.899l-0.873,0.504l-4.956,-8.584l0.873,-0.504l4.956,8.584Z" style="fill-rule:nonzero;"/><path d="M192.45,214.044c-0.702,-0.338 -1.417,-0.297 -2.144,0.123c-0.226,0.13 -0.431,0.289 -0.614,0.475c-0.184,0.187 -0.326,0.393 -0.427,0.619c-0.102,0.225 -0.148,0.468 -0.139,0.726c0.01,0.259 0.091,0.522 0.245,0.788c0.224,0.388 0.507,0.627 0.849,0.715c0.342,0.088 0.714,0.107 1.117,0.058c0.403,-0.049 0.827,-0.13 1.274,-0.243c0.447,-0.112 0.885,-0.171 1.313,-0.176c0.428,-0.004 0.838,0.08 1.229,0.253c0.391,0.173 0.736,0.518 1.034,1.035c0.224,0.388 0.343,0.786 0.357,1.193c0.014,0.406 -0.054,0.793 -0.203,1.16c-0.149,0.366 -0.359,0.703 -0.629,1.01c-0.27,0.306 -0.575,0.558 -0.915,0.754c-0.525,0.303 -1.081,0.492 -1.669,0.567c-0.587,0.075 -1.177,-0.018 -1.769,-0.279l0.459,-1.025c0.368,0.208 0.772,0.311 1.213,0.31c0.441,-0.002 0.888,-0.133 1.341,-0.394c0.218,-0.126 0.416,-0.287 0.595,-0.481c0.178,-0.195 0.316,-0.409 0.413,-0.643c0.097,-0.234 0.146,-0.48 0.147,-0.74c0.001,-0.259 -0.071,-0.514 -0.215,-0.764c-0.173,-0.299 -0.379,-0.512 -0.619,-0.638c-0.239,-0.125 -0.501,-0.195 -0.784,-0.21c-0.283,-0.014 -0.582,0.01 -0.896,0.073c-0.314,0.063 -0.636,0.13 -0.966,0.202c-0.33,0.072 -0.659,0.128 -0.987,0.166c-0.328,0.039 -0.646,0.03 -0.952,-0.024c-0.306,-0.055 -0.598,-0.178 -0.875,-0.368c-0.277,-0.19 -0.53,-0.484 -0.759,-0.88c-0.238,-0.412 -0.366,-0.817 -0.386,-1.215c-0.02,-0.398 0.043,-0.774 0.189,-1.128c0.146,-0.354 0.357,-0.675 0.633,-0.963c0.275,-0.289 0.586,-0.533 0.934,-0.734c0.485,-0.28 0.97,-0.457 1.455,-0.532c0.484,-0.075 1.008,-0.017 1.572,0.175l-0.421,1.035Z" style="fill-rule:nonzero;"/><path d="M202.927,216.482l1.697,-0.98c0.655,-0.378 1.166,-0.804 1.532,-1.28c0.367,-0.476 0.615,-0.97 0.745,-1.481c0.131,-0.512 0.152,-1.02 0.066,-1.525c-0.087,-0.505 -0.259,-0.98 -0.515,-1.424c-0.257,-0.445 -0.582,-0.831 -0.976,-1.159c-0.394,-0.327 -0.845,-0.563 -1.354,-0.706c-0.508,-0.143 -1.06,-0.174 -1.655,-0.095c-0.595,0.08 -1.22,0.309 -1.875,0.687l-1.697,0.98l4.032,6.983Zm-5.367,-7.279l2.849,-1.645c0.533,-0.308 1.12,-0.529 1.76,-0.661c0.641,-0.133 1.281,-0.144 1.921,-0.034c0.64,0.11 1.249,0.357 1.826,0.74c0.577,0.384 1.071,0.931 1.481,1.643c0.416,0.719 0.644,1.422 0.685,2.11c0.041,0.687 -0.05,1.336 -0.275,1.945c-0.225,0.609 -0.555,1.158 -0.99,1.646c-0.434,0.489 -0.919,0.887 -1.452,1.195l-2.849,1.645l-4.956,-8.584Z" style="fill-rule:nonzero;"/><path d="M210.985,208.823l3.722,-2.149l-4.459,-3.439l0.737,5.588Zm0.491,3.791l-1.019,0.588l-1.221,-10.74l0.848,-0.49l8.691,6.428l-1.019,0.588l-2.248,-1.71l-4.389,2.534l0.357,2.802Z" style="fill-rule:nonzero;"/><path d="M221.866,206.615l-0.873,0.504l-4.494,-7.784l-2.873,1.659l-0.462,-0.8l6.62,-3.822l0.462,0.8l-2.874,1.659l4.494,7.784Z" style="fill-rule:nonzero;"/><path d="M224.613,200.955l3.722,-2.149l-4.459,-3.439l0.737,5.588Zm0.49,3.791l-1.018,0.588l-1.222,-10.74l0.849,-0.49l8.69,6.428l-1.018,0.588l-2.248,-1.71l-4.389,2.534l0.356,2.802Z" style="fill-rule:nonzero;"/><path d="M175.247,57.068l3.039,3.039l2.168,-5.197l-5.207,2.158Zm-3.534,1.455l-0.832,-0.831l10.058,-3.96l0.693,0.693l-3.96,10.058l-0.831,-0.832l1.069,-2.613l-3.584,-3.584l-2.613,1.069Z" style="fill-rule:nonzero;"/><path d="M183.246,62.235l1.148,1.149c0.317,0.317 0.619,0.552 0.906,0.708c0.287,0.155 0.551,0.244 0.792,0.267c0.241,0.023 0.465,-0.01 0.673,-0.099c0.208,-0.089 0.398,-0.22 0.569,-0.391c0.165,-0.165 0.292,-0.352 0.381,-0.56c0.089,-0.207 0.124,-0.433 0.104,-0.678c-0.02,-0.244 -0.109,-0.508 -0.267,-0.792c-0.158,-0.283 -0.396,-0.584 -0.713,-0.9l-1.148,-1.149l-2.445,2.445Zm2.385,-3.811l2.04,2.039c0.712,0.713 1.12,1.431 1.222,2.154c0.103,0.722 -0.16,1.397 -0.787,2.024c-0.627,0.627 -1.303,0.891 -2.029,0.792c-0.726,-0.099 -1.445,-0.505 -2.158,-1.218l-1.327,-1.326l-3.257,3.257l-0.712,-0.713l7.008,-7.009Z" style="fill-rule:nonzero;"/><path d="M185.018,71.828l-0.713,-0.713l7.009,-7.009l0.712,0.713l-7.008,7.009Z" style="fill-rule:nonzero;"/><path d="M194.293,73.283l1.149,1.149c0.317,0.316 0.619,0.552 0.906,0.707c0.287,0.155 0.551,0.245 0.792,0.268c0.24,0.023 0.465,-0.01 0.673,-0.099c0.208,-0.089 0.397,-0.22 0.569,-0.391c0.165,-0.165 0.292,-0.352 0.381,-0.56c0.089,-0.208 0.124,-0.434 0.104,-0.678c-0.02,-0.244 -0.109,-0.508 -0.267,-0.792c-0.159,-0.284 -0.396,-0.584 -0.713,-0.901l-1.148,-1.148l-2.446,2.445Zm2.386,-3.811l2.04,2.039c0.712,0.713 1.12,1.431 1.222,2.153c0.102,0.723 -0.16,1.398 -0.787,2.025c-0.627,0.627 -1.303,0.891 -2.029,0.792c-0.726,-0.099 -1.446,-0.505 -2.158,-1.218l-1.327,-1.326l-3.257,3.257l-0.713,-0.713l7.009,-7.009Z" style="fill-rule:nonzero;"/><path d="M202.48,76.461c-0.138,0.139 -0.302,0.203 -0.49,0.193c-0.188,-0.01 -0.341,-0.074 -0.46,-0.193c-0.119,-0.119 -0.183,-0.272 -0.193,-0.46c-0.01,-0.188 0.054,-0.352 0.193,-0.49c0.139,-0.139 0.302,-0.203 0.49,-0.193c0.188,0.009 0.342,0.074 0.46,0.193c0.119,0.118 0.183,0.272 0.193,0.46c0.01,0.188 -0.054,0.351 -0.193,0.49Zm-6.563,6.266l-0.653,-0.653l4.633,-4.633l0.653,0.653l-4.633,4.633Z" style="fill-rule:nonzero;"/><path d="M204.975,76.817l0.653,0.654l-3.593,3.593l0.02,0.02c0.198,-0.053 0.406,-0.076 0.623,-0.069c0.218,0.006 0.434,0.041 0.649,0.104c0.214,0.062 0.42,0.15 0.618,0.262c0.198,0.112 0.373,0.244 0.525,0.396c0.594,0.594 0.876,1.19 0.847,1.787c-0.03,0.597 -0.335,1.186 -0.916,1.767l-2.94,2.94l-0.654,-0.653l2.564,-2.564c0.515,-0.515 0.82,-0.998 0.916,-1.451c0.096,-0.452 -0.097,-0.919 -0.579,-1.4c-0.033,-0.033 -0.139,-0.113 -0.317,-0.238c-0.178,-0.125 -0.411,-0.213 -0.698,-0.262c-0.287,-0.05 -0.615,-0.022 -0.985,0.084c-0.369,0.105 -0.765,0.369 -1.188,0.792l-2.376,2.376l-0.653,-0.654l7.484,-7.484Z" style="fill-rule:nonzero;"/><path d="M207.935,90.132c-0.165,-0.165 -0.38,-0.363 -0.644,-0.594c-0.263,-0.231 -0.541,-0.429 -0.831,-0.594c-0.29,-0.165 -0.582,-0.262 -0.876,-0.292c-0.294,-0.03 -0.556,0.071 -0.787,0.302c-0.152,0.152 -0.251,0.314 -0.297,0.485c-0.046,0.172 -0.051,0.345 -0.015,0.52c0.036,0.175 0.104,0.341 0.203,0.5c0.099,0.158 0.214,0.303 0.346,0.435c0.238,0.238 0.484,0.405 0.738,0.5c0.254,0.096 0.508,0.136 0.762,0.119c0.254,-0.016 0.5,-0.087 0.738,-0.213c0.237,-0.125 0.458,-0.29 0.663,-0.495l0.337,-0.336l-0.337,-0.337Zm0.871,-0.198l0.119,-0.119c0.798,-0.798 0.802,-1.593 0.01,-2.385c-0.541,-0.542 -1.195,-0.832 -1.96,-0.872l0.069,-0.861c0.884,-0.013 1.762,0.416 2.633,1.287c0.225,0.225 0.408,0.474 0.55,0.748c0.142,0.273 0.221,0.554 0.237,0.841c0.017,0.287 -0.031,0.579 -0.143,0.876c-0.112,0.297 -0.31,0.587 -0.594,0.871l-2.069,2.069c-0.178,0.178 -0.357,0.373 -0.535,0.584c-0.178,0.212 -0.32,0.39 -0.425,0.535l-0.634,-0.634c0.092,-0.132 0.2,-0.269 0.322,-0.41c0.122,-0.142 0.246,-0.276 0.371,-0.401l-0.02,-0.02c-0.501,0.119 -0.95,0.115 -1.346,-0.01c-0.396,-0.126 -0.782,-0.376 -1.158,-0.752c-0.205,-0.205 -0.375,-0.431 -0.51,-0.679c-0.136,-0.247 -0.22,-0.503 -0.253,-0.767c-0.033,-0.264 -0.01,-0.524 0.07,-0.782c0.079,-0.257 0.231,-0.498 0.455,-0.723c0.376,-0.376 0.769,-0.574 1.178,-0.594c0.409,-0.019 0.813,0.065 1.213,0.253c0.399,0.188 0.778,0.436 1.138,0.742c0.36,0.307 0.678,0.599 0.955,0.876l0.327,0.327Z" style="fill-rule:nonzero;"/><path d="M211.33,93.053l4.277,0.099l0.98,0.98l-4.425,-0.189l0.04,5.069l-1.01,-1.01l0.03,-4.841l-2.436,2.436l-0.653,-0.654l7.484,-7.484l0.653,0.654l-4.94,4.94Z" style="fill-rule:nonzero;"/><path d="M220.577,99.448l0.099,0.099l6.335,0.257l1.02,1.02l-6.712,-0.357l-0.099,7.563l-1.049,-1.049l0.168,-7.058l-0.119,-0.119l-3.613,3.613l-0.713,-0.712l7.009,-7.009l0.713,0.712l-3.039,3.04Z" style="fill-rule:nonzero;"/><path d="M228.17,109.634c0.442,-0.442 0.668,-0.932 0.678,-1.47c0.01,-0.538 -0.223,-1.044 -0.698,-1.519c-0.211,-0.212 -0.457,-0.375 -0.738,-0.49c-0.28,-0.116 -0.564,-0.179 -0.851,-0.189c-0.287,-0.009 -0.564,0.03 -0.832,0.119c-0.267,0.089 -0.496,0.23 -0.688,0.421l3.129,3.128Zm-3.683,-2.613c-0.211,0.25 -0.373,0.524 -0.485,0.821c-0.112,0.297 -0.167,0.596 -0.163,0.896c0.003,0.301 0.061,0.593 0.173,0.876c0.112,0.284 0.284,0.542 0.515,0.773c0.349,0.349 0.732,0.57 1.148,0.663c0.416,0.092 0.795,0.099 1.138,0.02l0.089,0.92c-0.627,0.073 -1.183,0.018 -1.668,-0.163c-0.485,-0.182 -0.919,-0.464 -1.301,-0.846c-0.344,-0.344 -0.601,-0.723 -0.773,-1.139c-0.171,-0.416 -0.254,-0.838 -0.247,-1.267c0.007,-0.429 0.097,-0.853 0.272,-1.272c0.175,-0.419 0.437,-0.804 0.787,-1.153c0.35,-0.35 0.733,-0.614 1.148,-0.792c0.416,-0.179 0.839,-0.271 1.268,-0.278c0.429,-0.006 0.846,0.071 1.252,0.233c0.406,0.162 0.774,0.408 1.104,0.738c0.349,0.349 0.6,0.726 0.752,1.128c0.152,0.403 0.218,0.802 0.198,1.198c-0.02,0.396 -0.12,0.784 -0.302,1.163c-0.181,0.38 -0.431,0.728 -0.747,1.045l-0.297,0.297l-3.861,-3.861Z" style="fill-rule:nonzero;"/><path d="M233.832,112.564l-1.336,-1.336l-2.733,2.732c-0.171,0.172 -0.295,0.329 -0.371,0.47c-0.076,0.142 -0.114,0.273 -0.114,0.392c0,0.118 0.03,0.23 0.089,0.336c0.06,0.106 0.139,0.208 0.238,0.307c0.112,0.112 0.244,0.211 0.396,0.297c0.152,0.086 0.304,0.152 0.455,0.198l-0.574,0.634c-0.356,-0.132 -0.706,-0.37 -1.049,-0.713c-0.126,-0.126 -0.239,-0.272 -0.342,-0.441c-0.102,-0.168 -0.163,-0.355 -0.183,-0.559c-0.02,-0.205 0.013,-0.422 0.099,-0.653c0.086,-0.231 0.258,-0.476 0.515,-0.733l2.92,-2.92l-0.98,-0.98l0.594,-0.594l0.98,0.98l1.307,-1.307l0.653,0.653l-1.306,1.307l1.336,1.336l-0.594,0.594Z" style="fill-rule:nonzero;"/><path d="M238.049,112.03c-0.138,0.138 -0.302,0.203 -0.49,0.193c-0.188,-0.01 -0.341,-0.074 -0.46,-0.193c-0.119,-0.119 -0.183,-0.272 -0.193,-0.46c-0.01,-0.189 0.054,-0.352 0.193,-0.49c0.138,-0.139 0.302,-0.203 0.49,-0.194c0.188,0.01 0.341,0.075 0.46,0.194c0.119,0.118 0.183,0.272 0.193,0.46c0.01,0.188 -0.054,0.351 -0.193,0.49Zm-6.563,6.266l-0.654,-0.653l4.633,-4.633l0.654,0.653l-4.633,4.633Z" style="fill-rule:nonzero;"/><path d="M235.911,117.97c-0.244,0.244 -0.429,0.518 -0.554,0.821c-0.126,0.304 -0.192,0.614 -0.198,0.931c-0.007,0.317 0.046,0.627 0.158,0.93c0.112,0.304 0.29,0.578 0.535,0.822c0.237,0.238 0.506,0.421 0.806,0.549c0.301,0.129 0.611,0.198 0.931,0.208c0.32,0.01 0.633,-0.049 0.94,-0.178c0.307,-0.129 0.593,-0.332 0.857,-0.609c0.244,-0.244 0.434,-0.513 0.569,-0.807c0.135,-0.293 0.208,-0.597 0.218,-0.91c0.01,-0.314 -0.047,-0.627 -0.169,-0.941c-0.122,-0.313 -0.318,-0.605 -0.589,-0.876c-0.244,-0.244 -0.518,-0.422 -0.821,-0.534c-0.304,-0.113 -0.614,-0.165 -0.931,-0.159c-0.317,0.007 -0.627,0.073 -0.93,0.198c-0.304,0.126 -0.578,0.31 -0.822,0.555Zm-3.425,3.187c-0.066,0.449 -0.023,0.904 0.128,1.366c0.152,0.462 0.416,0.881 0.792,1.258c0.33,0.33 0.659,0.562 0.985,0.697c0.327,0.136 0.644,0.192 0.951,0.169c0.307,-0.023 0.602,-0.114 0.886,-0.272c0.284,-0.159 0.551,-0.363 0.802,-0.614l0.831,-0.832l-0.02,-0.02c-0.528,0.106 -1.009,0.073 -1.445,-0.099c-0.436,-0.171 -0.822,-0.425 -1.158,-0.762c-0.337,-0.336 -0.593,-0.711 -0.767,-1.123c-0.175,-0.413 -0.268,-0.832 -0.278,-1.258c-0.01,-0.425 0.068,-0.846 0.233,-1.262c0.165,-0.416 0.416,-0.792 0.752,-1.128c0.337,-0.337 0.71,-0.591 1.119,-0.763c0.409,-0.171 0.827,-0.262 1.252,-0.272c0.426,-0.01 0.843,0.068 1.253,0.233c0.409,0.165 0.785,0.419 1.128,0.762c0.139,0.139 0.272,0.299 0.401,0.48c0.129,0.182 0.238,0.383 0.327,0.604c0.089,0.221 0.152,0.465 0.188,0.733c0.036,0.267 0.031,0.556 -0.015,0.866l0.02,0.02l0.772,-0.773l0.653,0.654l-4.593,4.593c-0.251,0.251 -0.549,0.487 -0.896,0.708c-0.346,0.221 -0.729,0.36 -1.148,0.416c-0.419,0.056 -0.87,0.001 -1.352,-0.164c-0.481,-0.165 -0.983,-0.508 -1.504,-1.029c-0.462,-0.462 -0.799,-0.951 -1.01,-1.465c-0.211,-0.515 -0.307,-1.079 -0.287,-1.693l1,-0.03Z" style="fill-rule:nonzero;"/><path d="M244.048,126.246c-0.165,-0.165 -0.379,-0.363 -0.643,-0.594c-0.264,-0.231 -0.541,-0.429 -0.832,-0.594c-0.29,-0.165 -0.582,-0.263 -0.876,-0.292c-0.293,-0.03 -0.556,0.07 -0.787,0.301c-0.152,0.152 -0.251,0.314 -0.297,0.486c-0.046,0.171 -0.051,0.344 -0.015,0.519c0.037,0.175 0.104,0.342 0.203,0.5c0.099,0.159 0.215,0.304 0.347,0.436c0.237,0.237 0.483,0.404 0.737,0.5c0.254,0.095 0.508,0.135 0.763,0.119c0.254,-0.017 0.499,-0.088 0.737,-0.213c0.238,-0.126 0.459,-0.291 0.663,-0.495l0.337,-0.337l-0.337,-0.336Zm0.871,-0.198l0.119,-0.119c0.799,-0.799 0.802,-1.594 0.01,-2.386c-0.541,-0.541 -1.194,-0.832 -1.96,-0.871l0.069,-0.861c0.885,-0.014 1.762,0.415 2.634,1.286c0.224,0.225 0.407,0.474 0.549,0.748c0.142,0.274 0.221,0.554 0.238,0.841c0.016,0.287 -0.032,0.579 -0.144,0.876c-0.112,0.297 -0.31,0.588 -0.594,0.872l-2.069,2.069c-0.178,0.178 -0.356,0.372 -0.534,0.584c-0.179,0.211 -0.321,0.389 -0.426,0.534l-0.634,-0.633c0.093,-0.132 0.2,-0.269 0.322,-0.411c0.122,-0.142 0.246,-0.276 0.371,-0.401l-0.02,-0.02c-0.501,0.119 -0.95,0.116 -1.346,-0.01c-0.396,-0.125 -0.782,-0.376 -1.158,-0.752c-0.205,-0.205 -0.375,-0.431 -0.51,-0.678c-0.135,-0.248 -0.219,-0.503 -0.252,-0.767c-0.033,-0.264 -0.01,-0.525 0.069,-0.783c0.079,-0.257 0.231,-0.498 0.455,-0.722c0.377,-0.376 0.769,-0.574 1.178,-0.594c0.41,-0.02 0.814,0.064 1.213,0.252c0.399,0.188 0.779,0.436 1.138,0.743c0.36,0.307 0.679,0.599 0.956,0.876l0.326,0.327Z" style="fill-rule:nonzero;"/><path d="M103.33,18.329l0.197,0l6.56,-6.048l2.03,0l-7.034,6.324l7.428,7.624l-2.089,0l-6.856,-7.191l-0.236,0l-0,7.191l-1.418,0l-0,-13.948l1.418,0l-0,6.048Z" style="fill-rule:nonzero;"/><path d="M121.75,21.619c0,-0.512 -0.082,-0.991 -0.246,-1.438c-0.164,-0.446 -0.397,-0.834 -0.699,-1.162c-0.302,-0.329 -0.667,-0.588 -1.094,-0.778c-0.427,-0.191 -0.909,-0.286 -1.448,-0.286c-0.538,-0 -1.021,0.095 -1.448,0.286c-0.427,0.19 -0.788,0.449 -1.083,0.778c-0.296,0.328 -0.526,0.716 -0.69,1.162c-0.164,0.447 -0.246,0.926 -0.246,1.438c-0,0.512 0.082,0.992 0.246,1.438c0.164,0.447 0.394,0.834 0.69,1.163c0.295,0.328 0.656,0.587 1.083,0.778c0.427,0.19 0.91,0.286 1.448,0.286c0.539,-0 1.021,-0.096 1.448,-0.286c0.427,-0.191 0.792,-0.45 1.094,-0.778c0.302,-0.329 0.535,-0.716 0.699,-1.163c0.164,-0.446 0.246,-0.926 0.246,-1.438Zm1.419,0c-0,0.696 -0.122,1.34 -0.365,1.931c-0.243,0.591 -0.581,1.103 -1.014,1.537c-0.434,0.433 -0.949,0.771 -1.547,1.014c-0.597,0.243 -1.257,0.365 -1.98,0.365c-0.709,-0 -1.362,-0.122 -1.96,-0.365c-0.598,-0.243 -1.113,-0.581 -1.547,-1.014c-0.433,-0.434 -0.771,-0.946 -1.014,-1.537c-0.243,-0.591 -0.365,-1.235 -0.365,-1.931c0,-0.696 0.122,-1.339 0.365,-1.93c0.243,-0.591 0.581,-1.104 1.014,-1.537c0.434,-0.434 0.949,-0.772 1.547,-1.015c0.598,-0.243 1.251,-0.364 1.96,-0.364c0.723,-0 1.383,0.121 1.98,0.364c0.598,0.243 1.113,0.581 1.547,1.015c0.433,0.433 0.771,0.946 1.014,1.537c0.243,0.591 0.365,1.234 0.365,1.93Z" style="fill-rule:nonzero;"/><path d="M126.774,17.009c0.026,0.25 0.043,0.496 0.049,0.739c0.007,0.243 0.01,0.489 0.01,0.739l0.039,-0c0.145,-0.25 0.329,-0.48 0.552,-0.69c0.223,-0.21 0.473,-0.39 0.749,-0.541c0.276,-0.152 0.568,-0.27 0.876,-0.355c0.309,-0.085 0.614,-0.128 0.916,-0.128c1.183,-0 2.056,0.312 2.621,0.936c0.564,0.623 0.847,1.513 0.847,2.669l-0,5.851l-1.3,0l-0,-5.102c-0,-1.025 -0.178,-1.809 -0.532,-2.355c-0.355,-0.545 -1.012,-0.817 -1.97,-0.817c-0.066,-0 -0.25,0.026 -0.552,0.079c-0.302,0.052 -0.621,0.197 -0.956,0.433c-0.334,0.237 -0.633,0.591 -0.896,1.064c-0.263,0.473 -0.394,1.129 -0.394,1.97l0,4.728l-1.3,0l-0,-7.191c-0,-0.249 -0.01,-0.564 -0.03,-0.945c-0.019,-0.381 -0.042,-0.742 -0.069,-1.084l1.34,0Z" style="fill-rule:nonzero;"/><path d="M144.229,13.463c-0,0.276 -0.099,0.502 -0.296,0.68c-0.197,0.177 -0.413,0.266 -0.65,0.266c-0.236,-0 -0.453,-0.089 -0.65,-0.266c-0.197,-0.178 -0.295,-0.404 -0.295,-0.68c-0,-0.276 0.098,-0.502 0.295,-0.68c0.197,-0.177 0.414,-0.266 0.65,-0.266c0.237,0 0.453,0.089 0.65,0.266c0.197,0.178 0.296,0.404 0.296,0.68Zm-0.296,12.766l-1.3,0l0,-9.22l1.3,0l0,9.22Zm-3.152,-8.038l-2.187,0l0,8.038l-1.3,0l0,-8.038l-1.95,0l-0,-1.182l1.95,0l0,-2.521c0,-1.222 0.283,-2.092 0.847,-2.611c0.565,-0.519 1.314,-0.778 2.246,-0.778c0.184,0 0.371,0.013 0.562,0.039c0.19,0.027 0.377,0.06 0.561,0.099l-0.236,1.182c-0.158,-0.039 -0.322,-0.072 -0.493,-0.099c-0.171,-0.026 -0.341,-0.039 -0.512,-0.039c-0.355,0 -0.644,0.059 -0.867,0.177c-0.223,0.119 -0.394,0.286 -0.512,0.503c-0.118,0.216 -0.197,0.469 -0.236,0.758c-0.04,0.289 -0.06,0.598 -0.06,0.926l0,2.364l2.187,0l0,1.182Z" style="fill-rule:nonzero;"/><path d="M148.011,21.501c0,0.486 0.089,0.942 0.266,1.369c0.178,0.427 0.421,0.801 0.729,1.123c0.309,0.322 0.67,0.578 1.084,0.769c0.414,0.19 0.863,0.285 1.349,0.285c0.473,0 0.923,-0.085 1.35,-0.256c0.427,-0.171 0.804,-0.41 1.133,-0.719c0.328,-0.309 0.581,-0.68 0.758,-1.113c0.177,-0.434 0.26,-0.919 0.246,-1.458c0,-0.486 -0.078,-0.942 -0.236,-1.369c-0.158,-0.427 -0.387,-0.801 -0.69,-1.123c-0.302,-0.322 -0.669,-0.578 -1.103,-0.768c-0.433,-0.191 -0.919,-0.286 -1.458,-0.286c-0.486,-0 -0.935,0.095 -1.349,0.286c-0.414,0.19 -0.775,0.446 -1.084,0.768c-0.308,0.322 -0.551,0.696 -0.729,1.123c-0.177,0.427 -0.266,0.883 -0.266,1.369Zm-0.236,6.58c0.381,0.512 0.877,0.923 1.487,1.231c0.611,0.309 1.291,0.463 2.039,0.463c0.657,0 1.215,-0.095 1.675,-0.285c0.46,-0.191 0.831,-0.45 1.113,-0.778c0.283,-0.329 0.486,-0.713 0.611,-1.153c0.125,-0.44 0.187,-0.909 0.187,-1.409l0,-1.654l-0.039,-0c-0.421,0.63 -0.933,1.077 -1.537,1.339c-0.604,0.263 -1.241,0.394 -1.911,0.394c-0.67,0 -1.297,-0.118 -1.881,-0.354c-0.585,-0.237 -1.094,-0.562 -1.527,-0.976c-0.434,-0.413 -0.775,-0.909 -1.025,-1.487c-0.249,-0.578 -0.374,-1.202 -0.374,-1.872c-0,-0.669 0.118,-1.293 0.355,-1.871c0.236,-0.578 0.561,-1.084 0.975,-1.517c0.414,-0.434 0.906,-0.772 1.477,-1.015c0.572,-0.243 1.199,-0.364 1.882,-0.364c0.276,-0 0.568,0.026 0.876,0.079c0.309,0.052 0.618,0.144 0.926,0.275c0.309,0.132 0.614,0.312 0.916,0.542c0.303,0.23 0.585,0.522 0.848,0.877l0.039,-0l0,-1.537l1.3,0l0,9.141c0,0.5 -0.062,1.031 -0.187,1.596c-0.125,0.565 -0.368,1.084 -0.729,1.557c-0.361,0.472 -0.863,0.866 -1.507,1.182c-0.643,0.315 -1.484,0.472 -2.522,0.472c-0.919,0 -1.74,-0.151 -2.462,-0.453c-0.723,-0.302 -1.379,-0.768 -1.97,-1.398l0.965,-1.025Z" style="fill-rule:nonzero;"/><path d="M165.762,26.229c-0.026,-0.249 -0.043,-0.496 -0.049,-0.739c-0.007,-0.243 -0.01,-0.489 -0.01,-0.738l-0.04,-0c-0.144,0.249 -0.328,0.479 -0.551,0.689c-0.224,0.21 -0.473,0.391 -0.749,0.542c-0.276,0.151 -0.568,0.269 -0.877,0.355c-0.308,0.085 -0.614,0.128 -0.916,0.128c-1.182,-0 -2.055,-0.312 -2.62,-0.936c-0.565,-0.624 -0.847,-1.514 -0.847,-2.67l0,-5.851l1.3,0l0,5.103c0,0.512 0.04,0.965 0.118,1.359c0.079,0.394 0.214,0.726 0.404,0.995c0.191,0.269 0.447,0.473 0.769,0.611c0.321,0.138 0.725,0.207 1.211,0.207c0.066,-0 0.25,-0.027 0.552,-0.079c0.302,-0.053 0.62,-0.197 0.955,-0.434c0.335,-0.236 0.634,-0.591 0.897,-1.063c0.262,-0.473 0.394,-1.13 0.394,-1.971l-0,-4.728l1.3,0l0,7.191c0,0.25 0.01,0.565 0.03,0.946c0.019,0.381 0.042,0.742 0.069,1.083l-1.34,0Z" style="fill-rule:nonzero;"/><path d="M170.195,19.886c-0,-0.408 -0.01,-0.821 -0.03,-1.242c-0.02,-0.42 -0.036,-0.965 -0.049,-1.635l1.28,0l0,1.714l0.04,0c0.092,-0.249 0.223,-0.489 0.394,-0.719c0.17,-0.23 0.377,-0.437 0.62,-0.62c0.243,-0.184 0.526,-0.332 0.847,-0.444c0.322,-0.111 0.687,-0.167 1.094,-0.167c0.368,-0 0.689,0.039 0.965,0.118l-0.256,1.281c-0.171,-0.066 -0.42,-0.099 -0.749,-0.099c-0.499,0 -0.926,0.095 -1.28,0.286c-0.355,0.19 -0.65,0.433 -0.887,0.729c-0.236,0.295 -0.41,0.614 -0.522,0.955c-0.111,0.342 -0.167,0.67 -0.167,0.985l-0,5.201l-1.3,0l-0,-6.343Z" style="fill-rule:nonzero;"/><path d="M181.838,21.639c-0.329,-0 -0.739,0.016 -1.232,0.049c-0.492,0.033 -0.965,0.112 -1.418,0.237c-0.453,0.124 -0.841,0.318 -1.162,0.581c-0.322,0.262 -0.483,0.624 -0.483,1.083c-0,0.302 0.062,0.562 0.187,0.779c0.125,0.216 0.292,0.394 0.502,0.531c0.211,0.138 0.444,0.237 0.7,0.296c0.256,0.059 0.515,0.089 0.778,0.089c0.473,-0 0.883,-0.079 1.231,-0.237c0.348,-0.157 0.641,-0.371 0.877,-0.64c0.236,-0.269 0.41,-0.585 0.522,-0.946c0.112,-0.361 0.168,-0.745 0.168,-1.152l-0,-0.67l-0.67,-0Zm0.67,-1.064l-0,-0.236c-0,-1.59 -0.788,-2.384 -2.365,-2.384c-1.077,-0 -2.016,0.361 -2.817,1.083l-0.788,-0.926c0.867,-0.893 2.167,-1.339 3.901,-1.339c0.447,-0 0.877,0.066 1.29,0.197c0.414,0.131 0.772,0.331 1.074,0.601c0.302,0.269 0.545,0.607 0.729,1.014c0.184,0.407 0.276,0.893 0.276,1.458l-0,4.118c-0,0.354 0.016,0.725 0.049,1.113c0.033,0.387 0.069,0.706 0.108,0.955l-1.26,0c-0.04,-0.223 -0.069,-0.466 -0.089,-0.729c-0.02,-0.262 -0.03,-0.518 -0.03,-0.768l-0.039,-0c-0.381,0.617 -0.831,1.061 -1.35,1.33c-0.518,0.269 -1.152,0.404 -1.901,0.404c-0.407,-0 -0.801,-0.056 -1.182,-0.168c-0.381,-0.111 -0.719,-0.282 -1.014,-0.512c-0.296,-0.23 -0.532,-0.512 -0.71,-0.847c-0.177,-0.335 -0.265,-0.726 -0.265,-1.172c-0,-0.749 0.193,-1.337 0.581,-1.764c0.387,-0.426 0.873,-0.745 1.458,-0.955c0.584,-0.21 1.208,-0.342 1.871,-0.394c0.663,-0.053 1.271,-0.079 1.822,-0.079l0.651,0Z" style="fill-rule:nonzero;"/><path d="M191.708,19.196c-0.197,-0.381 -0.46,-0.683 -0.788,-0.906c-0.329,-0.223 -0.729,-0.335 -1.202,-0.335c-0.223,-0 -0.45,0.026 -0.68,0.079c-0.229,0.052 -0.436,0.134 -0.62,0.246c-0.184,0.112 -0.332,0.253 -0.443,0.424c-0.112,0.17 -0.168,0.38 -0.168,0.63c0,0.433 0.151,0.749 0.453,0.946c0.302,0.197 0.755,0.367 1.36,0.512l1.32,0.315c0.643,0.144 1.178,0.437 1.605,0.877c0.427,0.44 0.64,0.988 0.64,1.645c0,0.499 -0.101,0.929 -0.305,1.29c-0.204,0.361 -0.473,0.657 -0.808,0.887c-0.335,0.23 -0.719,0.397 -1.152,0.502c-0.434,0.105 -0.874,0.158 -1.32,0.158c-0.709,-0 -1.369,-0.135 -1.98,-0.404c-0.611,-0.269 -1.133,-0.732 -1.566,-1.389l1.123,-0.768c0.262,0.42 0.594,0.755 0.995,1.004c0.4,0.25 0.876,0.375 1.428,0.375c0.263,-0 0.525,-0.03 0.788,-0.089c0.263,-0.059 0.496,-0.151 0.699,-0.276c0.204,-0.125 0.368,-0.286 0.493,-0.483c0.125,-0.197 0.187,-0.426 0.187,-0.689c-0,-0.46 -0.171,-0.791 -0.512,-0.995c-0.342,-0.204 -0.755,-0.364 -1.241,-0.483l-1.261,-0.295c-0.158,-0.04 -0.371,-0.105 -0.641,-0.197c-0.269,-0.092 -0.531,-0.23 -0.788,-0.414c-0.256,-0.184 -0.476,-0.423 -0.66,-0.719c-0.183,-0.295 -0.275,-0.66 -0.275,-1.093c-0,-0.473 0.095,-0.887 0.285,-1.241c0.191,-0.355 0.447,-0.644 0.769,-0.867c0.321,-0.224 0.686,-0.391 1.093,-0.503c0.407,-0.111 0.827,-0.167 1.261,-0.167c0.643,-0 1.241,0.125 1.793,0.374c0.551,0.25 0.978,0.677 1.28,1.281l-1.162,0.768Z" style="fill-rule:nonzero;"/><path d="M197.106,13.463c-0,0.276 -0.099,0.502 -0.296,0.68c-0.197,0.177 -0.413,0.266 -0.65,0.266c-0.236,-0 -0.453,-0.089 -0.65,-0.266c-0.197,-0.178 -0.295,-0.404 -0.295,-0.68c-0,-0.276 0.098,-0.502 0.295,-0.68c0.197,-0.177 0.414,-0.266 0.65,-0.266c0.237,0 0.453,0.089 0.65,0.266c0.197,0.178 0.296,0.404 0.296,0.68Zm-0.296,12.766l-1.3,0l0,-9.22l1.3,0l0,9.22Z" style="fill-rule:nonzero;"/><path d="M65.049,191.694l0.027,0.026l10.531,-5.748l1.155,1.155l-5.749,10.53l0.027,0.027l10.396,-5.883l1.074,1.075l-12.316,6.702l-1.129,-1.128l5.749,-10.531l-0.027,-0.027l-10.53,5.749l-1.129,-1.128l6.703,-12.317l1.074,1.074l-5.856,10.424Z" style="fill-rule:nonzero;"/><path d="M82.242,204.373c0.6,-0.6 0.906,-1.265 0.92,-1.995c0.013,-0.729 -0.302,-1.417 -0.947,-2.061c-0.287,-0.287 -0.62,-0.508 -1.001,-0.665c-0.38,-0.157 -0.765,-0.242 -1.155,-0.255c-0.389,-0.014 -0.765,0.04 -1.128,0.161c-0.363,0.121 -0.674,0.311 -0.934,0.571l4.245,4.244Zm-4.997,-3.546c-0.286,0.34 -0.506,0.712 -0.658,1.115c-0.152,0.403 -0.226,0.808 -0.222,1.215c0.005,0.408 0.083,0.804 0.235,1.189c0.153,0.385 0.386,0.734 0.699,1.048c0.475,0.474 0.994,0.774 1.558,0.9c0.564,0.125 1.079,0.134 1.545,0.027l0.121,1.249c-0.851,0.098 -1.606,0.024 -2.264,-0.222c-0.658,-0.246 -1.247,-0.629 -1.766,-1.148c-0.466,-0.466 -0.815,-0.981 -1.048,-1.545c-0.232,-0.564 -0.344,-1.137 -0.335,-1.719c0.009,-0.582 0.132,-1.158 0.369,-1.726c0.237,-0.569 0.593,-1.09 1.068,-1.565c0.474,-0.474 0.994,-0.833 1.558,-1.074c0.564,-0.242 1.137,-0.368 1.719,-0.377c0.582,-0.008 1.149,0.097 1.699,0.316c0.551,0.219 1.05,0.553 1.498,1.001c0.474,0.474 0.815,0.985 1.021,1.531c0.206,0.546 0.295,1.088 0.268,1.625c-0.027,0.537 -0.163,1.064 -0.409,1.578c-0.247,0.515 -0.585,0.988 -1.014,1.418l-0.403,0.402l-5.239,-5.238Z" style="fill-rule:nonzero;"/><path d="M90.073,213.171c0.349,-0.349 0.62,-0.732 0.812,-1.149c0.193,-0.416 0.298,-0.839 0.316,-1.269c0.018,-0.43 -0.054,-0.855 -0.215,-1.276c-0.161,-0.421 -0.425,-0.815 -0.793,-1.182c-0.367,-0.367 -0.767,-0.638 -1.202,-0.812c-0.434,-0.175 -0.875,-0.262 -1.323,-0.262c-0.447,-0 -0.886,0.089 -1.316,0.268c-0.43,0.179 -0.819,0.443 -1.169,0.793c-0.349,0.349 -0.613,0.738 -0.792,1.168c-0.179,0.43 -0.269,0.869 -0.269,1.317c0,0.447 0.088,0.888 0.262,1.323c0.175,0.434 0.446,0.835 0.813,1.202c0.367,0.367 0.761,0.631 1.182,0.792c0.421,0.161 0.846,0.233 1.276,0.215c0.43,-0.018 0.853,-0.123 1.269,-0.316c0.416,-0.192 0.799,-0.463 1.149,-0.812Zm1.276,-12.747l0.886,0.887l-4.916,4.916l0.027,0.026c0.358,-0.071 0.712,-0.085 1.061,-0.04c0.349,0.045 0.681,0.126 0.994,0.242c0.313,0.116 0.607,0.266 0.88,0.45c0.273,0.184 0.512,0.378 0.718,0.584c0.493,0.493 0.86,1.026 1.102,1.599c0.241,0.573 0.362,1.155 0.362,1.746c0,0.591 -0.118,1.171 -0.356,1.739c-0.237,0.569 -0.593,1.09 -1.067,1.565c-0.475,0.475 -0.997,0.83 -1.565,1.068c-0.569,0.237 -1.149,0.356 -1.74,0.356c-0.591,-0 -1.173,-0.121 -1.746,-0.363c-0.573,-0.242 -1.106,-0.609 -1.598,-1.101c-0.206,-0.206 -0.401,-0.446 -0.584,-0.719c-0.184,-0.273 -0.334,-0.566 -0.45,-0.88c-0.117,-0.313 -0.197,-0.644 -0.242,-0.994c-0.045,-0.349 -0.031,-0.703 0.04,-1.061l-0.027,-0.027l-1.047,1.048l-0.887,-0.886l10.155,-10.155Z" style="fill-rule:nonzero;"/><path d="M103.8,226.092c-0.394,0.394 -0.86,0.766 -1.397,1.115c-0.537,0.349 -1.124,0.582 -1.76,0.698c-0.635,0.117 -1.303,0.072 -2.001,-0.134c-0.698,-0.206 -1.401,-0.663 -2.109,-1.37c-0.716,-0.716 -1.175,-1.421 -1.377,-2.115c-0.201,-0.694 -0.244,-1.359 -0.127,-1.995c0.116,-0.636 0.349,-1.222 0.698,-1.76c0.349,-0.537 0.721,-1.002 1.115,-1.396l5.964,-5.964l0.967,0.967l-5.856,5.856c-0.457,0.457 -0.804,0.893 -1.041,1.31c-0.238,0.416 -0.394,0.81 -0.47,1.182c-0.077,0.371 -0.088,0.714 -0.034,1.027c0.054,0.314 0.137,0.598 0.248,0.853c0.112,0.255 0.242,0.479 0.39,0.672c0.148,0.192 0.284,0.351 0.41,0.477c0.116,0.116 0.273,0.25 0.47,0.403c0.197,0.152 0.423,0.284 0.678,0.396c0.255,0.112 0.54,0.195 0.853,0.248c0.313,0.054 0.656,0.043 1.028,-0.033c0.371,-0.076 0.765,-0.233 1.182,-0.47c0.416,-0.238 0.852,-0.585 1.309,-1.041l5.856,-5.857l0.967,0.967l-5.963,5.964Z" style="fill-rule:nonzero;"/><path d="M103.639,233.023l-0.968,-0.967l9.51,-9.51l0.967,0.967l-9.509,9.51Z" style="fill-rule:nonzero;"/></svg>