<?xml version="1.0" encoding="UTF-8" standalone="no"?><!DOCTYPE svg PUBLIC "-//W3C//DTD SVG 1.1//EN" "http://www.w3.org/Graphics/SVG/1.1/DTD/svg11.dtd"><svg width="100%" height="100%" viewBox="0 0 89 19" version="1.1" xmlns="http://www.w3.org/2000/svg" xmlns:xlink="http://www.w3.org/1999/xlink" xml:space="preserve" xmlns:serif="http://www.serif.com/" style="fill-rule:evenodd;clip-rule:evenodd;stroke-linecap:round;stroke-linejoin:round;stroke-miterlimit:1.5;"><path d="M88.149,4.94c0,-2.403 -1.951,-4.354 -4.354,-4.354l-50.094,-0c-2.403,-0 -4.354,1.951 -4.354,4.354l0,8.708c0,2.403 1.951,4.354 4.354,4.354l50.094,-0c2.403,-0 4.354,-1.951 4.354,-4.354l0,-8.708Z" style="fill:#c3adad;stroke:#000;stroke-width:0.65px;stroke-linejoin:miter;"/><path d="M4.322,9.318c0.396,0.526 3.28,0.008 3.87,-0.024c3.977,-0.211 7.981,-0.512 11.963,-0.512c1.668,-0 3.342,-0.07 5.014,-0.07l1.671,0c0.264,0 1.056,0 0.792,0l-0.66,0" style="fill:none;stroke:#000;stroke-width:1px;"/><path d="M25.521,7.431c0.243,-0.258 2.011,0.813 2.375,0.978c0.277,0.126 0.565,0.207 0.835,0.349c0.129,0.069 0.542,0.187 0.396,0.187c-0.746,0 -1.529,0.33 -2.287,0.489c-0.344,0.072 -0.968,0.419 -0.968,0.419c0,-0 -0.156,-1.006 -0.307,-1.49c-0.013,-0.042 -0.239,-0.45 -0.264,-0.396c-0.167,0.353 0.515,1.579 0.615,1.42c0.216,-0.342 0.618,-0.544 0.177,-0.465" style="fill:none;stroke:#000;stroke-width:1px;"/><g><path d="M43.959,5.105c-0.203,-0.075 -0.391,-0.156 -0.625,-0.2c-0.203,-0.037 -0.417,-0.033 -0.637,-0.032c-1.583,0.009 -3.469,0.442 -4.927,1.264c-1.417,0.8 -2.419,2.011 -2.51,3.645c-0.02,0.382 -0.098,0.95 -0.045,1.43c0.033,0.302 0.117,0.574 0.255,0.789c1.006,1.556 2.515,1.919 4.122,1.625c1.394,-0.256 2.921,-0.943 4.064,-1.82c0.561,-0.43 0.978,-0.915 1.352,-1.308c0.099,-0.075 0.118,-0.216 0.043,-0.315c-0.075,-0.099 -0.216,-0.119 -0.315,-0.044c-0.464,0.245 -1.037,0.465 -1.644,0.78c-1.155,0.6 -2.442,1.351 -3.703,1.57c-1.151,0.2 -2.245,0.005 -2.971,-1.105c-0.077,-0.116 -0.09,-0.281 -0.099,-0.452c-0.019,-0.386 0.034,-0.805 0.045,-1.101c0.043,-1.26 0.849,-2.166 1.919,-2.819c1.31,-0.799 3.019,-1.187 4.461,-1.351c0.204,-0.023 0.402,-0.035 0.591,-0.071c0.223,-0.043 0.402,-0.118 0.603,-0.162c0.089,0.006 0.166,-0.062 0.172,-0.151c0.006,-0.089 -0.062,-0.166 -0.151,-0.172Z"/><path d="M44.665,6.914l-0.003,-0.013c0.003,-0.079 -0.058,-0.144 -0.137,-0.147c-0.078,-0.003 -0.144,0.059 -0.147,0.137c-0.035,0.124 -0.071,0.243 -0.103,0.363c-0.114,0.132 -0.197,0.273 -0.238,0.419c-0.078,0.265 -0.102,0.552 -0.111,0.851c-0.01,0.35 0.009,0.718 0.063,1.087c-0.075,0.035 -0.141,0.077 -0.194,0.125c-0.5,0.447 -0.294,0.802 -0.101,0.972c0.094,0.084 0.275,0.17 0.518,0.182c0.028,0.001 0.057,0.002 0.088,0.001c0.106,0.323 0.227,0.622 0.353,0.879c0.034,0.074 0.069,0.146 0.103,0.215l0.219,0.98c0.051,0.183 0.169,0.638 0.226,0.744c0.168,0.313 0.445,0.305 0.543,0.279c0.098,-0.026 0.208,-0.056 0.283,-0.163c0.029,-0.042 0.141,-0.143 0.119,-0.363c-0.037,-0.368 -0.124,-0.666 -0.268,-0.939l-0.026,-0.047l-0.266,-0.994l-0.183,-0.781c0.073,-0.038 0.157,-0.088 0.249,-0.148c0.582,0.035 1.159,0.199 1.724,0.423c0.997,0.397 1.952,0.988 2.813,1.498c0.141,0.083 1.665,0.911 2.277,1.05c0.087,0.019 0.167,0.057 0.222,0.031c0.224,-0.104 0.261,-0.015 0.285,-0.157c0.014,-0.084 0.108,-0.018 0.098,-0.092c-0.02,-0.148 0.198,-0.118 0.09,-0.231c-0.03,-0.032 0.032,-0.051 -0.008,-0.079c-0,-0.176 -0.144,-0.32 -0.32,-0.32c-0.106,0 -0.199,0.051 -0.257,0.13c0.039,-0.081 -0.012,-0.241 0.098,-0.156c0.017,0.014 0.042,-0.03 0.045,-0.039c0.014,-0.02 0.044,-0.075 0.013,-0.092c-0.495,-0.255 -1.882,-0.883 -2.006,-0.957c-0.909,-0.531 -1.918,-1.146 -2.97,-1.554c-0.332,-0.128 -0.667,-0.237 -1.006,-0.317c0.502,-0.468 0.967,-1.026 1.131,-1.546c0.2,-0.636 0.077,-1.242 -0.733,-1.631c-0.423,-0.202 -1.142,-0.187 -1.788,0.048c-0.252,0.091 -0.491,0.211 -0.695,0.352Zm1.331,6.22c0.021,0.088 0.047,0.149 0.079,0.134c0.076,-0.037 0.001,-0.091 -0.079,-0.134Zm6.565,-0.306c-0.01,0.011 -0.025,0.019 -0.044,0.021c-0.047,0.005 -0.015,0.034 0.005,0.069c0.009,-0.032 0.022,-0.063 0.039,-0.09Zm-7.071,-3.295c0.482,-0.323 1.084,-0.821 1.432,-1.328c0.264,-0.387 0.376,-0.788 -0.104,-1.066c-0.292,-0.17 -0.809,-0.145 -1.291,-0.026c-0.265,0.065 -0.525,0.156 -0.733,0.276c0.033,0.111 0.063,0.223 0.086,0.341c0.11,0.591 0.154,1.194 0.266,1.788c0.12,0.008 0.224,0.015 0.298,0.015l0.046,0Zm-1.243,-0.604c0.008,0.118 0.021,0.237 0.041,0.356c-0.015,-0.119 -0.028,-0.237 -0.041,-0.356Z"/><path d="M50.778,7.548c0,-0.019 -0.003,-0.039 -0.012,-0.058c-0.004,-0.163 -0.081,-0.218 -0.103,-0.266c-0.022,-0.047 -0.065,-0.02 -0.09,-0.051c-0.098,-0.121 -0.23,-0.071 -0.446,0.278c-0.02,0.033 -0.016,0.083 -0.023,0.133c-0.068,0.465 -0.039,1.536 -0.052,1.756c-0.028,1.163 -0.025,2.082 0.385,2.897c0.265,0.529 0.702,1.014 1.404,1.488c1.172,0.765 2.06,0.796 2.68,0.44c0.454,-0.261 0.817,-0.73 0.99,-1.364c0.172,-0.633 0.169,-1.402 0.07,-2.203c0,-0.085 -0.069,-0.154 -0.154,-0.154c-0.085,-0 -0.154,0.069 -0.154,0.154c-0.087,0.703 -0.276,1.343 -0.515,1.873c-0.108,0.239 -0.23,0.447 -0.376,0.614c-0.411,0.472 -1.03,0.448 -1.965,-0.212c-0.678,-0.456 -1.03,-0.917 -1.215,-1.449c-0.207,-0.596 -0.23,-1.268 -0.251,-2.084c-0.012,-0.214 -0.122,-1.242 -0.145,-1.698c-0.002,-0.036 -0.042,-0.083 -0.017,-0.089c0.026,-0.006 0.013,-0.008 -0.011,-0.005Zm-0.322,0.029c0.013,0.027 0.027,0.055 0.042,0.046l0.01,-0.005l-0.007,-0.012c-0.013,-0.014 -0.03,-0.023 -0.045,-0.029Z"/><path d="M51.621,8.243c0.01,0.014 0.033,0.035 0.045,0.046c0.028,0.027 0.002,0.111 0.067,0.107c0.038,-0.003 0.072,0.024 0.121,0.018c0.093,-0.012 0.2,-0.04 0.323,-0.063c0.58,-0.11 1.434,-0.195 2.064,-0.287c0.141,-0.021 0.275,-0.028 0.383,-0.07c0.198,-0.079 0.293,-0.173 0.38,-0.244c0.124,-0.033 0.198,-0.161 0.165,-0.285c-0.033,-0.125 -0.161,-0.199 -0.286,-0.165c-0.091,-0.016 -0.18,-0.087 -0.353,-0.109c-0.073,-0.009 -0.153,0.001 -0.238,0.007c-0.728,0.054 -1.832,0.165 -2.465,0.358c-0.094,0.029 -0.184,0.051 -0.25,0.097c-0.126,0.087 -0.2,0.152 -0.245,0.242c-0.107,0.216 -0.205,0.321 -0.082,0.455c0.043,0.047 0.067,0.117 0.162,0.151c0.063,0.056 0.16,0.05 0.216,-0.013c0.056,-0.063 0.05,-0.16 -0.013,-0.216c-0.005,-0.009 0.001,-0.02 0.006,-0.029Z"/><path d="M49.894,10.195c-0.001,-0.015 -0.004,-0.03 -0.01,-0.045c-0.028,-0.072 -0.11,-0.107 -0.182,-0.078c-0.285,-0 -0.369,0.136 -0.434,0.194c-0.152,0.137 -0.071,0.269 0.132,0.486c0.252,0.272 1.623,0.329 1.849,0.341c0.837,0.01 2.338,0.122 3.513,-0.147c0.556,-0.128 1.198,-0.23 1.384,-0.653c0.053,-0.119 0.027,-0.123 0.013,-0.25c0.105,-0.112 0.099,-0.288 -0.014,-0.393c-0.112,-0.105 -0.288,-0.1 -0.393,0.013c-0.11,-0.017 -0.072,-0.083 -0.182,-0.059c-0.064,0.014 -0.113,0.068 -0.172,0.104c-0.345,0.206 -0.795,0.341 -1.286,0.417c-1.02,0.157 -2.176,0.109 -2.863,0.117c-0.146,0.006 -0.824,0.002 -1.27,-0.047c-0.026,-0.002 -0.056,-0.002 -0.085,-0Zm-0.155,0.235l-0.008,0.013c0.02,-0.004 0.037,-0.009 0.034,-0.018c-0.004,-0.011 -0.005,-0.023 -0.004,-0.035l-0.022,0.04Zm-0.002,-0.264c-0.002,0.005 -0,0.001 -0.001,0.012l0.001,0l0,-0.012Z"/><path d="M57.855,9.704c0.012,-0.067 0.023,-0.134 0.032,-0.201c0.013,-0.071 -0.034,-0.139 -0.105,-0.152c-0.072,-0.012 -0.14,0.035 -0.153,0.106c-0.044,0.229 -0.102,0.46 -0.184,0.689c-0.263,0.738 -0.641,1.464 -0.839,2.197c-0.112,0.163 -0.242,0.365 -0.137,0.416c0.02,0.009 0.037,0.01 0.051,0.004c-0.002,0.048 -0.006,0.095 -0.029,0.136c-0.036,0.063 -0.048,0.05 -0.103,0.097c-0.102,0.132 0.013,0.2 0.021,0.259c0.042,0.291 0.335,0.307 0.537,0.262c0.075,-0.016 0.207,-0.056 0.312,-0.208c0.068,-0.098 0.227,-0.56 0.309,-0.741l0.55,-1.366c0.351,-0.989 0.805,-1.933 1.195,-2.908c0.171,-0.427 0.306,-0.857 0.46,-1.29c0.034,-0.068 0.007,-0.15 -0.061,-0.184c-0.068,-0.034 -0.15,-0.006 -0.184,0.062c-0.332,0.514 -0.68,1.006 -0.99,1.534c-0.246,0.42 -0.47,0.85 -0.682,1.288Zm-0.725,2.944c0.002,0.087 0.016,0.172 0.05,0.252c0.024,0.06 0.057,0.05 0.102,0.096c-0.038,-0.041 0.037,-0.066 0.021,-0.087c-0.045,-0.063 -0.054,-0.125 -0.082,-0.163c-0.029,-0.038 -0.06,-0.071 -0.091,-0.098Z"/><path d="M62.864,12.189c-0.056,0.029 -0.093,0.088 -0.093,0.155c-0,0.098 0.079,0.178 0.177,0.178l0.626,0.226c0.064,0.014 0.468,-0.165 0.285,-0.652c-0.015,-0.04 -0.067,-0.115 -0.138,-0.216c-0.36,-0.51 -1.36,-1.722 -1.427,-1.796c-0.295,-0.268 -0.645,-0.642 -1.004,-1.046c-0.541,-0.609 -1.108,-1.246 -1.677,-1.542c-0.54,-0.282 -1.079,-0.297 -1.597,0.265c-0.05,0.052 -0.048,0.134 0.004,0.184c0.052,0.049 0.135,0.047 0.184,-0.005c0.42,-0.427 0.852,-0.428 1.257,-0.175c0.883,0.551 1.609,2.11 2.207,2.881c0.056,0.064 0.765,0.994 1.196,1.543Zm0.27,0.311c0.001,0.033 0.002,0.072 0.026,0.048c0.01,-0.01 -0.003,-0.026 -0.026,-0.048Z"/><path d="M57.445,12.113c0.163,-0.082 0.307,-0.106 0.46,-0.178c0.092,-0.043 0.175,-0.092 0.26,-0.14c0.965,-0.541 2.048,-0.457 3.056,-0.851c0.35,-0.136 0.641,-0.351 0.944,-0.607c0.1,-0.053 0.138,-0.177 0.085,-0.277c-0.053,-0.1 -0.178,-0.139 -0.278,-0.086c-0.254,0.06 -0.484,0.053 -0.73,0.09c-0.102,0.014 -0.2,0.037 -0.299,0.06c-0.855,0.194 -1.714,0.285 -2.503,0.619c-0.31,0.131 -0.638,0.27 -0.885,0.534c-0.16,0.172 -0.254,0.364 -0.363,0.6c-0.065,0.07 -0.061,0.179 0.008,0.244c0.07,0.066 0.18,0.062 0.245,-0.008Z"/><path d="M64.979,12.846c0.021,-0.013 0.009,-0.031 -0.02,-0.05c-0.008,-0.02 -0.019,-0.04 -0.032,-0.06c-0.039,-0.06 -0.076,-0.116 -0.116,-0.168c-0.016,-0.153 -0.02,-0.323 -0.045,-0.398l-0.36,-1.082l-0.536,-3.261c-0,-0.096 -0.078,-0.174 -0.174,-0.174c-0.096,0 -0.174,0.078 -0.174,0.174c-0.087,0.621 -0.182,1.155 -0.208,1.703c-0.026,0.567 0.029,1.124 0.112,1.743l0.343,1.246c0.096,0.242 0.277,0.853 0.384,0.945c0.285,0.246 0.548,0.282 0.712,0.049c0.042,-0.06 0.173,-0.122 0.164,-0.301c-0.021,-0.148 -0.018,-0.261 -0.05,-0.366Zm-0.705,-0.08c-0.049,0.05 -0.1,0.116 -0.152,0.201c0.053,-0.068 0.143,-0.069 0.148,-0.139l0.004,-0.062Zm0.564,-0.029c0.022,0.085 0.056,0.138 0.114,0.121c0.012,-0.003 0.021,-0.007 0.027,-0.012l-0.002,-0.006l-0.018,-0.044c-0.029,-0.02 -0.075,-0.041 -0.121,-0.059Z"/><path d="M60.927,8.776c0.331,-0.007 0.629,0.033 0.956,-0.005c1.223,-0.144 2.396,-0.521 3.617,-0.729c0.349,-0.064 0.909,-0.048 1.377,-0.111c0.288,-0.038 0.548,-0.106 0.743,-0.209c0.237,-0.127 0.327,-0.422 0.2,-0.66c-0.127,-0.237 -0.422,-0.327 -0.659,-0.2c-0.108,0.058 -0.255,0.086 -0.415,0.108c-0.484,0.068 -1.063,0.06 -1.424,0.13c-1.233,0.256 -2.494,0.388 -3.649,0.872c-0.308,0.129 -0.55,0.316 -0.838,0.49c-0.086,0.025 -0.136,0.116 -0.111,0.203c0.025,0.086 0.116,0.136 0.203,0.111Z"/><path d="M67.566,7.052c-0.144,0.542 -0.631,1.82 -0.759,3.016c-0.101,0.945 0.072,1.818 0.489,2.295c1.183,1.325 3.199,2.007 4.632,1.564c0.714,-0.22 1.363,-0.676 1.597,-1.472c0.116,-0.393 0.111,-0.838 0.005,-1.368c-0,-0.111 -0.091,-0.202 -0.202,-0.202c-0.112,-0 -0.203,0.091 -0.203,0.202c-0.081,0.4 -0.246,0.689 -0.39,0.968c-0.361,0.7 -0.967,1.01 -1.71,1.019c-1.038,0.012 -2.24,-0.498 -3.013,-1.354c-0.222,-0.242 -0.264,-0.661 -0.295,-1.129c-0.084,-1.257 0.145,-2.862 0.201,-3.479c0.016,-0.097 -0.049,-0.189 -0.146,-0.206c-0.097,-0.017 -0.189,0.049 -0.206,0.146Z"/><path d="M66.618,8.661c0.142,-0.031 0.243,0.032 0.412,-0.018c0.797,-0.234 1.991,-0.641 2.823,-0.816c0.119,-0.025 0.209,-0.08 0.308,-0.105c0.199,-0 0.36,-0.162 0.36,-0.36c0,-0.199 -0.161,-0.361 -0.36,-0.361c-0.154,-0.029 -0.323,-0.061 -0.518,-0.056c-0.572,0.013 -1.279,0.223 -1.911,0.461c-0.398,0.15 -0.774,0.316 -1.052,0.524c-0.045,0.033 -0.093,0.061 -0.123,0.104c-0.106,0.155 -0.12,0.248 -0.154,0.403c-0.062,0.059 -0.064,0.157 -0.004,0.219c0.059,0.062 0.157,0.064 0.219,0.005Z"/><path d="M67.985,11.167c0.608,-0.185 1.232,-0.308 1.857,-0.497c0.929,-0.281 1.844,-0.633 2.721,-1.014c0.266,-0.115 0.566,-0.181 0.777,-0.371c0.124,-0.112 0.145,-0.218 0.231,-0.359c0.118,-0.062 0.164,-0.208 0.102,-0.326c-0.062,-0.118 -0.207,-0.163 -0.325,-0.102c-0.16,-0.008 -0.254,-0.063 -0.412,-0.032c-1.024,0.202 -1.949,0.839 -2.941,1.259c-0.298,0.126 -0.592,0.255 -0.878,0.401c-0.444,0.227 -0.853,0.483 -1.266,0.741c-0.083,0.037 -0.12,0.134 -0.083,0.217c0.037,0.083 0.134,0.12 0.217,0.083Z"/><path d="M74.37,9.219c0.03,0.184 0.076,0.414 0.134,0.596c0.08,0.249 0.212,0.421 0.292,0.473c0.205,0.133 0.483,0.199 0.636,-0.235c0.068,-0.192 0.046,-0.414 -0.064,-0.636c-0.079,-0.159 -0.21,-0.323 -0.324,-0.465l-0.004,-0.036l-0.102,-1.85c0.004,-0.112 -0.084,-0.206 -0.196,-0.21c-0.112,-0.003 -0.206,0.084 -0.209,0.196c-0.017,0.129 -0.05,0.309 -0.086,0.514c-0.015,-0.073 -0.028,-0.147 -0.039,-0.222c-0.072,-0.479 -0.055,-0.967 0.138,-1.278c0.366,-0.6 1.109,-0.696 1.904,-0.641c1.31,0.091 2.797,0.677 3.454,1.066c0.144,0.085 0.377,0.207 0.587,0.355c0.126,0.089 0.26,0.174 0.298,0.289c0.278,0.865 -0.158,1.563 -0.83,2.115c-1.117,0.915 -2.881,1.432 -3.892,1.61c-0.399,0.069 -0.886,0.186 -1.291,0.202c-0.08,0.004 -0.156,0.002 -0.223,-0.01c-0.009,-0.002 -0.023,0 -0.032,-0.001c-0.002,-0.014 -0.005,-0.019 -0.009,-0.008c-0.002,0.006 0.002,0.008 0.009,0.008c0.004,0.024 0.002,0.076 -0.015,0.092c-0.016,0.016 -0.054,0.022 -0.068,-0.001c-0.043,-0.073 -0.112,-0.134 -0.135,-0.255c0.032,-0.198 -0.105,-0.385 -0.303,-0.416c-0.199,-0.032 -0.386,0.105 -0.417,0.303c-0.332,0.603 -0.122,0.999 0.123,1.287c0.042,0.049 0.103,0.078 0.16,0.111c0.245,0.142 0.574,0.21 0.949,0.187c0.467,-0.028 1.03,-0.195 1.49,-0.299c1.135,-0.252 3.085,-0.953 4.315,-2.03c0.973,-0.851 1.521,-1.923 1.08,-3.199c-0.065,-0.193 -0.201,-0.382 -0.385,-0.55c-0.286,-0.26 -0.701,-0.477 -0.93,-0.61c-0.741,-0.43 -2.414,-1.103 -3.885,-1.16c-1.141,-0.044 -2.152,0.28 -2.631,1.166c-0.198,0.373 -0.242,0.896 -0.181,1.445c0.08,0.72 0.322,1.487 0.57,1.923l0.112,0.174Zm0.781,0.416c0.029,0.073 0.068,0.111 0.121,0.085c0.076,-0.037 -0.03,-0.068 -0.121,-0.085Z"/></g><circle cx="2.161" cy="8.712" r="2.161"/></svg>