<?xml version="1.0" encoding="UTF-8" standalone="no"?><!DOCTYPE svg PUBLIC "-//W3C//DTD SVG 1.1//EN" "http://www.w3.org/Graphics/SVG/1.1/DTD/svg11.dtd"><svg width="100%" height="100%" viewBox="0 0 525 185" version="1.1" xmlns="http://www.w3.org/2000/svg" xmlns:xlink="http://www.w3.org/1999/xlink" xml:space="preserve" xmlns:serif="http://www.serif.com/" style="fill-rule:evenodd;clip-rule:evenodd;stroke-linejoin:round;stroke-miterlimit:2;"><rect x="1.5" y="1.5" width="245.594" height="55.649" style="fill:#e49d9d;stroke:#000;stroke-width:3px;stroke-linecap:round;stroke-miterlimit:1.5;"/><rect x="1.5" y="63.513" width="245.594" height="55.649" style="fill:#aad1ba;stroke:#000;stroke-width:3px;stroke-linecap:round;stroke-miterlimit:1.5;"/><rect x="1.5" y="126.859" width="245.594" height="55.649" style="fill:#9a96a6;stroke:#000;stroke-width:3px;stroke-linecap:round;stroke-miterlimit:1.5;"/><path d="M92.581,36.644l-7.488,-18.828l-3.96,0l10.116,25.236l2.664,0l10.116,-25.236l-3.888,0l-7.56,18.828Z" style="fill-rule:nonzero;stroke:#000;stroke-width:0.55px;"/><path d="M117.457,17.816l-12.996,0l0,3.6l4.68,0l0,17.928l-4.68,0l0,3.636l12.996,0l0,-3.636l-4.68,0l0,-17.928l4.68,0l0,-3.6Z" style="fill-rule:nonzero;stroke:#000;stroke-width:0.55px;"/><path d="M122.605,32.216l11.412,0l0,-3.672l-11.412,0l0,-7.092l11.664,0l0,-3.636l-15.336,0l0,25.164l15.372,0l0,-3.636l-11.7,0l0,-7.128Z" style="fill-rule:nonzero;stroke:#000;stroke-width:0.55px;"/><path d="M154.069,43.124l2.556,0l8.46,-25.308l-3.816,0c-1.872,5.724 -4.068,12.132 -6.048,18.144l-4.104,-11.736l-2.916,0l-4.14,11.772l-6.012,-18.18l-3.78,0l8.46,25.308l2.556,0c1.296,-3.816 2.916,-8.028 4.356,-12.132l4.428,12.132Z" style="fill-rule:nonzero;stroke:#000;stroke-width:0.55px;"/><path d="M21.067,92.465c0,3.492 1.44,6.66 3.6,8.964c2.196,2.304 5.292,3.744 8.712,3.744c5.868,0 10.476,-3.888 11.916,-9.612l-3.564,0c-1.296,3.816 -4.536,6.012 -8.352,6.012c-2.412,0 -4.608,-1.044 -6.192,-2.7c-1.584,-1.656 -2.592,-3.888 -2.592,-6.408c0,-2.592 1.008,-4.824 2.592,-6.48c1.584,-1.656 3.78,-2.7 6.192,-2.7c3.708,0 6.804,1.908 8.136,5.688l3.6,0c-1.44,-5.688 -5.976,-9.288 -11.736,-9.288c-3.42,0 -6.516,1.476 -8.712,3.744c-2.16,2.304 -3.6,5.472 -3.6,9.036Z" style="fill-rule:nonzero;stroke:#000;stroke-width:0.55px;"/><path d="M68.443,92.393c0,2.592 -1.044,4.86 -2.664,6.516c-1.692,1.692 -4.032,2.736 -6.516,2.736c-2.484,0 -4.788,-1.044 -6.444,-2.736c-1.656,-1.656 -2.7,-3.96 -2.7,-6.516c0,-2.556 1.044,-4.86 2.7,-6.516c1.656,-1.692 3.96,-2.736 6.444,-2.736c2.484,0 4.824,1.044 6.516,2.736c1.62,1.656 2.664,3.924 2.664,6.516Zm-21.996,0c0,3.564 1.476,6.768 3.744,9.108c2.304,2.376 5.544,3.816 9.072,3.816c3.564,0 6.768,-1.44 9.108,-3.816c2.268,-2.34 3.744,-5.544 3.744,-9.108c0,-3.564 -1.476,-6.768 -3.744,-9.108c-2.34,-2.34 -5.544,-3.816 -9.108,-3.816c-3.528,0 -6.768,1.476 -9.072,3.816c-2.268,2.34 -3.744,5.544 -3.744,9.108Z" style="fill-rule:nonzero;stroke:#000;stroke-width:0.55px;"/><path d="M78.019,104.993l0,-17.604l12.168,17.604l2.88,0l0,-25.2l-3.6,0l0,17.748l-12.276,-17.748l-2.808,-0.036l0,25.236l3.636,0Z" style="fill-rule:nonzero;stroke:#000;stroke-width:0.55px;"/><path d="M102.535,105.101l0,-21.924l7.596,0l0,-3.384l-18.864,0l0,3.384l7.632,0l0,21.924l3.636,0Z" style="fill-rule:nonzero;stroke:#000;stroke-width:0.55px;"/><path d="M116.755,93.941l9.18,11.052l4.716,0l-7.956,-9.468c4.32,-0.756 6.516,-4.14 6.516,-7.704c0,-3.996 -2.736,-8.028 -8.208,-8.028l-9.18,0l0,25.2l3.6,0l0,-21.528l5.58,0c3.06,0 4.572,2.196 4.572,4.356c0,2.196 -1.512,4.392 -4.572,4.392l-4.248,0l0,1.728Z" style="fill-rule:nonzero;stroke:#000;stroke-width:0.55px;"/><path d="M151.891,92.393c0,2.592 -1.044,4.86 -2.664,6.516c-1.692,1.692 -4.032,2.736 -6.516,2.736c-2.484,0 -4.788,-1.044 -6.444,-2.736c-1.656,-1.656 -2.7,-3.96 -2.7,-6.516c0,-2.556 1.044,-4.86 2.7,-6.516c1.656,-1.692 3.96,-2.736 6.444,-2.736c2.484,0 4.824,1.044 6.516,2.736c1.62,1.656 2.664,3.924 2.664,6.516Zm-21.996,0c0,3.564 1.476,6.768 3.744,9.108c2.304,2.376 5.544,3.816 9.072,3.816c3.564,0 6.768,-1.44 9.108,-3.816c2.268,-2.34 3.744,-5.544 3.744,-9.108c0,-3.564 -1.476,-6.768 -3.744,-9.108c-2.34,-2.34 -5.544,-3.816 -9.108,-3.816c-3.528,0 -6.768,1.476 -9.072,3.816c-2.268,2.34 -3.744,5.544 -3.744,9.108Z" style="fill-rule:nonzero;stroke:#000;stroke-width:0.55px;"/><path d="M161.647,79.829l-3.636,0l0,25.164l15.48,0l0,-3.636l-11.844,0l0,-21.528Z" style="fill-rule:nonzero;stroke:#000;stroke-width:0.55px;"/><path d="M178.855,79.829l-3.636,0l0,25.164l15.48,0l0,-3.636l-11.844,0l0,-21.528Z" style="fill-rule:nonzero;stroke:#000;stroke-width:0.55px;"/><path d="M195.775,94.229l11.412,0l0,-3.672l-11.412,0l0,-7.092l11.664,0l0,-3.636l-15.336,0l0,25.164l15.372,0l0,-3.636l-11.7,0l0,-7.128Z" style="fill-rule:nonzero;stroke:#000;stroke-width:0.55px;"/><path d="M214.063,93.941l9.18,11.052l4.716,0l-7.956,-9.468c4.32,-0.756 6.516,-4.14 6.516,-7.704c0,-3.996 -2.736,-8.028 -8.208,-8.028l-9.18,0l0,25.2l3.6,0l0,-21.528l5.58,0c3.06,0 4.572,2.196 4.572,4.356c0,2.196 -1.512,4.392 -4.572,4.392l-4.248,0l0,1.728Z" style="fill-rule:nonzero;stroke:#000;stroke-width:0.55px;"/><path d="M73.681,150.592l6.588,9.792l2.052,-0l6.588,-9.792l0,17.748l3.6,-0l0,-25.2l-2.88,-0l-8.316,12.24l-8.316,-12.24l-2.952,-0l0,25.2l3.636,-0l0,-17.748Z" style="fill-rule:nonzero;stroke:#000;stroke-width:0.55px;"/><path d="M116.377,155.74c0,2.592 -1.044,4.86 -2.664,6.516c-1.692,1.692 -4.032,2.736 -6.516,2.736c-2.484,-0 -4.788,-1.044 -6.444,-2.736c-1.656,-1.656 -2.7,-3.96 -2.7,-6.516c0,-2.556 1.044,-4.86 2.7,-6.516c1.656,-1.692 3.96,-2.736 6.444,-2.736c2.484,-0 4.824,1.044 6.516,2.736c1.62,1.656 2.664,3.924 2.664,6.516Zm-21.996,-0c0,3.564 1.476,6.768 3.744,9.108c2.304,2.376 5.544,3.816 9.072,3.816c3.564,-0 6.768,-1.44 9.108,-3.816c2.268,-2.34 3.744,-5.544 3.744,-9.108c0,-3.564 -1.476,-6.768 -3.744,-9.108c-2.34,-2.34 -5.544,-3.816 -9.108,-3.816c-3.528,-0 -6.768,1.476 -9.072,3.816c-2.268,2.34 -3.744,5.544 -3.744,9.108Z" style="fill-rule:nonzero;stroke:#000;stroke-width:0.55px;"/><path d="M125.989,164.704l0,-17.892l5.4,-0c5.832,-0 8.784,4.5 8.784,8.964c0,4.464 -2.952,8.928 -8.784,8.928l-5.4,-0Zm-3.636,-21.528l0,25.164l9.036,-0c8.244,-0 12.384,-6.264 12.384,-12.564c0,-6.3 -4.14,-12.6 -12.384,-12.6l-9.036,-0Z" style="fill-rule:nonzero;stroke:#000;stroke-width:0.55px;"/><path d="M149.281,157.576l11.412,-0l0,-3.672l-11.412,-0l0,-7.092l11.664,-0l0,-3.636l-15.336,-0l0,25.164l15.372,-0l0,-3.636l-11.7,-0l0,-7.128Z" style="fill-rule:nonzero;stroke:#000;stroke-width:0.55px;"/><path d="M166.417,143.176l-3.636,-0l0,25.164l15.48,-0l0,-3.636l-11.844,-0l0,-21.528Z" style="fill-rule:nonzero;stroke:#000;stroke-width:0.55px;"/><rect x="277.845" y="1.5" width="245.594" height="55.649" style="fill:#e49d9d;stroke:#000;stroke-width:3px;stroke-linecap:round;stroke-miterlimit:1.5;"/><rect x="277.845" y="63.513" width="245.594" height="55.649" style="fill:#aad1ba;stroke:#000;stroke-width:3px;stroke-linecap:round;stroke-miterlimit:1.5;"/><rect x="277.845" y="126.859" width="245.594" height="55.649" style="fill:#9a96a6;stroke:#000;stroke-width:3px;stroke-linecap:round;stroke-miterlimit:1.5;"/><path d="M318.4,17.78l0,25.2l3.672,0l0,-8.388l5.544,0c5.436,0 8.172,-4.176 8.172,-8.388c0,-4.212 -2.736,-8.424 -8.172,-8.424l-9.216,0Zm3.672,13.212l0,-9.54l5.544,0c3.06,0 4.572,2.376 4.572,4.788c0,2.376 -1.512,4.752 -4.572,4.752l-5.544,0Z" style="fill-rule:nonzero;stroke:#000;stroke-width:0.55px;"/><path d="M342.412,31.928l9.18,11.052l4.716,0l-7.956,-9.468c4.32,-0.756 6.516,-4.14 6.516,-7.704c0,-3.996 -2.736,-8.028 -8.208,-8.028l-9.18,0l0,25.2l3.6,0l0,-21.528l5.58,0c3.06,0 4.572,2.196 4.572,4.356c0,2.196 -1.512,4.392 -4.572,4.392l-4.248,0l0,1.728Z" style="fill-rule:nonzero;stroke:#000;stroke-width:0.55px;"/><path d="M360.484,32.216l11.412,0l0,-3.672l-11.412,0l0,-7.092l11.664,0l0,-3.636l-15.336,0l0,25.164l15.372,0l0,-3.636l-11.7,0l0,-7.128Z" style="fill-rule:nonzero;stroke:#000;stroke-width:0.55px;"/><path d="M391.156,24.152c-0.648,-4.608 -4.68,-6.624 -8.568,-6.624c-2.916,0 -5.94,1.152 -7.632,3.348c-1.08,1.404 -1.512,3.096 -1.368,4.788l0,-0.036c0.396,5.256 5.004,6.12 8.928,6.516c2.52,0.252 5.112,0.576 5.544,2.484c0.072,0.324 0.108,0.612 0.108,0.864c0,2.592 -2.952,4.104 -5.652,4.104c-2.34,0 -5.184,-1.224 -5.436,-3.564l0,0.144l-0.036,-0.54l-3.672,0.072l0.036,0.684c0.468,4.5 5.184,6.804 9.072,6.804c4.536,0 9.36,-2.808 9.36,-7.668c0,-0.504 -0.072,-1.116 -0.18,-1.656c-0.972,-4.032 -5.256,-4.932 -8.712,-5.364c-2.7,-0.252 -5.544,-0.576 -5.724,-3.168c-0.072,-0.864 0.108,-1.692 0.612,-2.34c1.008,-1.296 2.88,-1.872 4.572,-1.908c2.196,-0.036 4.644,0.936 5.148,3.204l3.6,-0.144Z" style="fill-rule:nonzero;stroke:#000;stroke-width:0.55px;"/><path d="M397.276,32.216l11.412,0l0,-3.672l-11.412,0l0,-7.092l11.664,0l0,-3.636l-15.336,0l0,25.164l15.372,0l0,-3.636l-11.7,0l0,-7.128Z" style="fill-rule:nonzero;stroke:#000;stroke-width:0.55px;"/><path d="M414.232,42.98l0,-17.604l12.168,17.604l2.88,0l0,-25.2l-3.6,0l0,17.748l-12.276,-17.748l-2.808,-0.036l0,25.236l3.636,0Z" style="fill-rule:nonzero;stroke:#000;stroke-width:0.55px;"/><path d="M438.748,43.088l0,-21.924l7.596,0l0,-3.384l-18.864,0l0,3.384l7.632,0l0,21.924l3.636,0Z" style="fill-rule:nonzero;stroke:#000;stroke-width:0.55px;"/><path d="M451.528,32.216l11.412,0l0,-3.672l-11.412,0l0,-7.092l11.664,0l0,-3.636l-15.336,0l0,25.164l15.372,0l0,-3.636l-11.7,0l0,-7.128Z" style="fill-rule:nonzero;stroke:#000;stroke-width:0.55px;"/><path d="M469.816,31.928l9.18,11.052l4.716,0l-7.956,-9.468c4.32,-0.756 6.516,-4.14 6.516,-7.704c0,-3.996 -2.736,-8.028 -8.208,-8.028l-9.18,0l0,25.2l3.6,0l0,-21.528l5.58,0c3.06,0 4.572,2.196 4.572,4.356c0,2.196 -1.512,4.392 -4.572,4.392l-4.248,0l0,1.728Z" style="fill-rule:nonzero;stroke:#000;stroke-width:0.55px;"/><path d="M350.818,79.829l-3.636,0l0,25.164l15.48,0l0,-3.636l-11.844,0l0,-21.528Z" style="fill-rule:nonzero;stroke:#000;stroke-width:0.55px;"/><path d="M385.558,92.393c0,2.592 -1.044,4.86 -2.664,6.516c-1.692,1.692 -4.032,2.736 -6.516,2.736c-2.484,0 -4.788,-1.044 -6.444,-2.736c-1.656,-1.656 -2.7,-3.96 -2.7,-6.516c0,-2.556 1.044,-4.86 2.7,-6.516c1.656,-1.692 3.96,-2.736 6.444,-2.736c2.484,0 4.824,1.044 6.516,2.736c1.62,1.656 2.664,3.924 2.664,6.516Zm-21.996,0c0,3.564 1.476,6.768 3.744,9.108c2.304,2.376 5.544,3.816 9.072,3.816c3.564,0 6.768,-1.44 9.108,-3.816c2.268,-2.34 3.744,-5.544 3.744,-9.108c0,-3.564 -1.476,-6.768 -3.744,-9.108c-2.34,-2.34 -5.544,-3.816 -9.108,-3.816c-3.528,0 -6.768,1.476 -9.072,3.816c-2.268,2.34 -3.744,5.544 -3.744,9.108Z" style="fill-rule:nonzero;stroke:#000;stroke-width:0.55px;"/><path d="M415.402,88.829c-1.332,-6.696 -7.164,-9.18 -11.988,-9.18c-6.948,0 -12.384,5.328 -12.384,12.78c0,7.416 5.328,12.744 12.384,12.744c4.572,0 9.756,-3.096 11.484,-7.92l0,0.036c0.324,-0.828 0.504,-2.232 0.684,-4.356l-13.572,0l0,3.636l9.324,0c-1.512,3.672 -4.824,5.112 -7.92,5.112c-4.932,0 -8.748,-3.924 -8.748,-9.252c0,-5.292 3.816,-9.144 8.748,-9.144c3.204,0 7.092,1.476 8.1,5.544l3.888,0Z" style="fill-rule:nonzero;stroke:#000;stroke-width:0.55px;"/><path d="M429.082,79.829l-12.996,0l0,3.6l4.68,0l0,17.928l-4.68,0l0,3.636l12.996,0l0,-3.636l-4.68,0l0,-17.928l4.68,0l0,-3.6Z" style="fill-rule:nonzero;stroke:#000;stroke-width:0.55px;"/><path d="M429.118,92.465c0,3.492 1.44,6.66 3.6,8.964c2.196,2.304 5.292,3.744 8.712,3.744c5.868,0 10.476,-3.888 11.916,-9.612l-3.564,0c-1.296,3.816 -4.536,6.012 -8.352,6.012c-2.412,0 -4.608,-1.044 -6.192,-2.7c-1.584,-1.656 -2.592,-3.888 -2.592,-6.408c0,-2.592 1.008,-4.824 2.592,-6.48c1.584,-1.656 3.78,-2.7 6.192,-2.7c3.708,0 6.804,1.908 8.136,5.688l3.6,0c-1.44,-5.688 -5.976,-9.288 -11.736,-9.288c-3.42,0 -6.516,1.476 -8.712,3.744c-2.16,2.304 -3.6,5.472 -3.6,9.036Z" style="fill-rule:nonzero;stroke:#000;stroke-width:0.55px;"/><path d="M344.806,149.512c-0.648,-4.608 -4.68,-6.624 -8.568,-6.624c-2.916,-0 -5.94,1.152 -7.632,3.348c-1.08,1.404 -1.512,3.096 -1.368,4.788l0,-0.036c0.396,5.256 5.004,6.12 8.928,6.516c2.52,0.252 5.112,0.576 5.544,2.484c0.072,0.324 0.108,0.612 0.108,0.864c0,2.592 -2.952,4.104 -5.652,4.104c-2.34,-0 -5.184,-1.224 -5.436,-3.564l0,0.144l-0.036,-0.54l-3.672,0.072l0.036,0.684c0.468,4.5 5.184,6.804 9.072,6.804c4.536,-0 9.36,-2.808 9.36,-7.668c0,-0.504 -0.072,-1.116 -0.18,-1.656c-0.972,-4.032 -5.256,-4.932 -8.712,-5.364c-2.7,-0.252 -5.544,-0.576 -5.724,-3.168c-0.072,-0.864 0.108,-1.692 0.612,-2.34c1.008,-1.296 2.88,-1.872 4.572,-1.908c2.196,-0.036 4.644,0.936 5.148,3.204l3.6,-0.144Z" style="fill-rule:nonzero;stroke:#000;stroke-width:0.55px;"/><path d="M356.65,168.448l0,-21.924l7.596,-0l0,-3.384l-18.864,-0l0,3.384l7.632,-0l0,21.924l3.636,-0Z" style="fill-rule:nonzero;stroke:#000;stroke-width:0.55px;"/><path d="M385.018,155.74c0,2.592 -1.044,4.86 -2.664,6.516c-1.692,1.692 -4.032,2.736 -6.516,2.736c-2.484,-0 -4.788,-1.044 -6.444,-2.736c-1.656,-1.656 -2.7,-3.96 -2.7,-6.516c0,-2.556 1.044,-4.86 2.7,-6.516c1.656,-1.692 3.96,-2.736 6.444,-2.736c2.484,-0 4.824,1.044 6.516,2.736c1.62,1.656 2.664,3.924 2.664,6.516Zm-21.996,-0c0,3.564 1.476,6.768 3.744,9.108c2.304,2.376 5.544,3.816 9.072,3.816c3.564,-0 6.768,-1.44 9.108,-3.816c2.268,-2.34 3.744,-5.544 3.744,-9.108c0,-3.564 -1.476,-6.768 -3.744,-9.108c-2.34,-2.34 -5.544,-3.816 -9.108,-3.816c-3.528,-0 -6.768,1.476 -9.072,3.816c-2.268,2.34 -3.744,5.544 -3.744,9.108Z" style="fill-rule:nonzero;stroke:#000;stroke-width:0.55px;"/><path d="M395.926,157.288l9.18,11.052l4.716,-0l-7.956,-9.468c4.32,-0.756 6.516,-4.14 6.516,-7.704c0,-3.996 -2.736,-8.028 -8.208,-8.028l-9.18,-0l0,25.2l3.6,-0l0,-21.528l5.58,-0c3.06,-0 4.572,2.196 4.572,4.356c0,2.196 -1.512,4.392 -4.572,4.392l-4.248,-0l0,1.728Z" style="fill-rule:nonzero;stroke:#000;stroke-width:0.55px;"/><path d="M420.586,148.612l3.096,8.892l-6.264,-0l3.168,-8.892Zm7.524,19.728l3.888,-0l-10.116,-25.524l-2.664,-0l-10.116,25.524l3.924,-0c0.792,-2.088 2.052,-5.112 3.024,-7.416l9.036,-0l3.024,7.416Z" style="fill-rule:nonzero;stroke:#000;stroke-width:0.55px;"/><path d="M455.938,152.176c-1.332,-6.696 -7.164,-9.18 -11.988,-9.18c-6.948,-0 -12.384,5.328 -12.384,12.78c0,7.416 5.328,12.744 12.384,12.744c4.572,-0 9.756,-3.096 11.484,-7.92l0,0.036c0.324,-0.828 0.504,-2.232 0.684,-4.356l-13.572,-0l0,3.636l9.324,-0c-1.512,3.672 -4.824,5.112 -7.92,5.112c-4.932,-0 -8.748,-3.924 -8.748,-9.252c0,-5.292 3.816,-9.144 8.748,-9.144c3.204,-0 7.092,1.476 8.1,5.544l3.888,-0Z" style="fill-rule:nonzero;stroke:#000;stroke-width:0.55px;"/><path d="M461.662,157.576l11.412,-0l0,-3.672l-11.412,-0l0,-7.092l11.664,-0l0,-3.636l-15.336,-0l0,25.164l15.372,-0l0,-3.636l-11.7,-0l0,-7.128Z" style="fill-rule:nonzero;stroke:#000;stroke-width:0.55px;"/></svg>